<?xml version="1.0" encoding="UTF-8"?>
<svg id="Layer_2" data-name="Layer 2" xmlns="http://www.w3.org/2000/svg" xmlns:xlink="http://www.w3.org/1999/xlink" viewBox="0 0 16.92426 16.92426">
  <defs>
    <clipPath id="clippath">
      <rect x=".46213" y=".63514" width="16" height="15.65398" fill="none"/>
    </clipPath>
    <clipPath id="clippath-1">
      <rect x=".46213" y=".63514" width="16" height="15.65398" fill="none"/>
    </clipPath>
  </defs>
  <g id="Layer_1-2" data-name="Layer 1">
    <circle cx="8.46213" cy="8.46213" r="8.05213" fill="#fff" stroke="#000" stroke-miterlimit="10" stroke-width=".82"/>
    <g id="turbo">
      <g clip-path="url(#clippath)">
        <g clip-path="url(#clippath-1)">
          <path d="M15.47133.6354c-.25688-.00953-2.37194.22833-2.37194.22833-.19232.06217-.3199.15734-.40195.24424l-.26187.01016c-.25912.00998-.5276.01861-.8034.02751-2.90358.09351-6.51688.20976-8.59674,2.13224C1.39992,4.65995.46215,6.74853.46215,9.01011c0,2.03936.77404,3.88402,2.01666,5.20031h-.24366c-.09175,0-.16611.07436-.16611.16611v.6082c0,.09171.07436.16607.16611.16607h1.34165c1.01186.69249,2.2061,1.09341,3.48432,1.09341.27517,0,.5463-.0192.81275-.05525.23053.05781.6604.14781.98857.06968.31532-.07508.56941-.37151.70036-.55462.99702-.44955,1.8723-1.15931,2.55513-2.05172.55632-.15919,2.13997-.82489,2.59231-3.31272.50867-2.79785-1.38395-4.22114-1.68282-4.42645.00319-.00634.00225-.00445.00539-.01079l.31694.10839s1.95035.03808,2.29282-.01902c.34251-.05709.78016-.74208.81823-2.66388.03803-1.9218-.73259-2.6829-.98947-2.69243"/>
          <path d="M12.7468,1.64345s.16822-.16822.33101-.22248,1.09615-.09769,1.09615-.09769c0,0,.06514-.20621.13568-.29302,0,0-.98219.08681-1.15585.1248s-.35272.27135-.40698.4884" fill="#fff"/>
          <path d="M13.96778,1.99617s-.26047,1.33491.02171,2.40939c0,0-.98763.11936-1.26437.0597-.27679-.0597-.29306-.10857-.29306-.10857,0,0-.22788-1.05272-.01083-1.95354.13024-.22248.39615-.38527.77598-.41782.37987-.03259.77058.01083.77058.01083" fill="#fff"/>
          <path d="M12.56773,4.77998s.23332.09225,1.49773-.0597c.04882.22248.18994.47756.18994.47756,0,0-.97135.09225-1.38377.04338-.1845-.07597-.3039-.46124-.3039-.46124" fill="#fff"/>
          <path d="M16.21928,3.33792c0,1.34934-.43962,2.44319-.98187,2.44319-.5423,0-.98192-1.09386-.98192-2.44319s.43962-2.44319.98192-2.44319c.54225,0,.98187,1.09386.98187,2.44319" fill="#fff"/>
          <path d="M12.01893,4.08653s.00814.33456.08978.50593c-.7018.12241-4.3983-.43247-4.3983-.43247l4.30853-.07346Z" fill="#fff"/>
          <path d="M9.06698,8.92099c0,2.28041-1.63611,4.12907-3.65438,4.12907s-3.65438-1.84866-3.65438-4.12907,1.63615-4.12907,3.65438-4.12907,3.65438,1.84866,3.65438,4.12907" fill="#fff"/>
          <path d="M8.64463,8.92099c0,2.07236-1.48115,3.75234-3.30827,3.75234s-3.30832-1.67998-3.30832-3.75234,1.48119-3.75234,3.30832-3.75234,3.30827,1.67999,3.30827,3.75234"/>
          <path d="M5.31695,10.90525l.17339-.14188c-.52022-.51236-.58325-1.18233-.58325-1.18233l.23647-.05516c-.20495-.67002-.04729-1.19811-.04729-1.19811l.16553.06307c.19704-.67788.76456-1.13503.76456-1.13503l.07881.11823c.17452-.17452.40761-.28942.58955-.35951-.03052-.00135-.06114-.00247-.09202-.00247-1.18444,0-2.1446,1.01073-2.1446,2.25748,0,.96591.57651,1.78972,1.38688,2.11205-.34526-.21322-.528-.47635-.528-.47635" fill="#fff"/>
          <polygon points="6.17029 8.93086 6.17029 9.37277 6.55678 9.59373 6.9433 9.37277 6.9433 8.93086 6.55678 8.7099 6.17029 8.93086" fill="#fff"/>
          <path d="M7.03717,8.69339s.33964.1876.27818.5984l.08088-.02589s.06793-.43989-.35906-.57251" fill="#fff"/>
          <path d="M7.08893,9.42117l.07764.02589s.16818-.35582-.05174-.54666c0,0,.1132.28789-.02589.52076" fill="#fff"/>
          <path d="M6.9605,7.9572c0,.13064.00171.25692.0049.37646.00539.20028.0584.20028.06375,0,.00319-.11954.0049-.24582.0049-.37646,0-.37394-.01403-.71245-.03677-.95863-.0227.24618-.03677.58469-.03677.95863" fill="#fff"/>
          <path d="M7.59339,8.15622c-.06159.10812-.11963.21349-.17326.31401-.08973.1684-.0437.19466.05538.03156.05916-.09737.12021-.20104.1818-.30916.17632-.30947.32372-.5966.42002-.81158-.13581.19245-.30763.46569-.48395.77517" fill="#fff"/>
          <path d="M6.33402,8.179c.04896.10236.09782.20059.14552.29284.07993.15465.12772.13176.0575-.02747-.0419-.09508-.08771-.19475-.13666-.29711-.14013-.29297-.27971-.55219-.39246-.73525.07175.20266.18594.47401.32611.76698" fill="#fff"/>
          <path d="M5.735,8.8352c.08613.03907.17011.07526.25027.10812.13424.05503.15613.00674.0263-.05804-.0775-.03866-.16004-.078-.24618-.11706-.24654-.11185-.47554-.20028-.64727-.25319.15294.09432.37034.20832.61688.32017" fill="#fff"/>
          <path d="M5.69486,9.64073c.09202-.02176.18063-.04442.26411-.06743.1399-.03857.12772-.09018-.01461-.06204-.08501.01677-.17438.03614-.26641.0579-.26348.06222-.49878.13226-.667.19533.1787-.01884.42042-.0615.68391-.12376" fill="#fff"/>
          <path d="M6.18927,10.25353c.09184-.09782.17942-.19358.26115-.28533.13693-.15366.09827-.18994-.04644-.04361-.0864.08735-.17649.18077-.26834.27859-.26294.28003-.49073.5432-.64727.74311.18967-.16881.43796-.41274.7009-.69276" fill="#fff"/>
          <path d="M6.79952,10.47684c.02823-.13451.0539-.26492.0766-.38868.03808-.20733-.0138-.21821-.06235-.01308-.029.12246-.05799.25216-.08622.38666-.08092.38504-.14035.73651-.17137.99468.07548-.24883.16247-.59454.24334-.97958" fill="#fff"/>
          <path d="M3.30872,8.77l.12084.19969s.15766-.29954.48871-.26276l.04203-.22069s-.42564-.08933-.65158.28376" fill="#fff"/>
          <path d="M3.69756,7.83993c-.04203-.19443.16287-.50444.16287-.50444,0,0-.23642.07355-.35731.21543-.12084.14188-.27324.14188-.54122.01052-.20927-.10259-.32894-.02841-.47891.15644-.12282.37466-.1903.77989-.1903,1.2031,0,.55273.11513,1.07466.31873,1.53784.47675.13869,1.04409.65473,1.04409.65473l.2785.03156c-.14188-.16292-.61481-1.42927-.46767-1.83913-.12084-.06307-.54122-.56226-.37834-.94056.28376-.26276.9406-.05255.9406-.05255l.09459-.21021s-.3836-.06829-.42564-.26272" fill="#fff"/>
          <path d="M2.64138,7.45634c.22069-.14714.32579.06307.67784-.04729.35205-.11037.35205-.35731.88279-.28902-.35205-.17865-.57799-.11558-.89852.14714-.19443.14188-.50373-.07233-.6621.18917" fill="#fff"/>
          <path d="M3.09328,6.65239c.54122-.64106.90378.12084,1.61844-.15766.00521.09985-.17344.24173-.17344.24173-.50966.23647-.99837-.30475-1.445-.08407" fill="#fff"/>
          <path d="M6.60861,5.85369s.28902-.06833.46241.05781c-.07881.15235-.07359.41512-.06307.48341-.09459-.04203-.23121-.01052-.23121-.01052,0,0,.10511-.3783-.16813-.5307" fill="#fff"/>
          <path d="M8.79509,6.76509s.54338.70144.54841,2.08616c.00508,1.40607-.35002,1.83522-.35002,1.83522l.37066-.00297s.44582-.50157.44582-1.84852-.6403-2.08427-.6403-2.08427l-.37457.01439Z" fill="#fff"/>
          <path d="M10.64166,9.9632c-.13662.03268-.26964.06217-.39197.13145.07773-.33236.1199-.67914.1199-1.03622,0-2.11016-1.03523-3.64701-3.34689-4.27513.10722.12475.20405.26856.2709.37506,1.86691.5641,2.77995,2.05653,2.77995,3.90006,0,2.20133-1.67526,3.99847-3.75742,4.06307-.1992.12147-.39673.20846-.58267.26969.15339.01798.30907.0281.467.0281,1.83301,0,3.39238-1.24437,3.94956-2.96742.20967-.23687.57637-.25858.71263-.348l.05026-.30642s-.04019.1105-.27126.16575" fill="#fff"/>
          <path d="M10.2508,5.81478l-.58267-.15069s.19614.18301.44214.51865c-.1279-.02603-.30224-.07166-.38662-.13918-.01897.41197.51618,1.02764.51618,1.02764,0,0,.00004-.39983.09877-.54985.54729.88252,1.12272,2.38871.40446,4.24622-1.01357,2.62135-3.55431,2.8259-4.19902,2.83476-.07247.06806-.17542.16049-.26043.23606,1.04755.08757,2.93087-.09665,4.30875-2.1566,2.00924-3.00383-.34157-5.867-.34157-5.867" fill="#fff"/>
          <path d="M13.47243,9.11847s.00719,1.57915-.2584,2.26827c.19263-.18863.38752-.45131.52189-.64628.11257-.16323.14449-.36832.08712-.55812-.09692-.32053-.2526-.82116-.35061-1.06387" fill="#fff"/>
          <path d="M12.93148,7.13343l-.32728-.25786s1.20004,2.41995-.40667,5.58378c-1.60671,3.16383-4.78043,3.22331-4.78043,3.22331-.32727,0-1.0017-.24793-1.0017-.24793,0,0,3.01503.45621,5.15733-2.53899,2.14226-2.9952.69425-6.31772.69425-6.31772,0,0-.20248-.2005-.37691-.02972.36697.51573.54549,1.71577.32732,2.27119.02971-1.19015-.86287-2.74727-1.04139-2.85638-.17852-.10911-.46614-.14876-.46614-.14876,0,0,2.98527,3.53076-.62484,7.03179-3.6101,3.50104-6.74417,0-6.74417,0,0,0-1.83881-.92631-1.89433-3.78862-.0646-3.33165,2.79686-4.83995,4.98871-5.26644,2.19185-.42645,5.60001-.29208,5.60001-.29208,0,0-.03844-.71344.08825-1.19199l.00503-.01699c-.28088-.008-.84709-.02068-1.99112-.03898-2.23896-.03574-5.02152.51505-5.02152.51505,0,0,1.12303-.73678,3.32621-.93705,1.96972-.1791,3.56667-.15235,3.88325-.14467l.12187-.26407c-2.91347.11257-7.01633.05314-9.20845,2.08148l.00009.00013c-1.50394,1.26667-2.4743,3.26255-2.4743,5.50821,0,2.09029.84058,3.96444,2.16982,5.23533.0009.08555.00126.18472-.00162.18472h-.5213c-.05363,0-.0971.04347-.0971.0971v.27086c0,.05363.04347.0971.0971.0971h.63886c.05363,0,.0971-.04347.0971-.0971v-.35816c1.07462.93997,2.43447,1.50174,3.91369,1.50174,2.69512,0,4.99437-1.8643,5.89267-4.4852.66934-2.2622-.0223-4.32309-.0223-4.32309" fill="#fff"/>
          <path d="M7.36617,10.38468c.09553.29226.192.55947.27841.77674.00697-.00917.01394-.01807.02086-.02738-.05817-.22248-.13653-.48831-.22936-.7722-.04271-.13064-.0856-.25643-.12776-.37502-.07058-.19861-.12093-.18216-.06055.01983.03605.12057.0757.24739.11841.37803" fill="#fff"/>
          <path d="M7.87589,10.02136c.09162.08519.18104.16625.26753.24303.0085-.02189.0165-.04446.02468-.0668-.07705-.07476-.15775-.15163-.24213-.23008-.10061-.0936-.19911-.18283-.29342-.26618-.15793-.13959-.19403-.10075-.04338.04666.08996.08802.18607.17978.28673.27337" fill="#fff"/>
          <path d="M7.78484,9.34992c.12516.01317.25746.02545.39448.03637.06505.00521.12862.00976.19142.01398.0036-.02342.0076-.04711.01079-.07031-.06433-.00593-.12952-.01164-.19637-.01699-.13702-.01092-.2696-.01978-.39525-.02657-.21053-.01142-.21471.04145-.00508.06352" fill="#fff"/>
          <path d="M7.75071,8.87653c.10803-.05134.22136-.10704.33779-.16625.11414-.05804.22334-.11549.32665-.1715-.0013-.02311-.00306-.04576-.00477-.06851-.11324.05363-.23246.11207-.35519.17447-.11643.05916-.22824.11796-.33339.17497-.17609.09558-.15204.14282.02891.05682" fill="#fff"/>
          <path d="M6.83428,11.94331c.08865-.06141.1907-.1386.30012-.23404-.1711.04149-.3489.06411-.53173.06411-1.30906,0-2.3741-1.12326-2.3741-2.50384s1.06504-2.50379,2.3741-2.50379c.5944,0,1.138.23206,1.55492.61414-.06141-.15002-.12516-.27495-.18184-.37331-.39691-.26686-.86791-.42231-1.37307-.42231-1.40913,0-2.55554,1.20458-2.55554,2.68528s1.14641,2.68532,2.55554,2.68532c.07813,0,.15528-.00432.23161-.01155" fill="#fff"/>
          <path d="M15.86116,3.07801c.12277.16368.1729.377.19084.5521.00355-.08717.00557-.17591.00557-.26618,0-1.10532-.27414-2.00137-.61225-2.00137-.33815,0-.61225.89605-.61225,2.00137s.27409,2.00133.61225,2.00133c.22478,0,.4211-.39619.5276-.98637-.10902.2901-.27364.62178-.45832.62825-.32921.01155-.36962-.52562-.36962-.52562,0,0,.34076-1.20714.71619-1.40351M15.25471,3.46499c-.02311-.4563.19636-.98767.32345-1.10896.12704.12129.21947.41008.21947.41008-.22527.1444-.43319.4505-.54293.69888"/>
          <path d="M6.5303,8.91443c-.00328.00036-.00625.00153-.00949.00198.10807.00706.19879.09036.21066.20176.01331.12457-.07687.23638-.20149.24968-.05408.00575-.10515-.00881-.14741-.03641.0508.05116.12273.08038.19996.07215.13509-.01443.23287-.13563.21844-.27072-.01439-.13505-.13559-.23287-.27068-.21844"/>
          <path d="M6.5176,9.1757c-.00378-.03547.02189-.0673.05736-.07112.0129-.00135.02473.0022.03547.00764-.01313-.03889-.05174-.06496-.09427-.06042-.04918.00526-.08479.04941-.07953.09859.00526.04918.04936.08479.09859.07957.00647-.00072.01272-.00216.0187-.00414-.01924-.00949-.0339-.02724-.03632-.05013"/>
        </g>
      </g>
    </g>
  </g>
</svg>