<?xml version="1.0" encoding="UTF-8"?>
<svg id="Layer_2" data-name="Layer 2" xmlns="http://www.w3.org/2000/svg" viewBox="0 0 1169.09743 719.81946">
  <g id="Layer_2-2" data-name="Layer 2">
    <g>
      <g>
        <path d="M565.53269,676.75352c0,.8373,12.1941,17.5757,12.1941,17.5757,0,0-81.9703,5.7823-107.9271-21.387,0,0-35.9349-151.053,9.4896-202.1586,45.4244-51.1056,168.5794-96.8591,177.5108,13.3874-6.1403,86.8017-91.2674,192.5825-91.2674,192.5825Z"/>
        <path d="M579.7476,437.03942c-45.60491,15.4658-79.42371,87.335-73.53941,159.8473,5.8843,72.5122,48.8337,113.1595,93.95441,91.7267,43.07729-20.4621,72.20619-90.4314,66.79579-157.1047-5.4105-66.6733-43.6712-109.2347-87.21079-94.4693Z"/>
        <g>
          <path d="M601.56249,651.88142c-27.9436,13.8785-54.56289-14.3906-58.4462-63.4619-3.8832-49.0692,16.6168-98.1267,44.7975-109.0098,27.2352-10.5179,51.6963,18.7053,55.3463,64.8275,3.65,46.1241-14.6914,94.2314-41.6976,107.6442ZM588.2566,483.74192c-26.73571,10.3986-46.15061,56.9688-42.46841,103.4988s28.90941,73.4068,55.4315,60.3086c25.6763-12.6805,43.1443-58.3956,39.6724-102.2674-3.4718-43.8719-26.7523-71.607-52.63549-61.54Z"/>
          <path d="M647.50829,535.19382l-35.4596,10.9453,30.9011-32.9247-3.6764-10.4792-31.8546,29.2322,23.0014-45.2087-5.8237-6.9219-25.2654,44.0037,12.75251-52.5789-7.217-2.1881-14.96111,51.5613,1.2784-50.7358-7.5565,2.9227-3.4804,52.8711-10.17839-42.4036-6.73341,7.8635,8.0876,44.4584-18.7491-26.2887-4.8326,11.622,17.9079,30.2722-24.4143-6.0063-2.0463,13.6247,23.5587,9.807-24.367,15.2371,1.0588,13.3792,25.237-11.712-20.2268,34.8957,4.0478,10.888,21.01371-31.3579-11.34171,47.5199,6.2813,6.7158,13.428-46.2636-.17259,53.8988,7.49069,1.4794,2.2641-52.5774,11.6206,50.2831,7.4893-3.7134-9.3945-52.093,22.6073,40.4173,6.3571-8.2703-20.369-42.3157,30.2175,23.9593,4.3705-11.4144-29.1699-28.0021,34.937,4.6736,1.7681-12.9163-33.9816-8.7654,34.5915-14.8082-.996-12.5857Z"/>
          <path d="M641.56549,547.59502l-.4907-6.2013-34.2621,10.5731c-.1636-.8764-.3498-1.7258-.5537-2.5565l29.9188-31.7009-1.8123-5.1612-31.1525,28.6c-.3129-.5947-.64039-1.1593-.9795-1.7045l22.5435-44.2231-2.8701-3.4053-24.388,42.2899c-.4814-.3627-.9744-.6829-1.4779-.9701l12.3961-50.5556-3.55449-1.072-14.58321,50.088c-.5045.006-1.0135.0558-1.5269.1333l1.2925-49.3303-3.7192,1.4451-3.4927,50.372c-.5636.3944-1.1153.8252-1.6553,1.2977l-9.5448-40.4107-3.3111,3.8745,7.6669,42.8071c-.4263.6851-.8368,1.3943-1.2321,2.1314l-17.9732-25.2859-2.37489,5.7187,16.67759,28.6218c-.29859,1.0059-.5709,2.0303-.8181,3.0746l-22.8609-5.618-1.0045,6.7012,22.3445,9.4043c-.0573,1.0097-.0853,2.0227-.0917,3.0404l-23.1435,14.6378.5207,6.579,23.4798-10.9735c.1883,1.0383.4045,2.044.649,3.0188l-18.7664,32.8887,1.9891,5.3558,19.91741-29.9209c.37739.6987.77389,1.3583,1.18769,1.9858l-10.6665,45.4561,3.0879,3.3069,12.4372-43.6149c.5589.3849,1.1314.7191,1.717,1.0037l.0838,50.8788,3.6846.7345,2.05431-50.4954c.55479-.0482,1.11549-.1558,1.67869-.2902l11.2947,48.3662,3.6871-1.8215-9.1212-49.5225c.5684-.4512,1.1213-.9461,1.6625-1.4764l21.689,38.4899,3.13221-4.0683-19.82791-41.0357c.3917-.6859.7634-1.4017,1.1253-2.1326l29.39361,23.3201,2.15479-5.6196-28.1217-26.84c.2506-.925.4748-1.8677.6825-2.8213l33.674,4.5497.8719-6.3627-33.2083-8.5343c.0364-.8657.0412-1.7353.0401-2.6062l33.8506-14.4135Z" fill="#fff"/>
          <path d="M601.14199,659.41662c-29.9146,15.1368-58.5082-15.5849-62.7349-68.9948-4.22649-53.4076,17.7178-106.7096,47.9032-118.4254,29.1229-11.3034,55.2915,20.5043,59.2518,70.5487,3.96051,50.0466-15.5584,102.2675-44.4201,116.8715ZM587.93189,479.63962c-28.1036,10.8574-48.5461,59.7824-44.6736,108.7172s30.4181,77.1315,58.286,63.2948c26.9354-13.3737,45.2308-61.3557,41.59031-107.3591-3.64051-46.0035-28.03931-75.147-55.20271-64.6529Z" fill="#fff"/>
          <path d="M582.00709,565.00922c.7462.1982,1.5129-.7256,1.7131-2.0626.2001-1.3366-.2415-2.5818-.9869-2.782-.746-.2002-1.514.722-1.7149,2.0606-.201,1.339.2419,2.5857.9887,2.784Z" fill="#fff"/>
          <path d="M590.88449,596.99202c-9.9871,4.6054-19.3198-5.7049-20.6913-23.0362-1.3714-17.3291,5.7548-34.9008,15.77241-39.1214,9.89509-4.1689,18.94769,6.2649,20.28879,23.2116,1.3413,16.9488-5.5049,34.397-15.3699,38.946ZM586.13369,536.95832c-9.3284,3.9428-15.9582,20.3091-14.6815,36.442,1.2769,16.1351,9.9622,25.7446,19.2642,21.4679,9.196-4.228,15.5827-20.4871,14.3321-36.2902-1.2504-15.8009-9.6927-25.5176-18.9148-21.6197Z"/>
          <path d="M590.5416,592.65862c-8.589,3.9367-16.60321-4.9438-17.78171-19.835-1.1782-14.8895,4.9371-30.0038,13.5486-33.6558,8.5209-3.6135,16.3277,5.3585,17.4836,19.9647,1.156,14.608-4.752,29.6309-13.25049,33.5261ZM586.45319,540.99562c-8.0197,3.4103-13.7101,17.4882-12.6131,31.3513,1.0973,13.8651,8.5567,22.1414,16.5568,18.484,7.92171-3.6215,13.4321-17.62,12.3543-31.2392-1.07759-13.6173-8.3571-21.973-16.298-18.5961Z"/>
          <path d="M596.2646,562.27282c.57339,7.2459-2.35761,14.6463-6.56641,16.5383-4.2308,1.9018-8.1462-2.4789-8.725-9.7936-.5789-7.3148,2.40241-14.7374,6.6387-16.5702,4.2142-1.8232,8.0792,2.5797,8.65271,9.8255Z"/>
          <path d="M593.13539,563.65302c.3376,4.2662-1.39079,8.6177-3.8674,9.7223-2.4841,1.1081-4.7788-1.4689-5.1183-5.7589s1.4063-8.6491,3.8923-9.7333c2.4785-1.0809,4.7558,1.5037,5.0934,5.7699Z" fill="#fff"/>
          <path d="M588.80939,544.19402c.1531,1.9346-.6327,3.8942-1.7565,4.3776-1.1254.484-2.16329-.6954-2.3167-2.6348-.1535-1.9395.6358-3.9006,1.7616-4.3798,1.1242-.4784,2.1585.7025,2.3116,2.637Z"/>
          <path d="M600.27409,557.09742c-1.0096,1.0459-2.2192.5271-2.7006-1.1605-.4816-1.6884-.0511-3.9039.9605-4.9465,1.0102-1.0413,2.2172-.5178,2.6969,1.1673.4795,1.6845.0516,3.8952-.9568,4.9397Z"/>
          <path d="M595.56509,581.82882c-.7684-1.2854-.7244-3.5648.098-5.0887.8214-1.5222,2.1078-1.7125,2.8734-.4276.765,1.284.7218,3.5571-.09689,5.0797-.81961,1.5244-2.10671,1.7209-2.87451.4366Z"/>
          <path d="M581.10789,584.16622c.56171-1.8602,1.8241-2.7438,2.819-1.9758.99371.7671,1.3456,2.8931.7865,4.7507-.5596,1.8592-1.8205,2.7483-2.8169,1.9837-.9976-.7654-1.35089-2.8969-.7886-4.7586Z"/>
          <path d="M577.09949,560.50562c1.1243.1841,1.8449,1.9554,1.6107,3.9574-.2343,2.0029-1.3359,3.482-2.4618,3.3026-1.1273-.1796-1.851-1.9536-1.6151-3.9611.2357-2.0067,1.3404-3.4831,2.4662-3.2989Z"/>
        </g>
      </g>
      <g>
        <path d="M1079.95378,451.10182c0,.6386,9.2996,13.4038,9.2996,13.4038,0,0-62.5131,4.4097-82.3086-16.3104,0,0-27.405-115.1978,7.2371-154.17249,34.6421-38.97471,128.56392-73.86771,135.37532,10.20969-4.6828,66.1977-69.60342,146.8694-69.60342,146.8694Z"/>
        <path d="M1090.79448,268.28842c-34.7797,11.7947-60.57088,66.6044-56.0834,121.9045,4.4876,55.3,37.2421,86.2989,71.6526,69.9536,32.85203-15.605,55.06673-68.9658,50.94053-119.8129-4.1262-50.8471-33.305-83.3058-66.50972-72.0452Z"/>
        <g>
          <path d="M1107.43127,432.13362c-21.31067,10.5841-41.6114-10.9748-44.5729-48.3981-2.9614-37.4216,12.6725-74.83445,34.1639-83.1342,20.77052-8.02132,39.42532,14.2652,42.20882,49.4394,2.7837,35.1757-11.2041,71.8638-31.79983,82.0929ZM1097.28378,303.90515c-20.3895,7.9303-35.196,43.44617-32.3878,78.93137s22.0473,55.9823,42.2738,45.9932c19.58163-9.6705,32.90323-44.5343,30.25553-77.9923-2.6478-33.458-20.4022-54.60969-40.14152-46.93227Z"/>
          <path d="M1142.471,343.14402l-27.0426,8.3472,23.5661-25.1094-2.8037-7.9918-24.29343,22.2934,17.54173-34.47754-4.4414-5.27891-19.26823,33.55855,9.72553-40.0982-5.50393-1.66877-11.4098,39.32227.9749-38.69266-5.7628,2.22893-2.6543,40.32113-7.7623-32.33832-5.1351,5.99699,6.16792,33.90533-14.29872-20.0486-3.6855,8.8633,13.6571,23.0866-18.6191-4.5806-1.5605,10.3905,17.9666,7.4792-18.5831,11.6203.8075,10.2033,19.2465-8.9319-15.4256,26.6125,3.087,8.3036,16.0257-23.9145-8.6495,36.2402,4.7903,5.1216,10.2406-35.282-.1316,41.1048,5.7126,1.1283,1.72672-40.0972,8.86217,38.3475,5.7116-2.832-7.1646-39.7277,17.24103,30.8235,4.8482-6.3072-15.53413-32.2713,23.04493,18.2722,3.333-8.705-22.2459-21.3553,26.6441,3.5643,1.3484-9.8504-25.9154-6.6848,26.3805-11.2932-.7595-9.5982Z"/>
          <path d="M1137.9388,352.60152l-.3743-4.7294-26.12933,8.0634c-.1247-.6683-.2667-1.3161-.4222-1.9496l22.81693-24.1761-1.3821-3.9361-23.75783,21.8112c-.2386-.4535-.48837-.8841-.747-1.2999l17.19233-33.7258-2.1888-2.59702-18.59903,32.25152c-.3671-.2766-.7431-.5208-1.1271-.7398l9.4536-38.55525-2.7107-.81753-11.12167,38.19859c-.38472.0047-.77292.0426-1.16442.1018l.9857-37.62085-2.83628,1.10206-2.66372,38.41529c-.4299.3007-.8506.6293-1.2624.9896l-7.2792-30.8185-2.5251,2.9549,5.847,32.646c-.3251.5224-.6382,1.0633-.93958,1.6255l-13.707-19.2838-1.81112,4.3612,12.7189,21.8279c-.22778.7671-.4354,1.5484-.624,2.3448l-17.4344-4.2845-.7661,5.1105,17.0406,7.1721c-.0436.77-.065,1.5426-.06988,2.3187l-17.64992,11.1632.397,5.0174,17.9065-8.3687c.1436.7918.3085,1.5588.4949,2.3022l-14.3118,25.0819,1.5169,4.0845,15.1897-22.8186c.2878.5328.5902,1.0359.90572,1.5144l-8.13462,34.6663,2.355,2.5219,9.485-33.2621c.4262.2936.8628.5484,1.3094.7655l.0639,38.8017,2.81.5602,1.5667-38.5094c.4231-.0367.8507-.1188,1.2802-.2213l8.6137,36.8856,2.8119-1.3892-6.9561-37.7674c.4335-.344.8551-.7215,1.2678-1.1259l16.54082,29.3536,2.3887-3.1027-15.1214-31.295c.29877-.5231.58217-1.069.85817-1.6264l22.41643,17.7846,1.6434-4.2856-21.44653-20.4691c.1911-.7054.3621-1.4244.52053-2.1516l25.6808,3.4698.665-4.8524-25.32573-6.5085c.0278-.6603.0314-1.3234.0306-1.9876l25.81553-10.9922Z" fill="#fff"/>
          <path d="M1107.1106,437.88012c-22.81392,11.5438-44.62022-11.8855-47.84362-52.6176-3.2232-40.7302,13.5122-81.37998,36.5325-90.31484,22.21002-8.62036,42.16702,15.63723,45.18722,53.80264,3.0204,38.167-11.8653,77.9923-33.8761,89.1298ZM1097.03618,300.7766c-21.4327,8.28019-37.0229,45.59192-34.06958,82.91112,2.95328,37.3192,23.19788,58.8228,44.45077,48.2706,20.54183-10.1992,34.49443-46.7918,31.71803-81.8754-2.7764-35.0837-21.3836-57.30947-42.09922-49.30632Z" fill="#fff"/>
          <path d="M1092.51768,365.88212c.5691.1511,1.1538-.5534,1.3065-1.573.1526-1.0193-.1842-1.969-.75258-2.1216-.569-.1527-1.15472.5506-1.30792,1.5714-.1533,1.0212.1845,1.972.754,2.1232Z" fill="#fff"/>
          <path d="M1099.28788,390.27322c-7.6165,3.5122-14.7339-4.3508-15.7799-17.5681-1.0458-13.2157,4.3889-26.6165,12.02862-29.8352,7.54628-3.1794,14.45007,4.7778,15.47287,17.7019,1.0229,12.9256-4.1983,26.2322-11.7216,29.7014ZM1095.66478,344.48962c-7.11418,3.0069-12.17018,15.4884-11.1966,27.7918.9738,12.3052,7.5975,19.6336,14.6915,16.3721,7.0132-3.2244,11.88392-15.6241,10.9301-27.6761-.9536-12.0502-7.392-19.4605-14.425-16.4878Z"/>
          <path d="M1099.02638,386.96842c-6.5503,3.0023-12.6622-3.7703-13.5609-15.1268-.8986-11.3552,3.7652-22.8818,10.3326-25.6669,6.4983-2.7558,12.452,4.0865,13.33352,15.2257.88157,11.1405-3.624,22.5974-10.10522,25.568ZM1095.90838,347.56862c-6.1161,2.6008-10.4557,13.337-9.6191,23.9095.8368,10.5739,6.5256,16.8857,12.6268,14.0964,6.0412-2.7619,10.2437-13.4375,9.4217-23.824-.8218-10.3849-6.3733-16.7573-12.4294-14.1819Z"/>
          <path d="M1103.39088,363.79532c.4373,5.5259-1.798,11.1697-5.0077,12.6125-3.22658,1.4504-6.2125-1.8904-6.654-7.4689-.4415-5.5784,1.8321-11.2391,5.0629-12.6369,3.2139-1.3904,6.16152,1.9673,6.5988,7.4933Z"/>
          <path d="M1101.00448,364.84782c.2574,3.2536-1.0607,6.5721-2.9494,7.4146-1.89448.845-3.6444-1.1203-3.9034-4.392-.2589-3.2717,1.0725-6.5961,2.9684-7.4229,1.8902-.8243,3.6269,1.1468,3.8844,4.4003Z" fill="#fff"/>
          <path d="M1097.70528,350.00782c.1168,1.4754-.4825,2.9699-1.3395,3.3385-.8583.3691-1.6498-.5303-1.7668-2.0094-.1171-1.4791.4849-2.9748,1.3434-3.3402.8574-.3648,1.64622.5357,1.7629,2.0111Z"/>
          <path d="M1106.44867,359.84832c-.77.7976-1.6925.402-2.0596-.885-.3673-1.2876-.039-2.9772.73253-3.7724.77037-.7941,1.69087-.3949,2.05677.8903.3656,1.2846.0393,2.9705-.7297,3.7671Z"/>
          <path d="M1102.85748,378.70922c-.586-.9802-.5525-2.7186.0747-3.8808.6265-1.1608,1.6075-1.306,2.1913-.326.5835.9791.5505,2.7127-.07387,3.8739-.62513,1.1625-1.60662,1.3124-2.19212.3329Z"/>
          <path d="M1091.83188,380.49182c.4285-1.4186,1.3912-2.0925,2.1499-1.5068.7579.5851,1.0262,2.2064.59982,3.6231-.42682,1.4178-1.38842,2.0959-2.14832,1.5128-.76068-.5837-1.0302-2.2093-.6014-3.6291Z"/>
          <path d="M1088.77498,362.44752c.8574.1404,1.407,1.4912,1.2284,3.018-.1787,1.5275-1.01878,2.6556-1.8774,2.5187-.8597-.137-1.4117-1.4898-1.2318-3.0209.1797-1.5303,1.0222-2.6563,1.8808-2.5158Z"/>
        </g>
      </g>
      <path d="M1155.0577,254.89452c2.8601-7.3546-23.6977-65.373-40.041-88.2536l-8.5801-2.8599s21.0418-59.5766,33.1711-101.0475c4.3909-15.0129-5.1945-30.5075-20.5895-33.2753C1066.98208,20.10323,952.49228,1.30803,866.03098.00763c-4.8587-.0731-9.70338.3814-14.4802,1.2725-11.4516,2.1362-34.1088,6.4847-51.102,10.5194-9.9403,2.3602-18.9361,7.7801-25.5538,15.56389-9.4265,11.08731-15.3435,21.60641-15.3435,21.60641,0,0-148.3148,1.2257-274.56619,55.5669,0,0-56.82569,23.5992-145.3201,98.07319-6.5871-3.4419-18.02159-6.8176-29.71959,1.9063-12.7546,9.5119-6.2306,19.9352-1.3286,25.2178-9.7067,8.7874-19.6859,18.0841-29.965,28.0206,0,0-165.14664,75.3844-238.1324,138.6162-3.5839,3.1049-6.094,7.2434-7.2535,11.8413-6.817,27.0321-5.0741,37.4896-5.0741,37.4896l-15.0781,19.167c-6.0425,7.6812-8.9579,17.3409-8.1999,27.0845,1.3296,17.0938,4.7519,44.4622,13.4721,62.431l-18.3861,27.7834.4085,18.3861s23.289,27.7835,39.6324,41.2667c16.3431,13.4831,245.1484,88.2535,330.95029,76.8132,85.802-11.4403,131.9716-48.6211,140.5518-64.1472-8.1716-59.6528-13.0747-205.9247,72.7274-223.0851,85.8019-17.1604,76.8131,134.0144,75.996,142.5947l18.7947,8.5802s278.24339-118.0798,299.08109-120.5314c20.8376-2.4515,60.06142,4.9031,65.373-29.0091,5.3115-33.9123-10.6232-146.272,51.4811-168.3353,62.10422-22.0633,50.66412,108.2739,50.66412,108.2739,0,0,45.761-26.5578,9.3973-118.0798ZM1040.44648,115.65112s-35.0778-28.6216-49.281-35.7233c-14.2033-7.1016-107.3853-26.4696-157.9575-28.6216l5.6849-10.909c1.39-2.6671,4.206-4.2636,7.207-4.067,23.0291,1.5094,122.4008,9.0431,205.53509,31.2103,4.6758,1.24689,8.32862,6.2706,8.2247,11.1088-.4163,19.3566-19.4132,37.0018-19.4132,37.0018Z"/>
      <path d="M1039.51288,422.89472l-.1138-.0196s-15.33648-170.6641,71.31952-166.825c30.1362,1.3352,40.4178,43.49782,41.024,97.9113,33.8992-48.66026-41.502-177.2659-41.502-177.2659,0,0-4.16433-2.2714-19.30742-3.0286-5.3-5.6786-78.365-82.5295-117.7369-86.6937-39.3718-4.1644-201.02359,34.829-235.09549,62.0864-34.0717,27.2574-117.7369,164.3017-117.7369,164.3017,2.65271,5.8739,2.8395,11.4627,2.3645,15.5809l13.5178-5.3261,8.5196,3.6086-28.7104,12.5447c-37.514,29.1323-124.0285,74.293-124.0285,74.293,0,0-19.6859,49.5934-37.8576,79.8794-15.9002,15.5215-85.9366,42.4005-85.9366,42.4005,0,0-85.1795-17.0359-86.6939-15.9003-17.0358,6.4359-39.3718,28.7719-39.3718,28.7719-51.1077-1.5144-149.1588-35.9648-149.1588-35.9648,0,0-19.502-27.2526-26.6052-36.8532-.5786-.9115-1.5005-2.3106-2.9237-4.4115-7.95-2.2715-31.8003-15.9001-31.8003-15.9001,0,0-2.6501,4.1644-13.2502,21.5788-7.1929,40.129,10.6001,79.5008,10.6001,79.5008l-20.0645,28.0146v13.6287l35.9648,35.9648s225.2524,82.9079,324.06049,73.0649c87.4781-8.7142,132.1974-53.3043,141.3096-63.4225-7.1914-64.5676-7.3351-196.7518,73.9711-213.0131,85.8019-17.1604,76.8131,134.0144,75.996,142.5947l7.1786,3.2772,298.55829-120.8103c23.4717-15.1431,26.1218-5.6786,49.5935-8.3287,23.4716-2.65,21.2001-23.0931,21.2001-23.0931,0,0,.9212-.7638,2.716-2.1464Z" fill="#fff"/>
      <path d="M664.1306,341.37032l244.22058-90.5865-6.8179-9.178-.5693-2.6323-246.93179,90.7876c5.5258,3.0057,10.09841,11.6092,10.09841,11.6092Z"/>
      <path d="M1051.84078,188.94682l-2.0018-4.9021c-.6539-1.6024-1.7721-4.2032-3.3895-7.5054-23.1876-47.2887-72.5105-77.8456-125.6573-77.8456-10.4307,0-20.8963,1.1668-31.1123,3.4669-42.8109,9.6407-86.4006,22.5136-110.6066,30.9937-12.8368,4.4978-31.0299,14.4292-40.1502,27.7428l-106.4882,165.6477,7.7375,1.2231c4.358.6889,5.9379,4.308,6.1401,4.8147l.0328.0931-.0403.0442c.0095.0087.0417.0401.085.0828l1.6272,4.6146,1.6655-.6123c11.0071,15.1654,43.9116,76.4114,23.048,241.4469l5.0718.639c20.6077-162.9966-10.3266-225.9154-23.0658-243.9441l397.10409-146Z"/>
      <path d="M642.79149,325.14432l102.2513-159.0575c7.9049-11.537,24.3413-21.0568,37.54-25.6811,24.1547-8.4629,67.9895-21.3633,110.03982-30.8325,60.85678-13.7041,123.59228,15.6344,151.05628,71.6441,1.628,3.3201,2.6875,5.8146,3.24872,7.1862l-393.99221,144.856s-2.4345-6.8979-10.1439-8.1152Z" fill="#fff"/>
      <path d="M1110.2406,176.69552s-4.16433-2.2714-19.30742-3.0286c2.7641,8.6317-1.58,13.4728-4.5403,18.8014-2.9606,5.3288-2.3684,13.0259-2.3684,13.0259l-4.1446.1973c-.3948-4.5392.98672-12.2363,4.7366-19.1439,3.7499-6.9076,1.3059-11.0645,1.3059-11.0645,0,0-21.2453-7.7084-31.20978-6.5804-9.96462,1.1281-16.944-7.5083-13.72482-9.4006,3.2191-1.8921,20.4932-3.0081,34.03,6.5805-16.3569-25.7575-57.9074-26.3216-70.55618-33.4515,29.93608,23.1776,40.64628,53.3461,40.64628,53.3461l-136.1182,50.6303.3065,2.4213s4.1725,4.9031,7.4842,9.2035l136.721-51.2879c-2.3395,22.0588-86.2474,51.4704-86.2474,51.4704,0,0-29.0597,13.369-9.6747,10.6041,19.3849-2.7647,72.2458-17.6228,72.2458-17.6228-12.9813,13.0348-22.9706,50.0859-22.9706,50.0859l-71.21188,30.3439c-.32882,24.5786-2.69,80.7379-16.713,120.7291l8.16128-117.0853-239.79749,102.1792c2.78021,22.6527,7.4578,72.9753-.3259,108.6505,1.98711-25.1691-3.9218-81.1419-6.7542-105.6336l-13.5699,5.7822c-14.3131-46.2423-57.7874-57.0492-57.7874-57.0492,10.6167-15.7641,48.2575-34.7454,48.2575-34.7454l-9.6516-13.8202-25.4156,10.5371c-43.4316,37.2532-126.1128,77.9213-126.1128,77.9213-4.1823,13.834-30.563,76.5685-30.563,77.9496,0,1.381-34.102,28.6602-34.102,28.6602,0,0-10.6166-10.0949-19.30289,0-8.68651,10.0948-27.66781,7.9214-34.42371,14.3557-6.7562,6.4343-18.338,37.319-46.649,53.0092,13.8338-1.361,78.8205-25.0198,94.4364-36.8744,15.6158-11.8547,19.1296-5.8398,18.8078,7.2448-.3217,13.0847-15.4424,80.5348-41.1797,92.1166-25.7374,11.5818-73.3513,19.3031-101.019,17.6944-27.6676-1.6086-225.2016-50.5094-244.1828-68.9577-18.9813-18.4482-28.7267-47.3261-28.7267-47.3261l-20.0645,28.0146,38.1282,38.739c.5413.1984,1.082.3963,1.6218.5938,280.22759,102.5055,343.57159,69.1881,343.57159,69.1881,11.5263,2.5935,34.0991-.4426,46.6952-2.5145,42.0606-16.6748,65.068-39.8305,71.3181-46.7705-7.1914-64.5676-7.3351-196.7518,73.9711-213.0131,85.8019-17.1604,76.8131,134.0144,75.996,142.5947l7.1786,3.2772,8.6697-3.5081c3.0663-71.872-5.99509-172.6549-83.1539-160.0192-118.5056,19.4068-103.6407,175.9-99.0988,202.3262,4.5421,26.4263-2.8903,28.078-17.7551,18.1681-14.8647-9.9098-7.0194-67.3044,4.1291-99.9245,11.14861-32.6198,4.5421-33.0328-9.0841-9.4968-13.6259,23.5359-22.71,93.7306-22.71,93.7306-4.5421-65.6526,46.246-229.5783,145.3446-228.3396,99.0987,1.2388,84.2338,168.0547,84.2338,168.0547l305.14109-130.4798,44.1816-59.4591s7.7768-5.0971,19.4271-12.7485c3.406-38.8787,13.8824-78.6757,48.2262-90.8768,25.12452-8.9258,38.20672,7.0925,44.88472,29.32783,6.7676-4.55483,11.0359-7.49793,11.3351-7.87183.7012-.8766,1.3277-5.9223,1.8484-11.2483-13.9955-49.0394-42.8239-98.2126-42.8239-98.2126Z"/>
      <g>
        <path d="M910.47448,227.30602l124.2364-45.6774c-21.1658-42.6387-65.8138-70.1556-113.9187-70.1556-9.4872,0-19.0093,1.0621-28.3043,3.155-3.6794.8285-7.373,1.6919-11.0666,2.5689,13.77,31.5256,23.8996,81.0664,29.0532,110.1091Z"/>
        <path d="M860.46218,122.38702c-31.0434,8.0082-59.9341,16.7915-77.1632,22.8279-11.8833,4.1645-26.929,12.8218-33.6257,22.591l-97.5901,151.8051c.7513.6215,1.4327,1.2755,2.0517,1.9419l235.09959-86.4378c-7.6051-53.9933-20.2587-91.8182-28.7723-112.7281Z"/>
      </g>
      <g>
        <path d="M862.11468,134.71402c-28.3616,7.4803-54.2956,15.4129-70.1934,20.9827-12.56968,4.4054-24.8024,12.4923-29.8493,19.7182l-36.1111,56.1719,146.9905-58.4905c-3.5747-14.0633-7.2349-26.8528-10.8367-38.3823Z" fill="#fff"/>
        <path d="M905.08298,160.31052l69.8183-27.7822c-14.92468-6.5292-31.2371-10.1416-48.02268-10.1416-8.92062,0-17.87612.9984-26.61952,2.9677-1.5249.3434-3.0557.7006-4.58448,1.0528,3.346,11.0371,6.48728,22.4538,9.40838,33.9033Z" fill="#fff"/>
      </g>
      <path d="M727.60378,59.24153c-1.744.0158-3.4937.1101-5.229.2843-19.9666,2.0051-147.449,15.8998-228.82818,51.2671-88.49171,38.4584-201.2531,150.8465-201.2531,150.8465,0,0-184.82429,91.8521-204.6136,116.4953-19.7892,24.6432-12.3216,62.7282-12.3216,62.7282,0,0,65.3468,34.5299,197.1512,44.7204.3711.0287.7427.0572,1.1149.0855,171.3824-51.1534,258.00709-92.5988,333.80379-150.4731,1.1201-8.2144-.3734-19.0425-.3734-19.0425,0,0,97.7135-155.7555,133.7423-179.5899,36.0287-23.8344,140.2348-48.223,204.53219-55.9831,0,0-32.3184-23.0164-217.72549-21.3387Z" fill="#fff"/>
      <path d="M274.708,493.82302s126.9632-33.0915,193.4838-68.209c-5.7403,30.3901-.3377-1.3506-.3377-1.3506,0,0-1.6883,35.1174-20.26,58.7542-18.5718,23.6367-85.43,42.8838-85.43,42.8838l-82.7287-15.5327-4.7274-16.5457Z" fill="#fff"/>
      <path d="M70.0812,384.41852s-18.5717,37.8188-2.026,65.8453l-.3377,14.182s-22.9614-5.4026-28.7017-17.5587c-4.3338-9.1773.763-28.1701,3.521-36.927.9306-2.9546,2.7231-5.5556,5.1359-7.4983l22.4085-18.0433Z" fill="#fff"/>
      <path d="M425.32929,487.80272c7.4185-2.6183,9.38231-28.3652,28.8015-34.0382-9.8187,8.0731-2.6183,29.4561-28.8015,34.0382Z"/>
      <path d="M289.9539,495.44832c-6.4867.1457-9.0865,8.6428-3.6584,12.1973,5.1975,3.4036,12.9179,1.5401,12.9179,1.5401-3.0548,0-6.9823-8.2913-1.5274-8.2913.8048,0,2.5724-.0921,4.971-.2459,1.794,16.5609,17.2694,11.5963,17.2694,11.5963-6.0985-1.774-8.3252-8.3436-9.1631-12.1666,1.5787-.1175,3.2428-.2439,4.9564-.3758,3.3336,13.3383,16.3667,10.9835,16.3667,10.9835-4.2712-2.4833-6.462-8.5957-7.3314-11.693,2.1523-.1719,4.2998-.3451,6.3965-.5153,15.7339,33.9624,44.8982,13.4555,44.8982,13.4555-20.8889,5.1008-26.9226-8.5286-28.57-14.8027,2.82191-.2363,4.5365-.3819,4.5365-.3819,1.091,12.2189,18.3282,14.4009,23.5649,9.3824-.9787.2136-1.8487.2314-2.6718.1688,1.7578-3.4983-.39669-6.9582-.39669-6.9582l3.35839-1.679s-3.4983-1.8191-7.4162-.1399c2.082,2.6891,1.2059,5.3759.2393,7.0315-5.0169-4.4705-4.8954-15.6604-4.8954-15.6604,0,0,2.1598-.3524,5.2383-1.0279.5368,1.7177.5577,3.8496-1.094,5.983,4.3653,1.8708,8.26261-.1558,8.26261-.1558l-3.74151-1.8709s1.4048-2.262,1.1879-5.0701c1.3238-.3485,2.6879-.7379,4.0538-1.1681,1.1354,1.8108,2.3445,4.9553-.097,8.1091,4.3651,1.8707,8.2626-.156,8.2626-.156l-3.7416-1.8707s2.4289-3.8998.4074-7.8205c1.7259-.719,3.3145-1.5082,4.6082-2.3707,4.1457,21.1647-7.8549,27.056-7.8549,27.7106,36.0019-6.5459,33.1654-33.3837,33.1654-33.3837l5.2365-1.0909c1.9639-5.0184,8.946-7.6369,8.946-7.6369,0,0-3.7093,8.0733-2.4001,16.5828,1.52731-10.6915,13.7462-24.6558,20.7284-29.6743s9.1641-6.1095,13.0917-15.4917c-66.597,50.3976-143.2904,56.4002-168.1045,56.9573Z"/>
      <path d="M1102.15928,174.71102c-.7842,2.8326-2.1164,5.9451-4.3954,7.6879-4.89428,3.7427-8.637,19.2894-8.3492,24.4717,18.3376,1.6889,36.64682,11.0793,48.03632,24.7471-13.2204-31.0548-27.2104-54.9222-27.2104-54.9222,0,0-1.96213-1.0688-8.08132-1.9845Z" fill="#fff"/>
      <path d="M53.6143,412.37252c.1694-6.9463-3.8967-6.4381-3.8967-6.4381-3.219-.3388-5.591,10.5042-6.0992,22.025,1.1277,1.2027,2.4242,2.9018,3.7559,4.7982.0843,3.1288-.0837,7.3191-1.5534,7.739-2.3719.6777-4.2357-2.0331-4.2357-2.0331,0,0,1.3555,6.0992,4.744,7.6241,2.8149,1.2667,5.5958-.6681,6.1766-5.4241,2.6502,4.3393,4.6665,7.9655,4.6665,7.9655,0,0-1.6943,2.5413-7.1159-.3388,5.7604,7.9627,11.6902,8.8098,12.1985,1.3553-7.624-8.6406-8.81-30.3267-8.6406-37.273Z"/>
      <path d="M78.7417,452.47242l-5.8713,11.5592,4.9539,6.4217s129.3525,42.0166,179.8092,46.2367l-9.174,6.7887s-67.5201-7.7061-153.2047-39.9984l-2.5687-4.0365-13.2105-4.22s16.6966,25.687,22.3844,32.8427c0,0,71.5567,27.1548,133.5725,33.9435,0,0,17.247-18.7148,31.0079-23.6687l-8.2565-22.5679-8.44-.9174,4.22,12.66s-38.5305.5505-173.5709-44.9523l4.0366-7.7061-5.6879-2.3852Z" fill="#fff"/>
      <path d="M96.5392,490.81952s79.8132,29.907,146.2325,38.1635c0,0-7.1557,6.2383-8.44,7.8896,0,0-60.5332-6.9705-126.57616-31.9161-.00806-.0031-.01612-.0061-.02419-.0092-4.03655-4.587-11.19215-14.1278-11.19215-14.1278Z"/>
      <path d="M74.6698,602.24232s5.9439-32.7811,16.037-56.3213c3.2543-7.5901,11.6419-11.5771,19.62102-9.4478,25.50308,6.8058,82.67438,21.8377,115.60308,28.7468,13.4856,2.8295,24.3757,12.7111,28.5273,25.8502,6.2997,19.9376,15.0683,47.9995,18.7378,61.2017.8249,2.9677-1.7636,5.7526-4.7837,5.1468-27.3195-5.4792-135.3907-28.1575-193.7425-55.1764Z"/>
      <path d="M264.2139,648.74262c-35.0871-7.1859-126.1964-27.1587-180.8295-50.9903,2.1652-10.3084,7.2321-32.1631,14.3693-48.8087,1.399-3.2648,4.6338-5.3714,8.2392-5.3714.79247,0,1.58619.1049,2.3587.3095,23.7155,6.3298,82.4957,21.8123,116.0041,28.8435,10.7439,2.2539,19.4773,10.1686,22.792,20.6567,5.6983,18.0334,12.9279,41.1636,17.0662,55.3607Z"/>
      <path d="M91.2653,566.95762c-3.7357,12.084-6.4475,23.9703-7.8809,30.7947,54.6331,23.8316,145.7424,43.8044,180.8295,50.9903-.8652-2.9679-1.8709-6.342-2.964-9.9626-116.4359-23.3242-168.5513-48.2956-168.5513-48.2956l7.0547-27.6965-8.488,4.1697Z" fill="#fff"/>
      <path d="M1110.7186,256.05012c30.1387,1.3352,40.4193,43.50484,41.0242,97.9249,15.6034-22.3846,8.0685-61.6935-4.6226-97.6205-12.9204-22.5906-34.09123-45.1796-66.47492-41.9221-62.6622,6.3033-98.2573,166.4813-102.70668,200.5931-2.74772,21.0657-7.47062,33.9103-10.68462,40.6691,22.2795-13.9659,25.3113-4.9601,48.3428-7.5604,23.4716-2.65,23.8023-25.2591,23.8023-25.2591,0,0-15.33648-170.6641,71.31952-166.825Z" fill="#fff"/>
      <path d="M110.19004,544.37192l-10.17544,41.6706s53.4798,28.355,159.2571,46.2276c-3.8029-12.4401-8.3055-26.8037-12.124-38.8882-3.3147-10.4881-12.0481-18.4028-22.792-20.6567-32.6801-6.8574-89.3817-21.7493-114.16566-28.3533Z"/>
      <path d="M259.0794,631.64332l-.515.5032c.2389.0406.4679.0832.7073.1236-.0627-.2053-.1291-.4204-.1923-.6268ZM257.2297,625.62502l-3.0165-.7396-1.6491-2.5612,1.7658-1.7239,1.4565.3572c-.3657-1.1799-.7313-2.3588-1.1007-3.5467l-.2671-.0656-1.6489-2.5611.8415-.8217c-1.0986-3.5218-2.1984-7.0341-3.2785-10.472l-1.1999,1.1728-3.4147-.8372-1.6489-2.5612,1.7656-1.724,3.4147.8373.204.3171c-.4081-1.2966-.8118-2.578-1.2099-3.8405l-2.32-.5689-1.6489-2.5612,1.7657-1.7239.6267.1536c-1.2443-3.4129-3.0214-6.5528-5.306-9.2575l-.7234.7069-3.4146-.8374-1.6489-2.5611,1.4645-1.4298c-1.2053-.9622-2.4762-1.8334-3.8187-2.6053l-1.4882,1.4545-3.4145-.8372-1.6491-2.5612.6766-.6605c-.9826-.3142-1.9671-.6262-2.9891-.8405-2.9466-.6182-6.0944-1.304-9.3905-2.0409l.5136.7982-1.7642,1.7243-3.4147-.8373-1.6489-2.5612.4624-.4514c-3.8534-.8847-7.8632-1.8252-11.9842-2.8088l.3322.5165-1.7641,1.7243-3.4147-.8373-1.6489-2.5611.3324-.3245c-3.8934-.943-7.8496-1.913-11.8309-2.8994l.3089.4802-1.7642,1.7242-3.4146-.8372-1.6489-2.5612.3499-.3416c-3.9939-.9991-7.9837-2.0057-11.9294-3.0085l.39.6064-1.7643,1.7242-3.4145-.8372-1.6489-2.5612.4659-.4549c-4.1678-1.0664-8.2515-2.1184-12.2048-3.1426l.5493.8538-1.7642,1.7243-3.4147-.8373-1.6489-2.5612.6554-.6397c-4.4591-1.1613-8.6887-2.2696-12.6168-3.3037l.7718,1.1997-1.76415,1.7243-3.41465-.8372-1.6489-2.5612.90572-.8844c-3.42354-.9051-6.55442-1.7364-9.28018-2.4627l-3.66362,15.0036.43757.6801-.79294.775-1.03583,4.2419,1.62332,2.5235-1.76418,1.7242-.84583-.2073-.75483,3.0916,1.51189.3708,1.6475,2.5608-1.76418,1.7243-2.38911-.5858-.755,3.0919,3.05534.7491,1.6475,2.5607-1.76418,1.7244-3.41466-.8374-.3979-.618-.7563,3.0972s.6926.3641,1.9985,1.0047l2.48159.6086.53523.8319c3.00718,1.4046,7.36734,3.3524,13.08998,5.6969l-.78826-1.2242,1.76575-1.724,3.41464.8373,1.64747,2.5608-1.43624,1.4037c1.46984.5806,3.03024,1.184,4.64254,1.7998l.6375-.6225,3.4147.8373,1.1043,1.7167c3.7535,1.3828,7.8044,2.8261,12.2061,4.3234l-.4735-.7356,1.7658-1.7239,3.4145.8372,1.6475,2.5609-.9044.8837c2.2478.7392,4.5791,1.488,6.9774,2.2438l1.1854.2907.0627.0975c1.7772.556,3.5869,1.1143,5.445,1.6769l-1.5765-2.4489,1.7656-1.7239,3.4146.8372,1.6475,2.5609-1.7642,1.7242-1.7508-.4293c2.1695.6502,4.3925,1.3032,6.6693,1.9592l.6895-.6733,3.4146.8374.79,1.228c4.0823,1.143,8.2998,2.2896,12.7047,3.4343l1.108-1.0818,3.4147.8374,1.0726,1.6675c4.0093,1.0086,8.1485,2.0114,12.4091,3.0075l1.121-1.0945,3.4145.8374.9885,1.5364c4.1596.9405,8.4684,1.8673,12.8554,2.785l.7588-.7408,3.4146.8372.5755.8944c1.6397.333,3.3312.6588,5.0016.9876l-1.6459-2.5565,1.7656-1.7239,3.4146.8372,1.6475,2.5609-1.6221,1.5852c1.7872.3439,3.6215.6799,5.4428,1.0182l.0231-.0224.4532.111c2.5543.4732,5.1404.9404,7.7615,1.4017l-.869-1.35,1.7657-1.724,3.4146.8373,1.3816,2.1478c-.5515-1.8012-1.1164-3.6379-1.6909-5.5007ZM113.48925,590.37972l-3.4145-.8373-1.6489-2.5611,1.76559-1.724,3.41465.8373,1.6475,2.5608-1.76434,1.7243ZM113.69485,582.83952l-3.41465-.8372-1.6489-2.5612,1.76559-1.724,3.41465.8373,1.6475,2.5609-1.76419,1.7242ZM113.9003,575.29932l-3.41465-.8374-1.6489-2.5612,1.76559-1.7237,3.41465.8372,1.6475,2.5607-1.76419,1.7244ZM114.10575,567.75902l-3.41465-.8373-1.6489-2.5611,1.76575-1.724,3.41449.8373,1.6475,2.5608-1.76419,1.7243ZM114.3112,560.21882l-3.41465-.8372-1.6489-2.5612,1.76575-1.724,3.41449.8373,1.6475,2.5609-1.76419,1.7242ZM114.51665,552.67852l-3.41465-.8373-1.6489-2.5612,1.76575-1.7239,3.41449.8374,1.6475,2.5607-1.76419,1.7243ZM122.60064,588.81862l-3.41449-.8374-1.6489-2.5612,1.76559-1.7238,3.41464.8373,1.64752,2.5607-1.76436,1.7244ZM122.80609,581.27832l-3.41449-.8373-1.6489-2.5612,1.76559-1.7239,3.41464.8373,1.64747,2.5608-1.76431,1.7243ZM123.0117,573.73812l-3.41465-.8373-1.6489-2.5611,1.76559-1.724,3.41464.8373,1.64752,2.5608-1.7642,1.7243ZM123.21715,566.19792l-3.41465-.8374-1.6489-2.5612,1.76559-1.7238,3.41464.8373,1.64747,2.5607-1.76415,1.7244ZM123.4226,558.65762l-3.41465-.8373-1.6489-2.5611,1.76574-1.724,3.41449.8373,1.64752,2.5608-1.7642,1.7243ZM131.5066,594.79762l-3.4147-.8373-1.6489-2.5612,1.7658-1.7239,3.4146.8372,1.6474,2.5609-1.7642,1.7243ZM131.712,587.25742l-3.4145-.8373-1.649-2.5611,1.7657-1.724,3.4147.8373,1.6475,2.5608-1.7644,1.7243ZM131.9175,579.71722l-3.4145-.8374-1.6489-2.5612,1.7656-1.7238,3.4146.8373,1.6475,2.5607-1.7643,1.7244ZM132.1229,572.17692l-3.4145-.8373-1.6489-2.5612,1.7656-1.7239,3.4147.8372,1.6475,2.5609-1.7644,1.7243ZM132.3285,564.63672l-3.4146-.8373-1.6489-2.5611,1.7656-1.724,3.4146.8373,1.6475,2.5608-1.7642,1.7243ZM132.534,557.09632l-3.4147-.8372-1.6489-2.5612,1.7656-1.7239,3.4147.8374,1.6475,2.5607-1.7642,1.7242ZM140.4125,600.77672l-3.4146-.8373-1.6489-2.5612,1.7657-1.7239,3.4145.8372,1.6475,2.5609-1.7642,1.7243ZM140.618,593.23652l-3.4147-.8374-1.6489-2.5612,1.7658-1.7238,3.4146.8373,1.6474,2.5608-1.7642,1.7243ZM140.8234,585.69612l-3.4146-.8372-1.6489-2.5612,1.7657-1.7239,3.4147.8372,1.6473,2.5609-1.7642,1.7242ZM141.0289,578.15602l-3.4145-.8373-1.6491-2.5612,1.7658-1.7239,3.4146.8372,1.6475,2.5609-1.7643,1.7243ZM141.2343,570.61582l-3.4145-.8374-1.6489-2.5612,1.7656-1.7238,3.4147.8373,1.6475,2.5607-1.7644,1.7244ZM141.4399,563.07542l-3.4146-.8372-1.6489-2.5612,1.7656-1.7239,3.4146.8372,1.6475,2.5609-1.7642,1.7242ZM149.5239,599.21542l-3.4146-.8372-1.6489-2.5612,1.7657-1.7239,3.4145.8374,1.6475,2.5607-1.7642,1.7242ZM149.7294,591.67522l-3.4147-.8372-1.6489-2.5612,1.7658-1.7239,3.4146.8372,1.6474,2.5609-1.7642,1.7242ZM149.9348,584.13512l-3.4146-.8374-1.6489-2.5612,1.7657-1.7238,3.4147.8372,1.6473,2.5608-1.7642,1.7244ZM150.1403,576.59472l-3.4147-.8372-1.6489-2.5612,1.7658-1.7239,3.4146.8372,1.6474,2.5609-1.7642,1.7242ZM150.3457,569.05462l-3.4145-.8373-1.649-2.5612,1.7657-1.7239,3.4147.8372,1.6475,2.5609-1.7644,1.7243ZM150.5512,561.51422l-3.4145-.8372-1.6489-2.5612,1.7656-1.7239,3.4146.8374,1.6475,2.5607-1.7643,1.7242ZM158.4299,605.19452l-3.4147-.8372-1.6489-2.5612,1.7658-1.7239,3.4145.8372,1.6475,2.5609-1.7642,1.7242ZM158.6353,597.65442l-3.4146-.8373-1.6489-2.5612,1.7657-1.7239,3.4145.8372,1.6475,2.5609-1.7642,1.7243ZM158.8408,590.11402l-3.4147-.8372-1.6489-2.5612,1.7658-1.7239,3.4145.8372,1.6475,2.5609-1.7642,1.7242ZM159.0462,582.57382l-3.4146-.8372-1.6489-2.5612,1.7657-1.7239,3.4147.8372,1.6473,2.5609-1.7642,1.7242ZM159.2517,575.03372l-3.4147-.8374-1.6489-2.5612,1.7658-1.7238,3.4146.8372,1.6474,2.5608-1.7642,1.7244ZM159.4571,567.49332l-3.4145-.8372-1.649-2.5612,1.7657-1.7239,3.4147.8372,1.6473,2.5609-1.7642,1.7242ZM167.5413,603.63332l-3.4147-.8372-1.6489-2.5612,1.7656-1.724,3.4147.8374,1.6475,2.5608-1.7642,1.7242ZM167.7467,596.09312l-3.4146-.8372-1.6489-2.5612,1.7657-1.7239,3.4145.8372,1.6475,2.5609-1.7642,1.7242ZM167.9522,588.55292l-3.4147-.8374-1.6489-2.5611,1.7658-1.7238,3.4145.8372,1.6475,2.5607-1.7642,1.7244ZM168.1576,581.01262l-3.4146-.8372-1.6489-2.5612,1.7657-1.724,3.4145.8373,1.6475,2.5609-1.7642,1.7242ZM168.3631,573.47242l-3.4147-.8372-1.6489-2.5612,1.7658-1.7239,3.4146.8372,1.6474,2.5609-1.7642,1.7242ZM168.5685,565.93222l-3.4146-.8374-1.6489-2.5611,1.7657-1.7238,3.4147.8372,1.6473,2.5607-1.7642,1.7244ZM176.4471,609.61242l-3.4145-.8372-1.6489-2.5612,1.7656-1.724,3.4146.8373,1.6475,2.5609-1.7643,1.7242ZM176.6527,602.07222l-3.4147-.8372-1.6489-2.5612,1.7656-1.7239,3.4146.8372,1.6475,2.5609-1.7641,1.7242ZM176.8581,594.53192l-3.4146-.8373-1.6489-2.5611,1.7656-1.724,3.4146.8373,1.6475,2.5608-1.7642,1.7243ZM177.0636,586.99172l-3.4147-.8372-1.6489-2.5612,1.7658-1.724,3.4144.8373,1.6475,2.5609-1.7641,1.7242ZM177.269,579.45152l-3.4146-.8374-1.6489-2.5612,1.7657-1.7237,3.4145.8372,1.6475,2.5607-1.7642,1.7244ZM177.4745,571.91122l-3.4147-.8372-1.6489-2.5612,1.7658-1.724,3.4144.8373,1.6475,2.5608-1.7641,1.7243ZM185.353,615.59152l-3.4145-.8372-1.649-2.5612,1.7657-1.724,3.4146.8373,1.6475,2.5609-1.7643,1.7242ZM185.5585,608.05122l-3.4145-.8373-1.6489-2.5612,1.7655-1.7239,3.4147.8374,1.6475,2.5607-1.7643,1.7243ZM185.7639,600.51102l-3.4145-.8372-1.6489-2.5612,1.7656-1.724,3.4146.8373,1.6475,2.5608-1.7643,1.7243ZM185.9695,592.97082l-3.4146-.8374-1.6489-2.5612,1.7655-1.7237,3.4147.8372,1.6475,2.5609-1.7642,1.7242ZM186.175,585.43052l-3.4147-.8373-1.6489-2.5611,1.7656-1.724,3.4146.8373,1.6475,2.5608-1.7641,1.7243ZM186.3804,577.89032l-3.4146-.8372-1.6489-2.5612,1.7657-1.724,3.4145.8373,1.6475,2.5608-1.7642,1.7243ZM186.5859,570.35012l-3.4147-.8374-1.6489-2.5612,1.7658-1.7237,3.4144.8372,1.6475,2.5607-1.7641,1.7244ZM194.4644,614.03032l-3.4147-.8373-1.6489-2.5611,1.7658-1.724,3.4146.8373,1.6474,2.5608-1.7642,1.7243ZM194.6698,606.49012l-3.4144-.8372-1.6491-2.5612,1.7657-1.724,3.4147.8373,1.6475,2.5608-1.7644,1.7243ZM194.8753,598.94982l-3.4145-.8373-1.6489-2.5612,1.7656-1.7239,3.4146.8374,1.6475,2.5607-1.7643,1.7243ZM195.0807,591.40962l-3.4144-.8373-1.6489-2.5611,1.7655-1.724,3.4147.8373,1.6475,2.5608-1.7644,1.7243ZM195.2864,583.86942l-3.4147-.8374-1.6489-2.5612,1.7656-1.7238,3.4146.8373,1.6475,2.5607-1.7641,1.7244ZM195.4918,576.32912l-3.4146-.8373-1.6489-2.5612,1.7655-1.7239,3.4147.8372,1.6475,2.5609-1.7642,1.7243ZM203.3703,620.00942l-3.4146-.8373-1.6489-2.5611,1.7657-1.724,3.4145.8373,1.6475,2.5608-1.7642,1.7243ZM203.5758,612.46902l-3.4147-.8372-1.6489-2.5612,1.7658-1.7239,3.4146.8374,1.6474,2.5607-1.7642,1.7242ZM203.7812,604.92892l-3.4146-.8373-1.6489-2.5612,1.7657-1.7239,3.4147.8372,1.6473,2.5609-1.7642,1.7243ZM203.9867,597.38872l-3.4145-.8373-1.6491-2.5611,1.7658-1.724,3.4146.8373,1.6475,2.5608-1.7643,1.7243ZM204.1921,589.84842l-3.4145-.8373-1.6489-2.5612,1.7656-1.7239,3.4147.8372,1.6475,2.5609-1.7644,1.7243ZM204.3977,582.30822l-3.4146-.8373-1.6489-2.5612,1.7656-1.7239,3.4146.8373,1.6475,2.5608-1.7642,1.7243ZM204.6032,574.76802l-3.4147-.8374-1.6489-2.5612,1.7656-1.7238,3.4147.8373,1.6475,2.5607-1.7642,1.7244ZM212.4817,618.44822l-3.4146-.8373-1.6489-2.5612,1.7657-1.7239,3.4145.8372,1.6475,2.5609-1.7642,1.7243ZM212.6872,610.90802l-3.4147-.8373-1.6489-2.5612,1.7658-1.7239,3.4146.8373,1.6474,2.5608-1.7642,1.7243ZM212.8926,603.36762l-3.4146-.8372-1.6489-2.5612,1.7657-1.7239,3.4147.8374,1.6473,2.5607-1.7642,1.7242ZM213.0981,595.82752l-3.4147-.8373-1.6489-2.5612,1.7658-1.7239,3.4146.8372,1.6474,2.5609-1.7642,1.7243ZM213.3035,588.28732l-3.4145-.8374-1.649-2.5612,1.7657-1.7238,3.4147.8373,1.6475,2.5607-1.7644,1.7244ZM213.509,580.74692l-3.4145-.8372-1.6489-2.5612,1.7656-1.7239,3.4146.8372,1.6475,2.5609-1.7643,1.7242ZM221.3877,624.42732l-3.4147-.8373-1.6489-2.5612,1.7658-1.7239,3.4145.8372,1.6475,2.5609-1.7642,1.7243ZM221.5931,616.88692l-3.4146-.8372-1.6489-2.5612,1.7657-1.7239,3.4145.8374,1.6475,2.5607-1.7642,1.7242ZM221.7986,609.34672l-3.4147-.8372-1.6489-2.5612,1.7658-1.7239,3.4145.8372,1.6475,2.5609-1.7642,1.7242ZM222.004,601.80662l-3.4146-.8373-1.6489-2.5612,1.7657-1.7239,3.4147.8372,1.6473,2.5609-1.7642,1.7243ZM222.2095,594.26622l-3.4147-.8372-1.6489-2.5612,1.7658-1.7239,3.4146.8372,1.6474,2.5609-1.7642,1.7242ZM222.4149,586.72602l-3.4145-.8372-1.649-2.5612,1.7657-1.7239,3.4147.8372,1.6473,2.5609-1.7642,1.7242ZM222.6204,579.18592l-3.4145-.8374-1.6489-2.5612,1.7656-1.7238,3.4146.8372,1.6475,2.5608-1.7643,1.7244ZM230.4991,622.86602l-3.4147-.8372-1.6489-2.5612,1.7656-1.7239,3.4147.8372,1.6475,2.5609-1.7642,1.7242ZM230.7045,615.32582l-3.4146-.8372-1.6489-2.5612,1.7657-1.7239,3.4145.8372,1.6475,2.5609-1.7642,1.7242ZM230.91,607.78552l-3.4147-.8372-1.6489-2.5612,1.7658-1.724,3.4145.8374,1.6475,2.5608-1.7642,1.7242ZM231.1154,600.24532l-3.4146-.8372-1.6489-2.5612,1.7657-1.7239,3.4145.8372,1.6475,2.5609-1.7642,1.7242ZM231.3209,592.70512l-3.4147-.8374-1.6489-2.5611,1.7658-1.7238,3.4146.8372,1.6474,2.5607-1.7642,1.7244ZM231.5263,585.16482l-3.4146-.8372-1.6489-2.5612,1.7657-1.7239,3.4147.8372,1.6473,2.5609-1.7642,1.7242ZM239.6105,621.30482l-3.4147-.8373-1.6489-2.5611,1.7656-1.724,3.4147.8374,1.6475,2.5607-1.7642,1.7243ZM239.8159,613.76462l-3.4146-.8372-1.6489-2.5612,1.7656-1.7239,3.4146.8372,1.6475,2.5609-1.7642,1.7242ZM240.0214,606.22442l-3.4147-.8372-1.6489-2.5612,1.7658-1.7239,3.4145.8372,1.6475,2.5609-1.7642,1.7242ZM240.2268,598.68412l-3.4146-.8372-1.6489-2.5612,1.7657-1.724,3.4145.8373,1.6475,2.5608-1.7642,1.7243ZM240.4323,591.14392l-3.4147-.8372-1.6489-2.5612,1.7658-1.7239,3.4145.8372,1.6475,2.5609-1.7642,1.7242ZM248.5163,627.28392l-3.4145-.8372-1.6489-2.5612,1.7656-1.724,3.4146.8373,1.6475,2.5608-1.7643,1.7243ZM248.7217,619.74372l-3.4145-.8372-1.6489-2.5612,1.7656-1.7239,3.4147.8372,1.6475,2.5609-1.7644,1.7242ZM248.9273,612.20342l-3.4146-.8373-1.6489-2.5611,1.7656-1.724,3.4146.8374,1.6475,2.5607-1.7642,1.7243Z" fill="#fff"/>
      <path d="M527.92779,122.38672s-12.13819-24.1348-12.344-27.838c-.2057-3.7032,1.0287-6.3777,4.9376-9.6694s155.5338-40.9408,213.34459,4.9376c-23.2477,6.1719-76.3267,31.2713-90.5223,45.4669,0,0-79.6199-11.7746-115.4159-12.8971Z"/>
      <path d="M539.24309,118.00222l-3.7111-9.8495c-.7943-2.1081.7573-4.3566,3.01-4.3435,13.456.0784,53.9547.7839,92.6635,6.1695,5.5548,6.3777,6.9949,17.0758,6.9949,17.0758l5.1433-3.086s-.8229-10.4924-5.7605-15.8414c0,0,40.9408-18.7217,58.8395-20.3676,0,0-38.0605-10.4923-81.2643-8.2293-34.2597,1.7946-69.9424,12.7933-83.2483,17.2703-2.974,1.0007-4.5013,4.2733-3.3688,7.1995l4.94131,12.7678,5.76049,1.2344Z" fill="#fff"/>
      <path d="M863.19908,111.47302s21.2702,40.7255,35.0958,131.9214c0,0,16.4844,19.1431,21.8019,31.6394,5.3176,12.4962,5.5835,102.0968-10.635,183.7211l6.381-3.0603s23.1313-114.1187,9.5716-183.2832c0,0-8.67878-17.2752-21.6987-31.3367,0,0-12.1162-82.873-35.7308-130.8847l-4.7858,1.283Z"/>
      <path d="M29.8826,485.04872c-1.8037-2.6157-5.8651-1.6572-6.3173,1.4878-2.5211,17.5337-3.8641,60.4047,31.6622,103.3119,5.1228,4.6528,17.1808,6.9287,4.374-55.128-.7791-3.7752-2.1535-7.3998-4.0999-10.727-6.0312-10.31-18.7258-28.9481-25.619-38.9447Z"/>
      <path d="M37.335,469.21162s6.1525,1.3324,4.2502,9.0686c-1.9023,7.7363-6.1841,9.8369-1.9426,14.6683,4.2416,4.8314,21.0272,27.308,22.6123,34.8702,7.2567-12.1836,12.1319-32.1142-4.9268-49.5385.8402,5.0055-6.5119,17.3991-6.5119,17.3991-7.9823-9.0326,5.3871-23.3168-13.4812-26.4677Z"/>
      <path d="M435.02629,578.52272c.875-4.0934-2.9004-7.6508-6.9402-6.5548-28.4473,7.7184-117.5582,32.0434-127.8851,36.6744-12.3103,5.5204-26.2549,27.586-16.8437,44.5418,9.4111,16.9557,95.351,8.0727,116.2553-4.4415,18.71549-11.2039,29.79779-43.9487,35.41369-70.2199Z"/>
      <path d="M292.5361,643.66102s34.376,17.8848,101.9666-3.2518c0,0-59.4612,30.1593-104.2893,10.3181,0,0-2.7872-2.4209,2.3227-7.0663Z" fill="#fff"/>
      <path d="M210.89,662.58842l35.9967,4.4716s111.1202,31.7486,178.6419-7.3782c0,0-37.11461,57.6841-214.6386,2.9066Z"/>
      <path d="M967.25398,455.69462c2.8708-6.037,6.9413-16.9487,9.7369-34.2181l-15.9744,5.7879s-9.1023,32.5085-11.37788,37.0596c13.65358-1.6254,24.38128-6.1766,24.38128-6.1766l1.7168-7.1036c-2.5195,1.16-5.2869,2.6476-8.4827,4.6508Z"/>
      <path d="M982.4246,435.28712c8.30448-3.5231,37.49618,8.8078,46.05228-12.8342,8.5562-21.6421-5.2847-61.4031,21.3904-126.83261,0,0-5.2112-1.48891-18.0978,21.65391-.0905.1626-.1815.3264-.2728.4915-10.821,5.2847-20.88708,10.066-20.88708,10.066,0,0-6.29132,15.8541-8.55612,27.6817,7.5495-9.0594,26.4234-18.1189,26.4234-18.1189-2.2648,23.4036-14.3441,34.2247-29.695,33.4697-11.8275,14.8475-9.8739,57.9996-16.35728,64.4229Z"/>
      <path d="M1093.54428,196.67942s-2.73068,10.9227,20.3751,11.5529c0,0,10.71263,4.6211,14.07353,10.2925-.2101-.8402-5.0413-16.5941-11.973-23.3158-6.93173-6.7217-11.13283.6302-13.2333,4.2011-2.10052,3.5709-6.93172,2.5206-9.24232-2.7307Z"/>
      <path d="M909.8006,290.95212s-.32622-17.6147-34.25092-7.0134c-33.9246,10.60152-21.8553,27.56384-21.8553,27.56384l2.4599-.90105c2.19332,3.19981,8.8429,7.12001,26.5718.41175,24.1386-9.13355,24.1621-11.69214,24.0429-18.95074l3.03162-1.1104Z"/>
      <path d="M861.84938,309.54536s-7.0133-4.89297.6524-13.70032c7.6656-8.80732,31.6412-12.39552,36.3711-9.45972l-37.0235,23.16004Z" fill="#fff"/>
      <path d="M561.03489,328.06412s25.0765-2.0332,36.2593-4.7442c0,0,3.3888,8.4718,3.0499,11.8605,0,0-129.1104,94.2066-318.53999,140.2932,0,0,223.65569-98.6119,279.23079-147.4095Z"/>
      <path d="M96.1394,370.46152c-19.5255,27.865-15.2866,65.0251-15.2866,65.0251,15.8548-51.1581,36.32316-75.9375,49.4805-87.3438-14.27585,8.5102-26.2841,16.2273-34.1939,22.3187Z"/>
      <path d="M332.54949,375.79992s31.6413-17.8938,40.8064-37.5332c0,0,32.9506-4.5825,38.406-7.8558l.65471,1.0911,1.96389,3.7097s-45.8253,38.1878-81.831,40.5882Z"/>
      <path d="M243.2992,333.90242s17.239-22.03983,32.7324-27.93166l-2.1822-1.96395s-9.8197-4.36432-21.8216,5.01897c-12.0019,9.38334-8.7286,24.87664-8.7286,24.87664Z"/>
      <path d="M260.1018,324.30092s9.3833-3.9279,19.203-2.1822c8.0666,1.4341,51.3274,15.5322,66.5168,20.5202,3.28259,1.078,5.76019,3.781,6.55649,7.1431l.6837,2.887s10.4744-7.6376,11.3473-14.8387c.8728-7.2012-75.2872-28.91844-84.0159-27.82736-8.7286,1.09108-20.2914,14.29796-20.2914,14.29796Z"/>
      <path d="M475.92189,124.93202l13.6124-12.3511c-87.84869,40.0298-197.2408,149.0585-197.2408,149.0585,0,0-4.1811,2.0784-11.3163,5.6743,7.7221,8.9964,25.7229,19.7799,63.6782,31.20011,81.2926,24.45979,214.73229,20.65429,262.48589,18.32699-.0518-.4284-.0866-.6876-.0866-.6876,0,0,74.4278-118.6354,117.32-164.6705-112.8788-17.651-248.45279-26.5507-248.45279-26.5507Z"/>
      <path d="M408.50049,162.20422c-46.2315,33.9447-87.7083,72.1353-106.1232,89.6723l2.584,12.9197,103.5392-102.592Z" fill="#fff"/>
      <path d="M309.6177,268.73642l8.2384,10.3875,14.3277-.3582s198.79639-121.7852,247.86869-133.9637c0,0-101.3683-9.313-118.5615-8.2384,0,0-86.68239,62.6836-151.8733,132.1728Z" fill="#fff"/>
      <path d="M347.22789,286.64592s121.4269-98.5027,287.26971-138.262c0,0,36.17739,6.4475,47.99769,11.8204,0,0-164.7682,21.4915-327.02899,127.8744-2.5074,3.9401-1.0746.3582-1.0746.3582l-7.1638-1.791Z" fill="#fff"/>
      <path d="M674.71539,311.3007l14.18421-4.8645q-.53381-1.12631-1.03371-2.33873l24.143-7.45141s-6.7766-9.35924,2.83872-23.16934c-3.07882-7.8263-7.30971-13.2324-7.30971-13.2324l-11.8309,18.4033,11.0925-6.8471-.6456,4.7344-15.6606,10.2229-6.5726,10.22379c6.3886-3.65582,22.2332-14.63639,22.2332-14.63639l-.4304,5.5954c-5.0042,6.4444-31.0081,23.36008-31.0081,23.36008Z" fill="#fff"/>
      <path d="M655.61919,316.50852l-3.536,3.1025-12.4365,3.7718s2.9316,1.8196,3.23491,1.6174c.30329-.2022,12.53539-3.8414,12.53539-3.8414l.2022-4.6503Z"/>
      <path d="M777.38098,47.99523s3.0924-18.2966,24.22362-26.5429c12.92268-5.043,30.66408-8.0621,42.49768-9.6467,8.0917-1.0836,16.2368-1.4468,24.3947-1.132,29.0082,1.1193,111.8251,6.3823,249.27672,31.1303,6.3557,1.1443,10.5521,7.2567,9.339,13.5997-4.1259,21.5723-14.80293,69.0251-34.3091,104.1749l-6.44242-2.3192s23.9688-40.581,32.73582-99.4246c.4975-3.3396-2.7145-6.0341-5.89963-4.9137-7.6805,2.7017-20.113,6.4896-28.6401,6.1552,6.7508-.6586,15.7108-6.4722,21.301-10.5844,1.7962-1.3213.9158-4.1591-1.3134-4.2096-15.6129-.354-55.7909-1.8815-83.8968-8.39881l4.3809,7.21551,45.73462,8.2546c4.17658.7538,7.12838,4.4988,6.87238,8.7351-.9011,14.9159-5.31938,48.3154-26.5795,63.6699l-2.3193-2.3193s22.4838-18.8959,23.8983-59.6835c.0936-2.69931-1.768-5.0815-4.4244-5.5692-30.0069-5.50911-201.15659-36.568-233.10569-34.2188-35.047,2.577-43.8087,20.3582-46.128,26.5429l-11.5964-.5154Z" fill="#fff"/>
      <path d="M687.86589,304.09752l24.143-7.45154s-8.0477-11.02826,5.6631-26.82556c13.7109-15.7972,65.2755-13.1147,83.4573.5962,18.1817,13.7108,8.9418,41.13243-15.4992,50.0743-24.4411,8.9418-76.6018,34.8732-97.7642-16.3934Z"/>
      <path d="M707.53799,307.67426s14.903,2.38449,17.88361-7.15348c2.98068-9.53796-4.47092-4.47092-.59612-19.37396,3.8748-14.9031,53.65112-11.9225,65.5735-5.6632,11.9225,6.2593,8.6438,21.75849,1.1923,28.01778-7.4516,6.25929-72.4289,39.34412-84.0533,4.17286Z" fill="#fff"/>
      <path d="M782.01968,288.99742c-12.3046-1.4476-25.3328,5.54906-28.4693,14.95841-17.9391,7.70944-28.3077,5.39598-33.6429,2.46774-5.3654,2.36899-12.3696,1.25063-12.3696,1.25063,1.4564,4.40665,3.75171,7.74052,6.6651,10.19122,20.105,6.6636,51.932-5.1517,64.6802-11.73825,14.4758-7.47919,15.4408-15.68225,3.1365-17.12975Z"/>
    </g>
  </g>
</svg>