<?xml version="1.0" encoding="UTF-8"?>
<svg id="Layer_2" data-name="Layer 2" xmlns="http://www.w3.org/2000/svg" viewBox="0 0 337.67259 337.67169">
  <g id="Layer_2-2" data-name="Layer 2">
    <g>
      <path d="M168.8355,337.67169C75.7389,337.67169,0,261.93189,0,168.8362S75.7389,0,168.8355,0s168.8371,75.7397,168.8371,168.8362-75.7397,168.8355-168.8371,168.8355Z"/>
      <path d="M168.8356,31.6643c-75.6365,0-137.1712,61.5347-137.1712,137.1719s61.5347,137.1711,137.1712,137.1711,137.1726-61.5354,137.1726-137.1711S244.47279,31.6643,168.8356,31.6643Z" fill="#fff"/>
      <g>
        <path d="M68.2311,156.8198l.5504-5.9713-2.5383-.0015-1.0493-.0015-1.30259-.0015.76429-8.29891,2.3518.00311-.5474,5.93489,2.3761.003.3791-4.11679.1683-1.8196,2.4109.003-1.3146,14.2686-2.2487-.0015Z"/>
        <path d="M78.2494,156.28608c-.2623.27141-.561.43061-.8946.47461l-.0076.0849-2.3624-.0031.006-.0667-2.1243-.003c-.1926,0-.3685-.0273-.5277-.0849-.1577-.0576-.3048-.1653-.4367-.3245-.25779-.2836-.367-.6172-.3321-1.0038l1.04931-11.3952c.03639-.3851.20769-.7187.51709-1.00231.2972-.28349.64591-.42449,1.0417-.42449l4.2487.00449c.3973,0,.7172.14251.9644.42761.2472.27139.3518.6065.3154,1.0023l-1.04929,11.3952c-.03181.3518-.16831.658-.40791.91889ZM77.2684,144.906l-2.3852-.003-.8734,9.4892,2.3851.003.8735-9.4892Z"/>
      </g>
      <path d="M91.2549,234.11129c-.2631.27-.561.4292-.89459.4731l-.00761.085-2.36239-.0031.006-.0667-2.12431-.003c-.1926,0-.3693-.0273-.52769-.0849-.15851-.0577-.30481-.1653-.43671-.3245-.2578-.2836-.3677-.6172-.3321-1.0038l1.0493-11.3967c.0356-.3837.207-.7188.5171-1.0008.2972-.2836.6459-.4261,1.0417-.4261l4.24871.0061c.39729,0,.71719.1425.96439.4261.2464.2729.3518.608.3154,1.0038l-1.0493,11.3951c-.0326.3518-.1683.6581-.4079.9204ZM90.2739,222.72829l-2.3852-.0015-.8742,9.4891,2.3852.0031.8742-9.4907Z"/>
      <g>
        <path d="M70.294,198.57779c-.2365.21529-.5004.3245-.7885.3245l-4.3063-.0045c-.3094,0-.552-.11071-.72789-.326-.19861-.1956-.285-.4489-.25621-.7582l.5838-6.3382,4.2896.0045.1107-1.1979.2154-2.1592-2.1684-.0015-2.1365-.01821.09861-1.07359c.02729-.2972.15839-.54741.39419-.7521.21381-.2047.4754-.30631.7847-.30631l4.2958.00461c.2987,0,.5405.1031.7278.3108.1873.2062.2676.4595.2396.7582l-.2987,3.24639-.2699,3.09331-2.3776-.003-1.9425-.003-.3078,3.3404,2.1517.0015.1964-2.1334,2.16831.003-.29721,3.2313c-.0273.2987-.1539.5504-.3791.7566Z"/>
        <path d="M77.652,198.43069c-.2396.2472-.511.3928-.8135.4322l-.0069.0773-2.1471-.003.0053-.0607-1.9318-.003c-.1758,0-.3358-.0258-.4791-.0773-.14559-.0516-.2775-.15011-.3973-.2942-.23429-.2578-.3351-.5625-.30329-.9128l.95459-10.358c.0318-.3503.1888-.65511.4708-.9128.2707-.25631.5861-.3867.9469-.3852l3.8636.003c.3594.0016.652.1304.8757.3882.22441.24869.31841.5535.2858.9144l-.9545,10.358c-.0296.3199-.1516.5974-.3692.8339ZM76.7604,188.0864l-2.1684-.003-.7945,8.6278,2.1683.0031.7946-8.6279Z"/>
      </g>
      <g>
        <path d="M85.267,119.6396c-.226.2047-.4883.3063-.787.3063l-4.3064-.0046c-.30929,0-.5534-.1031-.72929-.3093-.19871-.1941-.28511-.4473-.25631-.7567l.9902-10.7507c.0273-.2972.1577-.5489.3942-.7536.2138-.2047.4761-.3093.7855-.3093l5.3617.006-.39729,4.2988-2.13651-.003.1987-2.1487-2.1684-.0015-.2972,3.2313,3.248.003c.2805,0,.5231.1047.73241.3094.18649.2244.26679.4776.24109.75509l-.4944,5.37381c-.0273.29719-.1546.5474-.379.7537ZM83.8719,114.5947l-2.15159-.0015-.29421,3.201,2.1517.0015.2941-3.201Z"/>
        <path d="M92.6181,119.5683c-.2396.2471-.511.3927-.8143.4321l-.006.0774-2.1472-.0031.0046-.06061-1.9318-.003c-.1759,0-.33509-.02579-.4792-.07739-.1455-.0515-.2774-.1501-.3972-.2941-.2335-.2578-.3351-.5626-.3033-.9129l.9553-10.358c.0318-.3502.188-.655.47-.9128.2715-.2563.5869-.3867.9477-.3851l3.86361.003c.35939.0015.65209.1304.875.3882.22439.2486.31839.5534.28649.9143l-.9552,10.358c-.0289.32-.1517.5974-.3685.834ZM91.7265,109.2239l-2.1683-.003-.7946,8.6279,2.1683.003.7946-8.6279Z"/>
      </g>
      <g>
        <path d="M112.8587,93.947c-.26.238-.5496.3578-.8665.3563l-4.737-.0045c-.3412,0-.6081-.1198-.8014-.3594-.2191-.2138-.3124-.4928-.28049-.834l.29259-3.1797h-.0182l.3382-3.6741h.0182l.1319-1.4283.329-3.5725c.03031-.3275.1736-.605.4344-.8325.2366-.2274.52391-.3396.8651-.3396l4.737.006c.329,0,.5967.1138.8029.3397.2062.229.29491.5065.2646.8355l-.1099,1.1903-.3397,3.6907-.2214,2.3973-.4208,4.5748c-.0303.329-.1698.608-.4185.834ZM111.3295,88.5352h-.0167l.0289-.3048-2.1123-.0015h-.3578l-.1229,1.3253h.0334l-.2161,2.3473,2.4534.003.3101-3.3693ZM111.8739,82.4472l-2.3518-.0015-.2184,2.3745-.1213,1.3147,2.3518.003.3397-3.6907Z"/>
        <path d="M120.9521,93.7862c-.2631.2715-.561.4307-.8946.4747l-.0076.0849-2.3624-.0031.006-.0667-2.1243-.003c-.1926,0-.3693-.0273-.5277-.08491-.1585-.05769-.3048-.16529-.4367-.32449-.2578-.2836-.3677-.6172-.3321-1.0038l1.0493-11.39671c.0356-.38359.207-.71879.5171-1.00079.29721-.2835.6459-.4261,1.0417-.4261l4.2487.0046c.3973.0015.7172.144.9644.4276.24641.2729.3518.608.31541,1.0023l-1.04931,11.3967c-.0326.35169-.1683.658-.4079.9188ZM119.971,82.4047l-2.3851-.0015-.8742,9.4892,2.3852.003.8741-9.4907Z"/>
      </g>
      <g>
        <path d="M136.5596,77.0642l.1979-2.1486,2.1532.003.79-8.5824-2.1532-.0015.2009-2.1804,4.2897.0045-.2009,2.1805-.79,8.58079,2.1532.00311-.1979,2.1486-6.4429-.0076Z"/>
        <path d="M150.0875,76.6927c-.2396.2472-.511.3928-.8135.4322l-.0068.0773-2.1471-.003.0053-.0607-1.9318-.003c-.1759,0-.3359-.0258-.4792-.0773-.1456-.0516-.2775-.1502-.3973-.2942-.2342-.2578-.3351-.5626-.3032-.9128l.9545-10.358c.0318-.3503.1888-.65511.4708-.9144.2707-.2562.58611-.3851.947-.3851l3.8635.0045c.3594,0,.6521.1304.8757.3882.2244.2472.3185.5519.28591.9128l-.95461,10.3596c-.0295.3199-.1516.5974-.3692.8339ZM149.1959,66.3469l-2.1683-.0016-.7946,8.6279,2.16831.0031.79459-8.6294Z"/>
        <path d="M157.4295,76.7003c-.2395.2487-.511.3927-.8135.4337l-.0068.0758-2.1471-.0015.0053-.06221-1.9318-.00149c-.1759,0-.3359-.0258-.4792-.0789-.1455-.05-.2774-.14861-.3972-.2941-.2343-.2578-.3351-.5626-.3033-.9128l.9545-10.3581c.03191-.3502.1888-.655.4708-.9128.2707-.2562.58611-.3866.947-.3851l3.8636.003c.3594.0015.652.1304.8757.3882.2244.2487.3184.5534.28581.9143l-.95451,10.358c-.0296.32-.1517.5975-.3693.834ZM156.5379,66.356l-2.1683-.0031-.7946,8.6279,2.1684.003.7945-8.6278Z"/>
      </g>
      <g>
        <path d="M178.4655,77.0597l.2183-2.3625,2.367.0016.8689-9.4391-2.367-.0031.2214-2.3973,4.7188.0046-.2214,2.3973-.8689,9.4406,2.3685.003-.2183,2.3625-7.0873-.0076Z"/>
        <path d="M193.3277,76.8216c-.26.2381-.5496.3579-.8665.3564l-4.737-.0046c-.3412,0-.6081-.12131-.8014-.3594-.2191-.2138-.3124-.4928-.28049-.83391l.64209-6.97359,4.7188.0061.1213-1.3147.2351-2.3761-2.3852-.0015-2.3488-.0197.1092-1.1827c.02951-.326.1736-.602.4321-.8264.2366-.226.5239-.3382.8636-.3382l4.72481.0061c.32909,0,.59669.11369.80289.3396.2047.229.2934.5065.26311.834l-.329,3.5725-.29651,3.40259-2.6156-.003-2.138-.00149-.33889,3.67249,2.36849.003.216-2.34879,2.3852.0031-.3268,3.5542c-.0303.3291-.1698.6081-.4185.834Z"/>
        <path d="M201.42109,76.6609c-.2631.2714-.561.4306-.8946.4746l-.0076.0849-2.3624-.003.006-.0667-2.1243-.0031c-.1926,0-.3693-.0273-.5277-.0849-.1585-.05761-.3048-.1653-.4367-.3245-.2578-.2835-.3677-.61711-.3321-1.0038l1.0493-11.3967c.0356-.38361.207-.7187.5171-1.0007.29721-.2836.6459-.4261,1.0417-.4261l4.2487.0045c.3973.0015.7172.1441.9644.4276.24641.273.3518.60809.31541,1.0023l-1.04931,11.3967c-.0326.3518-.1683.65809-.4079.9189ZM200.43999,65.2794l-2.3851-.0031-.8742,9.4907,2.3852.003.8741-9.4906Z"/>
      </g>
      <g>
        <path d="M213.18631,94.1987l.19779-2.14861,2.15321.003.79-8.58239-2.15321-.0015.201-2.1805,4.2896.0046-.2009,2.1804-.79,8.5809,2.1532.003-.1979,2.1487-6.44279-.0076Z"/>
        <path d="M224.94759,94.3215l.49971-5.42841-2.30791-.00149-.9522-.0016-1.1843-.0015.6952-7.5452,2.1365.003-.49729,5.3951,2.16069.0015.345-3.7407.1524-1.6544,2.1926.0031-1.1949,12.9721-2.0455-.0015Z"/>
        <path d="M234.05619,93.8348c-.2396.2486-.511.3927-.8135.4336l-.0069.0759-2.1471-.0016.0053-.0621-1.9318-.0016c-.17589,0-.3358-.0257-.4791-.0788-.1456-.05-.2775-.1486-.3973-.2942-.2343-.2577-.3351-.5625-.3033-.9128l.9546-10.358c.0318-.3503.1888-.655.4708-.9128.2707-.25631.586-.3867.9469-.3852l3.8636.0031c.3594.0015.652.1304.8757.3881.2244.24869.3184.5535.2858.9144l-.9545,10.358c-.0296.3199-.1516.5974-.3692.834ZM233.16459,83.4904l-2.1684-.003-.7945,8.6279,2.1683.003.7946-8.6279Z"/>
      </g>
      <g>
        <path d="M234.67259,119.9352l.2183-2.3624,2.367.0015.8688-9.4391-2.3669-.003.2213-2.3973,4.7188.006-.2213,2.3973-.8689,9.4392,2.3685.003-.2183,2.3624-7.0873-.0076Z"/>
        <path d="M249.54309,119.6138c-.2486.2259-.5367.3381-.86579.3366l-4.737-.0045c-.34111,0-.608-.11381-.80211-.3412-.21989-.2138-.3131-.4898-.282-.8294l1.0894-11.8259c.0304-.329.1744-.6065.4329-.8309.2366-.22741.5247-.3412.8644-.3397l5.89841.0061-.43591,4.7294-2.3518-.003.2176-2.364-2.3852-.003-.3275,3.5543,3.574.00449c.30781,0,.5769.11371.8059.33971.2062.2487.29491.5246.2661.8294l-.5444,5.9121c-.0295.3276-.169.6035-.417.8295ZM248.00939,114.0656l-2.3685-.0016-.3237,3.5194,2.3684.0031.3238-3.5209Z"/>
        <path d="M257.62819,119.5364c-.2631.2715-.5611.43069-.8947.47469l-.0075.08491-2.3625-.0031.0061-.0667-2.1244-.003c-.1925,0-.3692-.0273-.5276-.0849-.1585-.0576-.3048-.1653-.4367-.3245-.2578-.2836-.3678-.6172-.3321-1.0038l1.0493-11.3952c.0356-.3851.207-.71871.517-1.0023.29721-.2835.646-.4261,1.0418-.4246l4.2487.0046c.3973,0,.7172.1425.9644.42759.2464.27141.3518.60651.3154,1.00231l-1.0493,11.3952c-.0326.3517-.1683.658-.4079.9188ZM256.64709,108.1564l-2.3852-.003-.8741,9.4892,2.3852.003.8741-9.4892Z"/>
      </g>
      <g>
        <path d="M252.90939,156.6985l.19791-2.1486,2.15309.003.79-8.5824-2.15309-.0015.20089-2.1805,4.2897.00459-.201,2.18041-.79,8.5809,2.1532.003-.1979,2.14869-6.4428-.00759Z"/>
        <path d="M266.42131,156.4817c-.23651.2168-.50031.326-.78841.3245l-4.3064-.0046c-.3093,0-.5519-.1092-.7278-.326-.1987-.1956-.2851-.4488-.2563-.7582l.2661-2.8916h-.0151l.3078-3.3389h.01511l.11979-1.2995.2987-3.2465c.0281-.2987.16-.5504.3958-.7581.2146-.2063.4776-.3079.787-.3079l4.3063.0046c.2987,0,.5421.1031.72941.3108.18719.2063.26759.4595.23959.7582l-.0994,1.0811-.3093,3.3557-.20089,2.1789-.38291,4.1608c-.0273.2987-.1539.552-.37909.7567ZM265.03159,151.5627h-.0167l.0258-.2775-1.9196-.003h-.326l-.1115,1.207h.0318l-.1963,2.1334,2.2305.0031.282-3.063ZM265.52519,146.0266l-2.1365-.00151-.1986,2.15921-.1107,1.1964,2.1365.0031.3093-3.3572Z"/>
        <path d="M273.77931,156.3346c-.23961.2487-.511.3927-.81351.4336l-.0068.07589-2.1471-.00159.0053-.0621-1.9318-.0015c-.1759,0-.3359-.02581-.4792-.0789-.1456-.05-.2775-.1486-.3973-.2942-.2342-.25771-.3351-.5625-.3032-.9128l.9545-10.358c.0318-.3503.1888-.655.4708-.9128.2707-.2563.5861-.3867.947-.3852l3.8635.00309c.3594.00151.6521.13041.8757.38821.2244.2486.3184.5534.2858.9143l-.9545,10.358c-.0295.3199-.1516.5974-.36919.834ZM272.88769,145.9902l-2.1683-.003-.7946,8.62789,2.1683.003.7946-8.62789Z"/>
      </g>
      <g>
        <path d="M258.92459,195.8515c-.26.238-.5496.3578-.8665.3563l-4.737-.0045c-.3412,0-.6081-.1198-.8014-.3594-.2191-.21381-.31239-.49281-.2805-.834l.64211-6.972,4.71879.0045.1213-1.3146.2351-2.3746-2.38519-.003-2.34881-.0197.1092-1.1813c.0295-.3275.17361-.6035.4321-.8279.2366-.2244.5239-.3381.8636-.3366l4.7248.0046c.32911,0,.5967.1137.8029.3411.2047.2275.2934.5065.2631.834l-.329,3.5725-.2965,3.4026-2.6156-.003-2.138-.0031-.3389,3.6726,2.3685.003.216-2.3473,2.3852.0015-.3268,3.5543c-.0303.329-.16979.608-.4185.834Z"/>
        <path d="M267.01799,195.6907c-.2631.2715-.561.4307-.8946.4747l-.0076.0849-2.3624-.0031.006-.0667-2.1243-.003c-.1926,0-.3693-.0273-.5277-.0849-.1585-.0576-.3048-.1653-.4367-.32451-.2578-.28359-.3677-.61719-.3321-1.00379l1.0493-11.39521c.0356-.38509.207-.71869.5171-1.00229.2972-.2835.6459-.4246,1.0417-.4246l4.2487.0046c.3973,0,.7172.1425.9644.4276.2464.2714.3518.6065.3154,1.0023l-1.0493,11.3952c-.03259.3517-.1683.658-.4079.9188ZM266.03699,184.3107l-2.3852-.003-.8742,9.4892,2.3852.003.8742-9.4892Z"/>
        <path d="M275.09389,195.6998c-.263.2715-.561.4307-.89459.4747l-.00761.0849-2.36239-.0031.00609-.0667-2.1244-.003c-.1926,0-.3692-.0273-.52769-.0849-.15841-.05761-.30481-.1653-.43671-.3245-.2578-.2836-.3677-.6172-.3321-1.0038l1.0493-11.3952c.0357-.38511.207-.7187.5171-1.0023.2972-.2835.646-.4261,1.0417-.4246l4.2488.0046c.3972,0,.7172.1425.9643.4276.2464.2714.3518.6065.3154,1.0023l-1.0493,11.3952c-.0326.3517-.1683.658-.4079.9188ZM274.11289,184.3198l-2.3852-.003-.8741,9.4892,2.3851.003.8742-9.4892Z"/>
      </g>
      <g>
        <path d="M241.27619,234.30539c-.2366.2154-.5004.3245-.7885.3245l-4.30639-.0045c-.30931,0-.55191-.1107-.72781-.326-.1987-.1956-.2851-.4489-.2563-.7582l.5838-6.3382,4.2897.0045.1107-1.1979.2153-2.1592-2.16839-.0015-2.13651-.0182.0986-1.07361c.0273-.29719.1585-.54739.3942-.75209.2138-.2047.4754-.3063.78471-.3063l4.29579.0046c.2987,0,.5406.1031.7278.31079.1873.20621.2677.45951.2396.75821l-.2987,3.2464-.2699,3.0933-2.37759-.003-1.94241-.003-.3078,3.3404,2.1516.0015.1964-2.1334,2.1683.003-.2972,3.2313c-.0273.2987-.15389.5504-.379.7566Z"/>
        <path d="M248.61819,234.31299c-.2366.2169-.5004.326-.7885.3245l-4.30639-.0045c-.30931,0-.55191-.1092-.72781-.326-.1986-.1957-.2851-.44891-.2563-.7582l.5838-6.3382,4.2897.00449.1107-1.19639.2153-2.1592-2.1683-.003-2.1365-.0167.0985-1.0736c.0273-.2972.1585-.5489.3943-.7536.2138-.2032.4754-.3063.7847-.3048l4.2957.0046c.2987,0,.5406.1031.7279.3093.1872.2077.2676.45939.2395.7582l-.2987,3.2464-.2699,3.0933-2.37759-.003-1.94241-.00151-.3078,3.33891,2.1517.003.1963-2.1334,2.1684.00149-.29719,3.23131c-.02731.29869-.15391.5519-.37911.7566Z"/>
        <path d="M255.97609,234.16589c-.2395.2487-.511.3928-.8135.4337l-.0068.0758-2.1471-.0015.0053-.0622-1.9318-.0015c-.17589,0-.33589-.0258-.4791-.0788-.1456-.0501-.2775-.1486-.3973-.2942-.2343-.2578-.3351-.5626-.3033-.9128l.9545-10.3565c.0319-.3503.1888-.6551.4709-.9144.2706-.2562.586-.3851.9469-.3851l3.8636.0045c.3594,0,.652.1305.8757.38819.2244.24721.3184.552.2858.91291l-.9545,10.358c-.0296.3199-.1517.5974-.3693.8339ZM255.08449,223.82159l-2.1683-.00151-.7945,8.62631,2.1683.0031.7945-8.6279Z"/>
      </g>
      <g>
        <path d="M225.45631,250.99408l-2.28051-3.52549-.32449,3.52249-1.69371-.00159.9029-9.7969,1.69381.00149-.52851,5.73471,2.7416-2.9795,2.1183.0015-3.157,3.207,2.7445,3.8378-2.21689-.00151Z"/>
        <path d="M233.88859,251.00319l.442-4.7977c.016-.1759.0258-.329.0288-.46241.0031-.132-.0053-.23959-.0242-.32909-.0205-.08791-.0538-.1531-.1031-.1971-.0501-.044-.1213-.0652-.21379-.0652-.14261,0-.29421.094-.44961.2896-.1577.1926-.3457.5231-.5649.9902l-.4207,4.5702-1.4512-.0015.4421-4.7977c.0159-.1759.0257-.329.0288-.4625.00151-.13191-.0069-.2395-.0258-.329-.019-.088-.0554-.1532-.10769-.1971-.05-.044-.12281-.0652-.21531-.0652-.1213,0-.2638.094-.4299.2896-.16679.1926-.3609.5231-.5845.9901l-.4208,4.5702-1.4663-.00151.649-7.04479,1.257.0015-.0659,1.0266c.1213-.2078.2388-.3867.354-.5338.1168-.1486.2358-.2699.36171-.3639.12359-.0955.254-.1623.38969-.2047.1357-.041.2866-.0622.4534-.0622.3942,0,.6853.1031.87191.3109.18569.2062.27819.4913.27139.8567.1304-.2078.257-.3867.3783-.5338.1228-.1486.2479-.2699.37531-.3639.12659-.0955.26-.1622.40029-.2047.1403-.04091.2942-.0622.461-.0622.514,0,.8764.182,1.0894.5399.21231.3578.2866.8885.2214,1.5906l-.4655,5.0554-1.4663-.0015Z"/>
        <path d="M237.77419,252.49829l-1.6467-.0015,5.8894-11.283,1.6528.0015-5.8955,11.283Z"/>
        <path d="M248.76069,251.01989l.4231-4.5899c.0712-.7734-.1797-1.1585-.7544-1.16-.2866,0-.5716.1152-.8552.3457-.2843.2305-.5891.5459-.9166.9431l-.4109,4.458-1.6953-.0015.903-9.7969,1.6952.0015-.2229,2.4124-.2009,1.2753c.15851-.1699.3184-.32451.4799-.461.1608-.13651.33061-.2502.5103-.3412.1797-.0925.3715-.1637.5762-.21231.2032-.04849.4253-.07269.6664-.07119.3609,0,.6702.0591.928.1774s.467.2851.627.5019c.1622.2138.27371.4731.3351.7748.0629.3048.0773.643.0432,1.0175l-.4359,4.7279-1.6953-.0015Z"/>
      </g>
      <rect x="177.30282" y="40.72389" width="33.13271" height="2.78685" transform="translate(117.22549 225.10603) rotate(-79.53076)"/>
      <rect x="224.78825" y="59.90408" width="33.13274" height="2.7869" transform="translate(56.97641 228.6717) rotate(-56.4827)"/>
      <rect x="260.97368" y="96.14448" width="33.13268" height="2.78688" transform="translate(-7.81637 169.04906) rotate(-33.43213)"/>
      <rect x="280.08172" y="143.65908" width="33.13271" height="2.78688" transform="translate(-21.285 55.83999) rotate(-10.38312)"/>
      <rect x="294.23453" y="179.68886" width="2.78683" height="33.13265" transform="translate(39.32802 441.65758) rotate(-77.33421)"/>
      <rect x="273.24913" y="226.40464" width="2.78688" height="33.13266" transform="translate(-82.95613 324.12885) rotate(-54.28538)"/>
      <rect x="214.65589" y="40.52272" width="16.2588" height="2.78686" transform="translate(98.90579 231.76904) rotate(-67.53085)"/>
      <polygon points="167.9334 39.6954 170.7201 39.6683 170.5618 23.4103 167.775 23.38308 167.6167 39.64108 167.9329 39.6442 167.9334 39.6954"/>
      <rect x="259.64831" y="71.14786" width="16.56631" height="2.78686" transform="translate(25.94617 208.5289) rotate(-44.48391)"/>
      <rect x="289.42019" y="116.87514" width="16.45217" height="2.78687" transform="translate(-22.63332 116.94841) rotate(-21.43404)"/>
      <rect x="305.58236" y="163.71538" width="2.78686" height="16.56638" transform="translate(126.38791 474.00132) rotate(-88.38386)"/>
      <rect x="293.18797" y="216.81045" width="2.7868" height="16.56633" transform="translate(-32.906 398.86744) rotate(-65.33559)"/>
      <rect x="143.07424" y="25.52386" width="2.78681" height="33.13262" transform="translate(-5.24331 26.95374) rotate(-10.47007)"/>
      <rect x="95.58872" y="44.70405" width="2.78692" height="33.13269" transform="translate(-17.70647 63.74391) rotate(-33.51897)"/>
      <rect x="59.40333" y="80.94448" width="2.78689" height="33.13268" transform="translate(-54.07573 94.52515) rotate(-56.56813)"/>
      <rect x="40.29533" y="128.45907" width="2.78689" height="33.1327" transform="translate(-108.4753 159.89406) rotate(-79.61702)"/>
      <rect x="26.14257" y="194.83459" width="33.13267" height="2.7868" transform="translate(-41.98649 14.13964) rotate(-12.66582)"/>
      <rect x="47.12788" y="241.55034" width="33.13269" height="2.78692" transform="translate(-129.84113 82.87284) rotate(-35.71525)"/>
      <rect x="114.15808" y="33.7596" width="2.78683" height="16.2588" transform="translate(-7.23742 47.34055) rotate(-22.46841)"/>
      <rect x="69.01189" y="64.23099" width="2.78686" height="16.56632" transform="translate(-30.66335 71.93574) rotate(-45.51746)"/>
      <rect x="39.2971" y="110.01538" width="2.78689" height="16.45209" transform="translate(-84.24277 112.91028) rotate(-68.56663)"/>
      <path d="M108.2637,208.39308c-8.3611-12.08059-13.2756-26.71919-13.2756-42.49049,0-41.2774,33.582-74.8594,74.8601-74.8594s74.8594,33.582,74.8594,74.8594c0,14.4147-4.1057,27.8839-11.1941,39.3193.72381.7994,1.426,1.6183,2.1184,2.4455,7.6989-12.08331,12.1811-26.40631,12.1811-41.7648,0-42.9893-34.97469-77.9648-77.9648-77.9648s-77.9655,34.9755-77.9655,77.9648c0,16.76849,5.3393,32.3042,14.3822,45.034.65-.8612,1.31641-1.7091,1.9988-2.54351Z"/>
      <rect x="23.07781" y="170.57799" width="16.56638" height="2.78686" transform="translate(-4.83627 .95259) rotate(-1.61567)"/>
      <rect x="137.609" y="220.24129" width="66.0857" height="28.83679"/>
      <rect x="35.47226" y="223.67302" width="16.56633" height="2.78689" transform="translate(-89.92837 38.79222) rotate(-24.66424)"/>
      <g>
        <path d="M151.15731,232.54499l-1.79231,1.022v-5.0676l.8885-.8779.90381.8779v4.0456ZM151.15731,239.08339l-.90381.8779-.8885-.8779v-5.0676l1.79231.8795v4.1881ZM156.7434,227.35608l-.9159.85831h-4.3639l-.9174-.85831.9174-.89919h4.3639l.9159.89919ZM156.7434,240.24789l-.9159.8977h-4.3639l-.9174-.8977.9174-.8582h4.3639l.9159.8582ZM157.911,233.56699l-1.7923-1.022v-4.0456l.8901-.8779.9022.8779v5.0676ZM157.911,239.08339l-.9022.8779-.8901-.8779v-4.1881l1.7923-.8795v5.0676Z" fill="#fff"/>
        <path d="M161.4834,232.54499l-1.7923,1.022v-5.0676l.8886-.8779.9037.8779v4.0456ZM161.4834,239.08339l-.9037.8779-.8886-.8779v-5.0676l1.7923.8795v4.1881ZM167.0696,227.35608l-.9159.85831h-4.364l-.9173-.85831.9173-.89919h4.364l.9159.89919ZM167.0696,240.24789l-.9159.8977h-4.364l-.9173-.8977.9173-.8582h4.364l.9159.8582ZM168.2371,233.56699l-1.7923-1.022v-4.0456l.8901-.8779.9022.8779v5.0676ZM168.2371,239.08339l-.9022.8779-.8901-.8779v-4.1881l1.7923-.8795v5.0676Z" fill="#fff"/>
        <path d="M171.5185,234.60869h-1.7939v-3.0235h1.7939v3.0235ZM171.5185,241.14559h-1.7939v-3.1661h1.7939v3.1661Z" fill="#fff"/>
        <path d="M174.6451,232.54499l-1.7923,1.022v-5.0676l.8886-.8779.9037.8779v4.0456ZM174.6451,239.08339l-.9037.8779-.8886-.8779v-5.0676l1.7923.8795v4.1881ZM180.2312,227.35608l-.9158.85831h-4.364l-.9174-.85831.9174-.89919h4.364l.9158.89919ZM180.2312,240.24789l-.9158.8977h-4.364l-.9174-.8977.9174-.8582h4.364l.9158.8582ZM181.3988,233.56699l-1.7923-1.022v-4.0456l.8901-.8779.9022.8779v5.0676ZM181.3988,239.08339l-.9022.8779-.8901-.8779v-4.1881l1.7923-.8795v5.0676Z" fill="#fff"/>
        <path d="M184.97131,232.54499l-1.79231,1.022v-5.0676l.8885-.8779.90381.8779v4.0456ZM184.97131,239.08339l-.90381.8779-.8885-.8779v-5.0676l1.79231.8795v4.1881ZM190.5574,227.35608l-.9158.85831h-4.364l-.9174-.85831.9174-.89919h4.364l.9158.89919ZM190.5574,240.24789l-.9158.8977h-4.364l-.9174-.8977.9174-.8582h4.364l.9158.8582ZM191.725,233.56699l-1.7923-1.022v-4.0456l.8901-.8779.9022.8779v5.0676ZM191.725,239.08339l-.9022.8779-.8901-.8779v-4.1881l1.7923-.8795v5.0676Z" fill="#fff"/>
      </g>
      <g>
        <circle cx="169.07852" cy="164.7327" r="42.16101"/>
        <circle cx="169.07852" cy="164.73267" r="36.16721" transform="translate(-64.44186 130.19821) rotate(-35.84183)" fill="#fff"/>
        <path d="M169.0785,133.4013c-17.3038,0-31.3313,14.0275-31.3313,31.3314,0,1.6027.1585,3.1649.3906,4.7029.8332-6.0716,3.3626-17.2296,10.7813-18.8392,10.269-2.2281,10.7288-11.884,19.1586-11.271,8.4297.6131-3.8803,14.188,2.9037,21.5013,6.7842,7.3133,14.7222-3.6717,17.6343,9.8673,2.4892,11.57309-17.082,27.79909-35.1673,21.1659,4.604,2.6588,9.9313,4.204,15.6301,4.204,17.30381,0,31.3314-14.0274,31.3314-31.3312s-14.02759-31.3314-31.3314-31.3314Z"/>
        <g>
          <path d="M82.6064,224.74889c-1.08509-1.5819-.8077-3.6504.6324-4.70881l64.1307-47.12739c.7219-.5308,1.621-.7193,2.5304-.5309.9097.189,1.71041.7295,2.255,1.5235l2.9272,4.2674c.5446.7939.7606,1.7356.6093,2.6523-.1517.9163-.6512,1.6872-1.4069,2.1699l-67.0574,42.8596c-1.506.9623-3.5355.4764-4.6207-1.1056Z"/>
          <path d="M84.1495,223.69049h0c-.464-.6765-.3434-1.574.2724-2.0265l64.1306-47.1271c.6427-.4723,1.57481-.279,2.0591.4271l2.9271,4.2672c.4843.7061.3291,1.6454-.343,2.07489l-67.0576,42.85991c-.6439.4115-1.5246.2009-1.9886-.4755Z" fill="#fff"/>
          <polygon points="149.1849 175.8626 152.1034 180.1173 89.42131 220.58669 88.1692 220.23169 149.1849 175.8626"/>
          <rect x="137.45133" y="167.03232" width="33.7109" height="15.66607" rx="3.13309" ry="3.13309" transform="translate(380.46786 231.78318) rotate(145.55244)"/>
          <path d="M150.70291,159.7593h7.20754c1.32597,0,2.40248,1.07652,2.40248,2.40248v25.40696c0,1.32595-1.0765,2.40244-2.40244,2.40244h-7.20753c-1.32598,0-2.40251-1.07653-2.40251-2.40251v-25.40693c0-1.32595,1.0765-2.40246,2.40246-2.40246Z" transform="translate(211.22236 -51.29624) rotate(55.55191)" fill="#fff"/>
          <path d="M166.3697,168.839l-.3045-.44391c-.098.53261-.3658,1.11951-.8828,1.74161-2.0644.6445-4.4253.2282-6.5393.82739-2.1764.617-4.5966,2.00391-6.0599,3.74781-.7597.9054-.8182,1.7647-2.032,2.0684-1.266.3167-1.858-.566-3.1026-.7064-1.2991-.1465-2.2294.2935-2.8107,1.4123-.0422.0812.0669.1726.1382.1202,2.302-1.6928,3.2339.2144,4.6959,1.21169-.4491.43641-1.0101.87971-1.8485,1.33561-2.5873,1.4066-5.1755-.3258-4.6463-2.5852l-.2126.1458c-1.0125.6946-1.24629,2.1197-.5211,3.177l2.0976,3.0579c.7255,1.0578,2.1393,1.35289,3.1518.6583l18.3556-12.5908c1.013-.6949,1.2467-2.12.5212-3.1777Z"/>
        </g>
      </g>
      <path d="M168.8356,315.32359c-80.7738,0-146.4875-65.7144-146.4875-146.4874S88.0618,22.348,168.8356,22.348s146.4889,65.7144,146.4889,146.4882-65.7144,146.4874-146.4889,146.4874ZM168.8356,31.6643c-75.6365,0-137.1712,61.5347-137.1712,137.1719s61.5347,137.1711,137.1712,137.1711,137.1726-61.5354,137.1726-137.1711S244.47279,31.6643,168.8356,31.6643Z"/>
      <path d="M168.8355,327.61499c-87.5513,0-158.7788-71.2283-158.7788-158.7788S81.2842,10.0566,168.8355,10.0566s158.7805,71.2283,158.7805,158.7796-71.2284,158.7788-158.7805,158.7788ZM168.8355,20.1546C86.8526,20.1546,20.1547,86.8525,20.1547,168.8362s66.6979,148.6808,148.6808,148.6808,148.6825-66.6987,148.6825-148.6808S250.81931,20.1546,168.8355,20.1546Z" fill="#fff"/>
      <g>
        <path d="M301.37489,94.9365c.3081-1.7803.6602-3.80341,1.0355-5.94041-11.5526-19.25009-27.1328-35.82019-45.5863-48.51029.5021,1.9594,1.1015,3.9827,1.8117,6.05829,17.468,12.86111,32.0888,29.37171,42.7391,48.39241Z"/>
        <path d="M305.52159,94.4123l-1.1641,6.1389c10.3935,20.5381,16.2656,43.7361,16.2656,68.2855,0,83.6949-68.092,151.78539-151.78778,151.78539S17.0491,252.53159,17.0491,168.8367c0-49.917,24.2246-94.279,61.531-121.96-1.8225-.2518-3.76279-.3944-5.8693-.411C36.47231,74.994,13.162,119.2442,13.162,168.8367c0,85.839,69.835,155.6733,155.67331,155.6733s155.67488-69.8343,155.67488-155.6733c0-26.9431-6.8913-52.3013-18.9886-74.4244Z"/>
      </g>
      <path d="M125.183,185.2147c-2.9116-6.22761-4.5484-13.16561-4.5484-20.4819,0-19.8914,12.0328-37.01771,29.1978-44.5044-5.6167.93769-12.8566,3.481-19.8829,9.8273-14.56119,13.152-12.68219,27.9346-15.7355,26.767-3.0531-1.1675,2.1138-8.1237.235-16.15361-1.8789-8.03,13.152-13.67139,20.1977-26.70359,6.5418-12.1,78.87261-32.1792,101.407,44.7098-3.0739-34.2093-31.8898-61.11421-66.8856-61.11421-37.0385,0-67.1714,30.133-67.1714,67.17171,0,11.3846,2.8563,22.11129,7.87561,31.5166l15.31069-11.0347Z"/>
    </g>
  </g>
</svg>