<?xml version="1.0" encoding="UTF-8"?>
<svg xmlns="http://www.w3.org/2000/svg" viewBox="0 0 462.25321 686.79609">
  <g isolation="isolate">
    <g id="Layer_2" data-name="Layer 2">
      <g id="Layer_2-2" data-name="Layer 2">
        <g>
          <path d="M426.74621,328.3081c-22.3525-19.9465-75.0558-6.6145-121.5533,5.1485-39.627,10.02328-73.8504,18.6811-91.6043,8.515-5.9153-3.3879-9.6368-8.5893-11.0589-15.4601-10.5478-50.929,15.2529-276.56079,16.3564-286.14162l1.3174-11.44008,9.5895,6.561c36.898,25.7506,85.7128,21.4547,123.7114,14.5869,58.7106-10.6112,96.8933,2.451,108.7488,32.7266l-1.4047,3.7415c-41.9184,106.8288-32.6478,150.05408-25.198,184.78708,3.8312,17.86812,7.1418,33.29962,2.5118,53.277l-2.6666,11.50562-8.7495-7.8074Z"/>
          <path d="M228.24961,39.92961s-26.9145,233.66319-16.4405,284.24359c10.4741,50.5803,166.1754-54.3472,215.4057-10.4168,12.9368-55.8228-35.1933-64.0264,28.7839-227.07452-46.9419-74.0819-136.8671,15.42752-227.7491-46.75228Z" fill="#fff"/>
          <path d="M393.82341,112.45021c-4.3728,21.6582-7.6776,42.7076-10.3528,64.4036,13.9858-.6228,29.8837,3.1245,42.2316,9.6755,2.7298-15.261,7.1602-33.1145,13.9746-54.3567-11.0608-10.8822-29.2784-19.0101-45.8534-19.7224ZM260.53081,272.1291c-1.0302,20.96278-1.803,41.9046-2.4921,62.8387,16.9723-3.8693,37.0447-10.5242,57.5969-16.7956,1.0002-20.3242,2.0344-40.6514,3.3239-60.9965-19.1818,5.6656-38.8971,11.4396-58.4287,14.9534ZM378.54731,245.348c-.8757,19.4667-1.5046,38.9121-2.1215,58.3563,20.7757-2.4727,38.8942-.5622,50.789,10.0521,5.621-24.255-.2852-39.52452-3.5164-62.4073-13.7872-5.1413-30.6211-7.3916-45.1511-6.0011ZM335.91321,117.8145c24.2153-4.4361,36.1563-7.2152,57.9102-5.3643,3.9578-18.472,9.938-37.9008,17.7217-55.8801-17.7498-2.7923-37.7899.2483-59.3222,3.1306-7.0396,19.2047-11.7162,38.5638-16.3097,58.1138ZM325.08351,186.2362c-2.7004,23.6718-4.6283,47.3218-6.124,70.9395,19.0167-5.7386,40.153-10.6564,59.5878-11.8277,1.0233-22.79012,2.5111-45.6252,4.9233-68.4942-18.8261.1185-39.7819,4.3574-58.3871,9.3824ZM274.54251,126.0997c3.9095-21.5263,8.402-42.3655,13.9585-63.7106-7.8164-.8994-15.7133-2.4417-23.6624-4.8319-.0658-.0197-.1317-.0404-.1974-.06032-1.9416-.58718-3.8857-1.21908-5.8329-1.91158-.022-.0078-.044-.0148-.0659-.0226-1.934-.689-3.8707-1.4334-5.8095-2.2325-.1942-.0799-.3884-.1666-.5826-.2477-1.6815-.7028-3.3646-1.4521-5.049-2.24262-.3141-.14738-.6279-.29088-.9422-.44148-1.8869-.9041-3.7751-1.854-5.6649-2.8743-.0041-.00222-.0082-.004-.0122-.00622-4.3332-2.084-8.5127-4.41468-12.4981-7.01418-.0961.841-.2967,2.6077-.5897,5.2327-.0014.0117-.0028.0249-.0041.0368-.0659.5905-.1367,1.2275-.2115,1.90068-.0061.05492-.0121.10862-.0182.16412-.0776.6991-.1592,1.4378-.2456,2.2212-.0014.0129-.0029.0269-.0044.0399-.0756.6857-.156,1.4174-.2381,2.1653-.0261.23748-.052.4752-.0788.7189-.058.53-.1188,1.0869-.1797,1.6455-.0571.5232-.1153,1.059-.1749,1.6068-.0629.5784-.1263,1.1641-.1919,1.7694-.0415.3841-.0834.7714-.126,1.1661-.0366.3392-.0747.6931-.1121,1.04-.1309,1.2166-.2661,2.4742-.4058,3.7829-.0114.1073-.0226.2118-.0342.3197-.082.7677-.1652,1.55-.2499,2.3477-.0049.0457-.0097.0926-.0147.1384-1.342,12.6374-3.0242,28.9759-4.7891,47.3466,17.0311,7.5357,33.0191,13.1254,54.0273,11.9533ZM260.53081,272.1291c1.2016-24.4644,2.7977-48.9613,5.0148-73.487-16.6372,2.43278-36.896.6321-51.8133-5.5419l-.0036.0475c-.2345,3.1778-.4615,6.3498-.6828,9.5135-.03.4284-.0602.857-.0899,1.2851-.2181,3.13958-.4297,6.2697-.6329,9.382-.0162.2467-.0317.4919-.0477.7382-.4233,6.51738-.8118,12.9598-1.1571,19.2745-.0093.1694-.0189.3394-.028.5086-.1743,3.2041-.338,6.3769-.4887,9.50728-.0007.01392-.0012.02762-.002.04162-.4619,9.5951-.8088,18.8106-1.0096,27.445-.0002.0035-.0002.0071-.0003.0107,18.2861,6.0356,29.2316,5.046,50.9411,1.2749ZM325.08351,186.2362c2.598-22.8088,6.0467-45.6502,10.8297-68.4217-20.0297,4.0738-41.3007,7.81638-61.3707,8.2852-3.9409,24.18318-6.8163,48.3813-8.9969,72.5424,19.7385-2.2251,40.0963-7.2751,59.5379-12.4059Z"/>
          <path d="M294.22501,62.88411c-21.52-1.6077-43.7045-7.71722-65.9754-22.9544,0,0-26.9145,233.66309-16.4404,284.24339,1.9788,9.5562,9.3957,13.8771,20.447,14.9052-12.3377-8.42-37.5869-39.34542,52.7766-46.71-6.4991-38.4223-8.5653-165.3113,9.1922-229.48419Z"/>
          <path d="M273.59671,285.0268c-43.8419-28.1444-83.1417-2.879-128.6487,26.3762-35.0305,22.52088-71.2549,45.809-112.3894,44.6091l-10.1824-.2964,4.7317-8.7591c20.6206-38.17372,27.3434-73.2526,19.4402-101.44272-5.9183-21.10748-18.0648-31.20358-18.187-31.30318l-4.8088-3.9225,4.2037-4.9109c3.64-4.5079,27.145-72.3845,3.8804-139.167l-5.9121-12.8728,14.3551,3.9311c27.6196,7.563,65.9267-6.7149,109.1876-25.5933,33.486-14.61272,124.6755-61.21752,156.4112-3.6542l-1.1028,2.7625c-18.3764,46.03628-24.3064,164.0849-20.1919,248.27359l.6493,13.3111-11.4361-7.3415Z"/>
          <path d="M32.92241,209.262s53.1042,42.41488.1961,140.35788c90.4805,2.63932,160.7662-130.56618,244.1653-77.02928-4.1695-85.3015.0409-189.8882,18.9721-237.31509C251.00821-43.06792,108.18481,90.24361,37.88171,63.41788c30.4299,66.25742,1.2458,138.66642-4.9593,145.84412Z" fill="#fff"/>
          <path d="M211.80921,324.1731c-10.4741-50.5803,16.4405-284.24349,16.4405-284.24349,26.638,18.2252,53.192,23.4106,78.6073,23.5115-6.0826,43.0544-24.1079,185.7482,1.3282,204.02739,30.0069,21.5639,18.3166-28.8147,44.7528-34.85662,26.4364-6.04178-25.616,35.84742-5.2122,46.06582,17.5876,8.8078,45.9146-26.2416,80.159-2.8562,1.9054,11.80838,2.7409,23.2168-.67,37.9349-49.2303-43.93052-204.9315,60.9971-215.4056,10.4167Z" opacity=".12"/>
          <path d="M32.92241,209.262s53.1042,42.41488.1961,140.35788c90.4805,2.63932,160.7662-130.56618,244.1653-77.02928-4.1695-85.3015.0409-189.8882,18.9721-237.31509C251.00821-43.06792,108.18481,90.24361,37.88171,63.41788c30.4299,66.25742,1.2458,138.66642-4.9593,145.84412Z" fill="#fff"/>
          <path d="M103.25381,328.0438c19.7978-10.523,36.562-24.516,55.5081-36.2645-.5473-23.0938-.0374-43.037,1.1681-66.3149-19.7979,12.5579-39.4152,24.335-60.0195,35.5589-.5487,23.3004,1.9702,43.9719,3.3433,67.0205ZM159.93001,225.4644c16.4118-10.7951,37.8057-21.7534,57.0879-25.4924,1.3461-23.5902,3.4741-47.235,6.352-70.8907-19.2507,2.7537-41.124,13.1624-57.7122,23.4252-2.4949,24.3456-4.4726,48.6772-5.7277,72.9579ZM36.25261,203.4613c-1.0044,2.1225-1.898,3.7509-2.6164,4.8307-.2958.4357-.7138.97-.7138.97,0,0,.4409.3743.6512.5613,3.9636,3.5481,24.7485,24.1968,22.8801,65.1937,14.1897-2.71,26.6315-6.893,43.4568-13.9937.5743-24.5125,1.8158-49.08642,3.3506-73.6762-25.4318,10.1762-41.0287,14.1879-67.0085,16.1142ZM277.28381,272.5906c-1.0359-21.1921-1.2479-36.9226-1.1822-59.981-18.3136-9.10272-35.5665-18.0051-59.0837-12.6376-1.314,22.993-1.9009,40.3613-1.5719,63.1907,20.2272-4.6725,40.4819-4.2812,61.8378,9.4279ZM37.88171,63.41788c10.1458,22.09142,13.6437,44.85542,13.5967,65.66872,19.0791-1.0522,38.28-6.3934,56.4279-14.1326,1.252-20.508,2.2248-41.0019,2.6213-61.439-27.1977,9.5667-52.6012,15.3914-72.6459,9.90288ZM233.59571,62.03021c-4.1183,22.3359-7.5086,44.6994-10.2258,67.0511,23.158-4.0885,38.5631,6.6858,54.7053,17.49858,1.3255-22.16778,3.3564-43.22468,6.1957-61.82608-13.9952-12.4955-27.7376-24.8935-50.6752-22.7236ZM173.96951,82.11001c-21.9659,11.4175-43.589,22.4898-66.0632,32.844-1.4695,24.126-3.1394,48.2647-4.6452,72.3931,21.3529-11.0121,41.6828-22.6884,62.3966-34.8406,2.403-23.4574,5.2281-46.9265,8.3118-70.3965ZM244.85751,9.48838c-18.9691.8887-40.6608,7.6064-63.1779,16.12323-2.6017,18.8332-5.1912,37.6649-7.7101,56.4984,17.2494-9.4875,40.1847-18.84512,59.6262-20.0798,3.4411-17.5509,6.9809-35.0585,11.2618-52.54182Z"/>
          <polygon points="8.45011 686.79609 6.89661 45.99221 29.35391 43.32031 30.90781 684.12199 8.45011 686.79609"/>
          <polygon points="24.11141 678.52669 15.21461 679.58539 13.69221 51.58821 22.58901 50.52941 24.11141 678.52669" fill="#fff"/>
          <path d="M27.79391,64.43581c-8.1194,5.5886-19.212,4.1335-24.7255-3.2436-5.5135-7.3771-3.3932-17.9267,4.7263-23.5154,8.1194-5.5886,19.212-4.1335,24.7255,3.2436s3.3932,17.9267-4.7263,23.5154Z"/>
          <path d="M25.38041,45.83488c2.845,3.80662,1.755,9.23022-2.4347,12.114-4.1897,2.88372-9.8924,2.13562-12.7374-1.671-2.845-3.80658-1.7549-9.23018,2.4347-12.114,4.1897-2.88368,9.8924-2.13558,12.7374,1.671Z" fill="#fff"/>
          <path d="M20.03021,50.43861c-3.821.44928-1.906,5.7134-6.1531,3.6896-2.8977-1.3808-2.7526-4.74232-2.3684-6.74032-1.5635,2.17242-1.8038,5.02652-.3432,7.30682,1.9957,3.1159,6.3958,3.9863,9.808,1.9403,3.4122-2.04612,4.5646-6.246,2.5689-9.3619-.7413-1.1573-1.8159-2.0015-3.0466-2.5049,2.0965,1.7975,2.4683,5.3254-.4656,5.6704Z"/>
          <path d="M13.74851,74.78031c1.4574.5404,2.9363.98558,4.4345,1.37958l-.2012,603.09621-2.7673.3293-1.466-604.80508Z" fill="#fff"/>
          <polygon points="15.52801 65.42771 17.33431 677.22619 19.89051 676.81929 18.18561 63.59841 15.52801 65.42771"/>
          <path d="M14.08271,62.57888l-.3592,1.89462.0412,16.9948c2.1344,3.2064,4.4874,6.0448,8.9183,7.8211l-.0613-25.2654-8.539-1.44512Z"/>
          <g mix-blend-mode="multiply" opacity=".12">
            <path d="M32.92241,209.262c6.2051-7.1777,35.3892-79.5867,4.9593-145.8442,1.6626.6345,3.3786,1.1517,5.1202,1.6119,15.108,11.83318,32.7454,30.7467,38.1083,55.3713,9.5981,44.0717-30.4736,65.4052-25.4179,73.03288,5.0558,7.62762,57.4401-41.17,46.5928-22.82058-10.8474,18.3493-43.6252,31.7437-36.2148,42.6811,7.4104,10.9373,42.0527,55.0546,31.4975,79.3642s-40.396,47.3428-22.906,39.2642c17.4899-8.0785,79.3501-65.3078,89.1902-84.88792,9.8401-19.58,30.7485-85.92608,37.3454-75.944,6.5968,9.98212-5.3045,51.50432,11.0053,44.09242,16.3098-7.4118,32.7294-124.48042,36.8289-145.5762,4.0993-21.0959,16.8494-24.4831,16.47-14.7674-.3795,9.7157,2.3546-6.0506,11.3237-24.7201,1.9656-4.0914,4.2204-7.3534,6.5795-9.9054,4.8618,3.7676,9.182,8.7083,12.8511,15.0613-18.9312,47.4269-23.1415,152.0136-18.9721,237.31519-83.3991-53.5371-153.6848,79.6684-244.1653,77.0291,52.9081-97.94292-.1961-140.3578-.1961-140.3578Z"/>
          </g>
          <path d="M87.29151,202.8394s44.7785-22.13052,61.2252-32.2001c16.4467-10.0696,46.2941-29.2108,29.4179-11.007-16.8762,18.2039-21.4413,24.4263-51.5052,37.3313s-56.1719,16.8216-39.1379,5.8758Z" mix-blend-mode="multiply" opacity=".11"/>
        </g>
      </g>
    </g>
  </g>
</svg>