<?xml version="1.0" encoding="UTF-8"?>
<svg id="Layer_2" data-name="Layer 2" xmlns="http://www.w3.org/2000/svg" viewBox="0 0 354.67051 402.88645">
  <g id="Layer_2-2" data-name="Layer 2">
    <g>
      <path d="M216.90948,397.85277c-.6024,0-1.2008-.00708-1.8052-.02118l.141-6.1871c.542.0121,1.086.0181,1.6279.0181,42.2987,0,79.6372-37.2821,80.014-37.6629l4.4041,4.3478c-1.6097,1.6329-39.5023,39.50528-84.3818,39.50528Z"/>
      <path d="M353.15828,144.1321s-4.7256-7.561-12.5504-14.1769c-6.967-47.2887-51.7183-91.9138-64.2412-99.4748-12.523-7.561-12.523-3.5442-21.7256-5.907C239.34648,12.69677,214.22438,0,177.33518,0s-62.0111,12.69677-77.3057,24.5734c-9.2025,2.3628-9.2025-1.654-21.7256,5.907-12.5229,7.561-57.2742,52.1861-64.2412,99.4748-7.8248,6.6159-12.5504,14.1769-12.5504,14.1769,0,0-2.3629,32.1926-1.1815,41.7329,3.0717,5.5236,4.962,5.6853,4.962,5.6853,0,0,1.1813,44.4957,6.6159,60.5628-4.962,16.5398,5.1982,51.7458,17.2486,74.6652,12.0503,22.9194,33.5521,47.25648,54.1086,48.9104,20.5565,1.654,24.5733-5.4345,27.4087-17.9575,2.8354-12.5229,2.1266-56.7077-.7088-64.03242-2.8354-7.32478-15.4373-31.89808-21.1868-39.45908-5.7494-7.5611-10.9476-51.6091-6.6946-60.0654,4.2479-8.4459,44.2867-12.3404,95.251-12.35,50.9643.0096,91.0029,3.9041,95.2508,12.35,4.2531,8.4563-.9452,52.5043-6.6946,60.0654-5.7495,7.561-18.3514,32.1343-21.1868,39.45908-2.8354,7.32472-3.5443,51.50952-.7089,64.03242,2.8354,12.523,6.8523,19.6115,27.4088,17.9575,20.5565-1.65392,42.0583-25.991,54.1086-48.9104,12.0504-22.9194,22.2106-58.1254,17.2486-74.6652,5.4346-16.0671,6.6159-60.5628,6.6159-60.5628,0,0,1.8903-.1617,4.9619-5.6853,1.1815-9.5403-1.1814-41.7329-1.1814-41.7329Z"/>
      <path d="M14.34478,201.36129s7.8165,7.547,12.129,6.4688c4.3126-1.0781-.8086-9.7032,3.504-15.9025,3.2344-1.3477,4.5821,1.3477,4.5821,1.3477,0,0-2.1563,52.5592,8.3555,78.704,10.5119,26.1449,16.4416,28.8402,16.7112,48.2467.2695,19.4064.539,32.8832,1.8867,35.848-12.9377-6.4688-41.5083-49.3247-41.7778-87.86822,6.4688,13.47682,29.6488,32.34422,29.6488,32.34422-19.4065-21.8323-27.223-40.43022-29.9184-48.51622-2.6953-8.08608-6.4688-35.57858-5.1211-50.67248Z" fill="#fff" stroke="#000" stroke-miterlimit="10" stroke-width=".25"/>
      <path d="M69.32968,364.95239c-.7508,0-1.4595-.4549-1.7464-1.1984-3.1502-8.1931-3.743-27.2939-4.2189-42.6407-.1525-4.9213-.285-9.1704-.4841-12.36-.4238-6.7828-3.8088-13.2898-8.0935-21.5268-3.534-6.7919-7.5392-14.4918-10.9443-24.3382-7.5793-21.925-5.3205-66.4783-5.2209-68.36352.0548-1.03028.9618-1.83048,1.9665-1.77018,1.0321.0548,1.824.9353,1.7692,1.9675-.0237.4548-2.3191,45.7096,5.0219,66.9423,3.3137,9.5888,7.2523,17.1571,10.7268,23.8358,4.4893,8.6297,8.0351,15.4454,8.5082,23.0193.2028,3.248.3362,7.52628.4896,12.4769.443,14.2708,1.0495,33.8137,3.9724,41.4131.3708.9645-.1106,2.0478-1.0751,2.4186-.221.0841-.4476.1243-.6714.1243Z" fill="#fff" stroke="#000" stroke-miterlimit="10" stroke-width=".25"/>
      <path d="M73.31108,190.6535s-12.8665-3.088-20.9296-7.3768c-8.063-4.28892-9.2639,1.88708-4.8035,6.0044,4.4604,4.1173,20.0719,7.8914,25.7331,1.3724Z" fill="#fff" stroke="#000" stroke-miterlimit="10" stroke-width=".25"/>
      <path d="M47.70108,198.39639s16.4687,7.9316,24.5131,2.264c1.4626,8.9585,4.9363,19.9281,1.0969,25.7785-3.8393,5.8504-14.0776,4.5707-17.3684.9141.7313,5.302,13.1634,7.4959,17.3684,5.1192,0,8.0443-12.2493,7.4958-16.0887,5.4848,5.4848,6.3989,12.9807,6.0332,17.0029,4.9363,4.0222-1.097,3.8393,5.6676,5.3019,11.518,1.4626,5.85048,14.809,20.6594,17.0029,29.435,2.1939,8.7757-1.097,14.6261-8.7757,16.0887s-12.9806,2.37678-22.6704-12.615c-9.6898-14.9917-21.9319-43.5126-17.3829-88.9236Z" fill="#fff" stroke="#000" stroke-miterlimit="10" stroke-width=".25"/>
      <path d="M73.31108,305.05419s23.5846,5.66758,28.5209-9.6898c6.2161,15.723.9142,28.7037-1.6454,34.0056-2.5596,5.302,4.5333,5.1192,4.552,5.6677.0186.5484.5298,15.9058,0,22.4876-.5298,6.5817-20.8878,19.512-28.5022,0-5.8505-14.9918-2.9253-52.4711-2.9253-52.4711Z" fill="#fff" stroke="#000" stroke-miterlimit="10" stroke-width=".25"/>
      <path d="M268.71738,36.45c.7704,10.3994-4.6219,24.2652-7.7033,23.8801-3.0813-.3852-.3851-15.0214-9.2438-27.6859-8.8589-12.6645-46.2196-25.8519-75.6534-25.8519s-66.7944,13.1874-75.6532,25.8519c-8.8587,12.6645-6.1625,27.3007-9.2438,27.6859-3.0814.3851-8.4737-13.4807-7.7033-23.8801,0,0-37.1977,20.79878-62.0113,87.8172,18.4878-7.3181,23.1098-3.8517,30.8131-8.4737,4.4234-2.6541,10.117-9.1903,14.1634-14.2748,3.5512-4.4625,8.4353-7.6654,13.9321-9.185l20.1122-5.5602c4.169-1.1525,7.7487-3.8376,10.0224-7.5172l20.9038-33.8312c3.4676-5.612,8.8904-9.7445,15.2383-11.5395,6.9627-1.9687,17.0993-3.9835,29.4263-3.9835s22.4638,2.0148,29.4265,3.9835c6.3479,1.795,11.7707,5.9275,15.2383,11.5395l20.9038,33.8312c2.2737,3.6796,5.8534,6.3647,10.0224,7.5172l20.1122,5.5602c5.4968,1.5196,10.3808,4.7225,13.9321,9.185,4.0464,5.0845,9.7399,11.6207,14.1634,14.2748,7.7033,4.622,12.3253,1.1556,30.8131,8.4737-24.8136-67.01842-62.0113-87.8172-62.0113-87.8172Z" fill="#fff" stroke="#000" stroke-miterlimit="10" stroke-width=".25"/>
      <path d="M346.79458,146.64577c-11.8595-15.63288-20.215-19.13688-41.2387-21.02358s-19.8846-26.4145-62.532-30.7269c-8.0861-2.1563-24.5277-35.0396-29.1097-43.3951-4.5821-8.3555-31.6495-8.8947-36.579-8.8947s-31.9967.5392-36.5788,8.8947c-4.582,8.3555-21.0236,41.2388-29.1098,43.3951-42.6473,4.3124-41.5082,28.8402-62.5319,30.7269s-29.3793,5.3907-41.2387,21.02358c-2.4259,21.29332,0,39.89112,0,39.89112l12.3985,11.8595c0-5.39062,3.7735-10.473,3.7735-10.473,0,0-6.4688,2.387-8.625-.0389,2.9648.5392,4.8515-4.582,22.3713-12.9376,17.5197-8.3555,67.9226-18.5978,139.5409-18.5978s122.0214,10.2423,139.5411,18.5978c17.5198,8.3556,19.4065,13.4768,22.3713,12.9376-2.1562,2.4259-8.625.0389-8.625.0389,0,0,3.7735,5.08238,3.7735,10.473l12.3985-11.8595s2.4259-18.5978,0-39.89112Z" fill="#fff" stroke="#000" stroke-miterlimit="10" stroke-width=".25"/>
      <path d="M340.32578,201.36129s-7.8165,7.547-12.129,6.4688c-4.3126-1.0781.8086-9.7032-3.504-15.9025-3.2344-1.3477-4.5821,1.3477-4.5821,1.3477,0,0,2.1563,52.5592-8.3555,78.704-10.5119,26.1449-16.4416,28.8402-16.7112,48.2467-.2695,19.4064-.539,32.8832-1.8867,35.848,12.9376-6.4688,41.5083-49.3247,41.7778-87.86822-6.4688,13.47682-29.6488,32.34422-29.6488,32.34422,19.4065-21.8323,27.223-40.43022,29.9184-48.51622,2.6953-8.08608,6.4688-35.57858,5.1211-50.67248Z" fill="#fff" stroke="#000" stroke-miterlimit="10" stroke-width=".25"/>
      <path d="M285.34078,364.95239c.7509,0,1.4596-.4549,1.7465-1.1984,3.1502-8.1931,3.743-27.2939,4.2189-42.6407.1525-4.9213.285-9.1704.4841-12.36.4238-6.7828,3.8088-13.2898,8.0935-21.5268,3.5339-6.7919,7.5392-14.4918,10.9443-24.3382,7.5793-21.925,5.3205-66.4783,5.2209-68.36352-.0548-1.03028-.9618-1.83048-1.9665-1.77018-1.0321.0548-1.8241.9353-1.7692,1.9675.0237.4548,2.319,45.7096-5.0219,66.9423-3.3137,9.5888-7.2523,17.1571-10.7268,23.8358-4.4893,8.6297-8.0351,15.4454-8.5082,23.0193-.2028,3.248-.3362,7.52628-.4896,12.4769-.443,14.2708-1.0495,33.8137-3.9724,41.4131-.3708.9645.1106,2.0478,1.0751,2.4186.221.0841.4476.1243.6713.1243Z" fill="#fff" stroke="#000" stroke-miterlimit="10" stroke-width=".25"/>
      <path d="M281.35938,190.6535s12.8666-3.088,20.9297-7.3768c8.063-4.28892,9.2639,1.88708,4.8035,6.0044-4.4604,4.1173-20.0719,7.8914-25.7332,1.3724Z" fill="#fff" stroke="#000" stroke-miterlimit="10" stroke-width=".25"/>
      <path d="M306.96948,198.39639s-16.4687,7.9316-24.5131,2.264c-1.4626,8.9585-4.9363,19.9281-1.097,25.7785,3.8394,5.8504,14.0777,4.5707,17.3685.9141-.7313,5.302-13.1634,7.4959-17.3685,5.1192,0,8.0443,12.2494,7.4958,16.0888,5.4848-5.4848,6.3989-12.9807,6.0332-17.0029,4.9363-4.0222-1.097-3.8393,5.6676-5.3019,11.518-1.4627,5.85048-14.809,20.6594-17.0029,29.435-2.1939,8.7757,1.097,14.6261,8.7757,16.0887s12.9806,2.37678,22.6704-12.615c9.6898-14.9917,21.9319-43.5126,17.3829-88.9236Z" fill="#fff" stroke="#000" stroke-miterlimit="10" stroke-width=".25"/>
      <path d="M281.35938,305.05419s-23.5845,5.66758-28.5208-9.6898c-6.2161,15.723-.9142,28.7037,1.6454,34.0056,2.5596,5.302-4.5333,5.1192-4.552,5.6677-.0187.5484-.5298,15.9058,0,22.4876.5298,6.5817,20.8878,19.512,28.5022,0,5.8505-14.9918,2.9252-52.4711,2.9252-52.4711Z" fill="#fff" stroke="#000" stroke-miterlimit="10" stroke-width=".25"/>
      <path d="M177.33518,161.9299c-105.7317,0-123.9562,16.4888-123.9562,16.4888,7.5303,8.5054,20.1338,8.852,26.3822,5.3807s19.6131.1113,28.1179-3.1553c8.4892-3.2607,34.7094-5.687,69.4563-5.6959,34.7468.0089,60.9669,2.4352,69.4561,5.6959,8.5048,3.2666,21.8694-.316,28.1179,3.1553,6.2484,3.4713,18.8519,3.1247,26.3822-5.3807,0,0-18.2246-16.4888-123.9564-16.4888Z" fill="#fff" stroke="#000" stroke-miterlimit="10" stroke-width=".25"/>
      <path d="M126.08888,109.5022s17.4291-44.326,20.4416-51.2116c3.0124-6.8856,54.8695-8.1766,61.9703,0,7.1008,8.1767,17.6444,46.9081,17.6444,46.9081,0,0-15.923-31.6307-21.7327-35.2886-5.8097-3.658-43.6553-4.7558-50.9713.4084-7.3159,5.1642-27.3523,39.1837-27.3523,39.1837Z"/>
      <path d="M136.20208,75.71977l-12.4939,35.36722c-.3916,1.1085.9677,2.0044,1.8204,1.1952,1.3185-1.25142,2.8284-2.7431,4.1294-4.1786,3.12-3.44282,12.3538-20.7644,17.9483-24.6375,5.5946-3.8732,54.8696-8.607,54.8696-8.607l3.4428,7.3159s0-2.0007-9.0373-1.1079c-9.0374.8928-39.5575,8.20868-42.5873,8.8542-3.0298.64548-5.3967,7.1008-5.3967,7.1008,0,0,48.7092-12.265,54.4791-12.0498,5.7698.2152,15.8831,15.0622,18.6803,24.5299-9.6828-4.0883-25.821-2.5821-31.6307,2.367,13.1502,0,23.4656,1.3161,30.6025,2.6717,5.4864,1.042,10.2253-3.9032,8.9646-9.3435-2.8718-12.3934-7.9229-31.203-14.1764-41.9578,17.2139,28.6183,16.5684,32.4914,28.1879,38.9467,11.6194,6.4552,30.9851,15.2774,30.9851,15.2774,0,0-16.3532.48-21.5174,3.0373,9.4676,3.20278,22.7686-.45522,29.9969,2.7724,7.2283,3.2276,18.2022,10.7588,23.3664,10.7588-19.3657,9.0373-67.3497-12.6953-106.0812-4.3035,22.5934,1.5062,30.77,3.6579,30.77,3.6579,0,0,3.4428,14.8471,7.5311,19.581-39.1618-6.0249-107.157-4.0884-122.8648,0,3.4428-8.1767.6455-12.6954,2.7973-16.3533,2.1517-3.658,31.8459-5.1642,31.8459-5.1642,0,0-10.598-7.1829-65.6284,1.291-23.1095,3.5586-37.8707-1.5062-45.617,0,23.454-9.4677,59.6034-13.98632,68.8559-10.9739-8.607-6.0249-20.2264-4.949-20.2264-4.949,0,0,15.4926-3.658,23.6692-14.2016,8.1767-10.5435,17.4292-27.112,24.3148-26.89682Z"/>
      <path d="M51.42318,137.475s-14.4167,1.9365-23.0237-4.0884c-8.3918,4.7339-16.1381,13.3409-16.1381,13.3409,0,0-3.9854,28.0155,1.8013,35.0964,6.5905-10.13612,21.2224-14.6548,21.8679-14.87,6.6704-9.898,7.7463-27.7575,15.4926-29.4789Z"/>
      <path d="M69.92818,138.1205s-15.0622-4.51872-18.505,5.5945c-3.4428,10.1133-4.7339,20.2265-11.8346,23.6693,13.3408-4.30352,16.3533-5.4544,16.3533-5.4544,5.1641-9.1775,1.7214-22.7335,13.9863-23.8094Z"/>
      <path d="M301.29158,139.6267s20.176.2152,24.0492-6.02492c14.4167,8.82222,24.9602,29.86082,17.2139,52.26322-8.607-11.5951-35.9342-17.62-39.1618-20.8477-3.2276-3.2276-5.5945-23.8844-12.2649-25.8209,6.8855-.2152,11.8346,5.8793,14.2015,13.0528,2.3669,7.17358,6.8856,9.6807,6.8856,9.6807-4.3035-7.8865-3.3427-18.949-10.9235-22.3032Z"/>
      <path d="M277.14158,138.1205s6.4552-.86072,9.2525,1.9366c2.7973,2.7972,6.6704,21.5174,11.8346,23.2388-9.0373-2.3669-9.0373-.6455-11.8346-6.6704s-2.5821-15.70772-9.2525-18.505Z"/>
      <path d="M222.44088,398.05669s1.9627-9.8523-1.728-10.5912c-3.6908-.7389-4.9223,1.2315-9.1095,0s-4.1872-8.1281-17.2415-9.8523c-13.0542-1.7241-19.1649,1.3223-19.9038,10.0662s1.4309,11.3625,10.0516,13.8255c8.6207,2.4631,21.9212,1.7242,25.8621-2.9556s7.6348,4.422,12.0691-.4926Z"/>
      <path d="M204.10338,384.82019s-3.2885-3.146-11.3505-3.5393c-8.062-.3932-11.6687.3933-13.0478,4.1292-1.379,3.736-1.6972,9.2416,1.273,10.1264,2.9702.8849,4.6675-4.91572,3.1824-6.6854-1.4852-1.7696-1.1669-4.6207.2121-4.0309,1.379.5899,4.031,4.0309,5.9405,1.6714,1.9094-2.3596,8.2741-4.0309,13.7903-1.6714Z" fill="#fff"/>
      <path d="M225.05708,392.25719l.1763,1.9139c14.6862-.6052,28.4272-5.6295,39.9109-11.7051l-3.418-.49622c-10.8253,5.43892-23.437,9.73772-36.6692,10.28742ZM268.75468,378.16677c-1.3917.80922-2.8302,1.60592-4.2985,2.38882l3.2821.5011c1.4764-.8247,2.9211-1.6602,4.3111-2.50492-1.1513-.12888-2.2598-.25818-3.2947-.385Z" fill="#fff" stroke="#000" stroke-miterlimit="10" stroke-width=".25"/>
    </g>
  </g>
</svg>