<?xml version="1.0" encoding="UTF-8"?>
<svg id="Layer_2" data-name="Layer 2" xmlns="http://www.w3.org/2000/svg" viewBox="0 0 206.38039 362.50039">
  <g id="Layer_2-2" data-name="Layer 2">
    <g>
      <path d="M189.9672,263.35909h6.858s-.5811-4.59,0-10.8216c-5.1144,0-6.1606.4346-6.1606.4346,0,0-.9299,3.3789-.6974,10.387Z"/>
      <g>
        <g>
          <path d="M137.3472,176.3826c-2.2792,0-4.1271-1.848-4.1271-4.1272v-21.5549c0-.41522-.3709-.7537-.8283-.7537h-58.4014c-.4575,0-.8283.33848-.8283.7537v21.5549c0,2.2792-1.848,4.1272-4.1272,4.1272h-8.25439c-2.27921,0-4.12721-1.848-4.12721-4.1272v-25.5834c0-7.2286,5.943-13.1111,13.24821-13.1111h66.57919c7.3052,0,13.2481,5.8825,13.2481,13.1111v25.5834c0,2.2792-1.8479,4.1272-4.1272,4.1272h-8.2544Z"/>
          <g>
            <path d="M103.20051,162.3109c53.48849,0,96.98908,43.5006,96.98908,96.989s-43.5006,97.0098-96.98908,97.0098S6.1908,312.78839,6.1908,259.29989s43.5213-96.989,97.00971-96.989Z" fill="#fff"/>
            <path d="M103.20051,356.30969c53.48849,0,96.98908-43.5213,96.98908-97.0098s-43.5006-96.989-96.98908-96.989S6.1908,205.81149,6.1908,259.29989s43.5213,97.0098,97.00971,97.0098ZM103.20051,156.1201c56.89339,0,103.17988,46.2865,103.17988,103.1798s-46.2865,103.2005-103.17988,103.2005S0,316.19328,0,259.29989s46.3071-103.1798,103.20051-103.1798Z"/>
          </g>
          <path d="M60.78051,146.6724v25.583h8.25439v-21.5542c0-2.6962,2.2188-4.8818,4.9558-4.8818h58.4007c2.73711,0,4.9558,2.1856,4.9558,4.8818v21.5542h8.2544v-25.583c0-4.9618-4.0833-8.98412-9.1203-8.98412h-66.5804c-5.037,0-9.12039,4.02232-9.12039,8.98412Z" fill="#fff"/>
          <path d="M142.9039,140.2981c-1.6485-1.61182-3.9165-2.60982-6.4226-2.60982h-66.5803c-5.0371,0-9.12049,4.02242-9.12049,8.98412v18.1825l.44039-.985c1.0339-2.3128,1.5683-4.81762,1.5683-7.351v-9.1947c0-3.8804,3.1457-7.0261,7.0261-7.0261h73.0886Z" fill="#fff"/>
          <path d="M69.0037,168.5297v5.11358s8.7782-8.11818,18.36181-8.54818c9.58369-.4301,30.75119,3.4039,37.57029,1.9295s12.4142,6.9353,12.4142,6.9353v-5.4912l-2.9812-4.4851-21.1331-4.8532-6.5733-.3686-7.7407.1229-10.0136,1.5358s-6.1433.6143-11.3652,2.1502c-5.2218,1.5358-7.7406,3.1331-7.5563,3.0102s-.9829,2.9488-.9829,2.9488Z"/>
          <path d="M60.78051,178.0566v-7.5512s-3.54791,1.1726-5.75221,3.7756c2.8141,1.0084,5.75221,3.7756,5.75221,3.7756Z"/>
          <path d="M145.6016,170.75828v5.93822s3.4813-3.2236,6.5918-3.2801c-1.6401-3.2802-6.5918-2.65812-6.5918-2.65812Z"/>
          <path d="M140.4259,172.2554v-24.26712c0-2.95208-2.3931-5.34508-5.345-5.34508h-64.2878c-2.952,0-5.345,2.393-5.345,5.34508v24.26712l3.5556,1.38788.0312-22.94218c0-2.6961,2.2188-4.8817,4.9558-4.8817h58.4007c2.73711,0,4.9558,2.1856,4.9558,4.8817l.0028,22.94218,3.0759-1.38788Z"/>
        </g>
        <g>
          <path d="M103.3651,174.93728c46.5185,0,84.3623,37.84382,84.3623,84.36242s-37.8438,84.3835-84.3623,84.3835-84.3835-37.86492-84.3835-84.3835,37.86491-84.36242,84.3835-84.36242Z" fill="#fff"/>
          <path d="M103.2007,174.93728c-46.5185,0-84.3834,37.84382-84.3834,84.36242s37.8649,84.3835,84.3834,84.3835,84.3624-37.86492,84.3624-84.3835-37.8438-84.36242-84.3624-84.36242ZM103.2007,169.5552c49.4946,0,89.7446,40.2499,89.7446,89.7445s-40.25,89.76558-89.7446,89.76558S13.4351,308.79428,13.4351,259.29969s40.2711-89.7445,89.7656-89.7445Z"/>
          <path d="M182.963,267.41528c-4.0804,40.41332-38.2938,72.077-79.7627,72.077s-75.7001-31.66368-79.7827-72.077h-4.2019c4.1,42.72642,40.2047,76.26792,83.9851,76.26792s79.8663-33.5415,83.964-76.26792h-4.2018Z"/>
        </g>
        <g>
          <path d="M103.2003,187.6085c39.5408,0,71.6917,32.1509,71.6917,71.6916s-32.1509,71.7119-71.6917,71.7119-71.7119-32.1711-71.7119-71.7119,32.1712-71.6916,71.7119-71.6916Z" fill="#fff"/>
          <path d="M103.2003,183.0328c42.0513,0,76.2673,34.216,76.2673,76.2673,0,42.0716-34.216,76.2876-76.2673,76.2876-42.0715,0-76.2875-34.216-76.2875-76.2876,0-42.0513,34.216-76.2673,76.2875-76.2673ZM174.892,259.30009c0-39.5407-32.1509-71.6916-71.6917-71.6916s-71.7119,32.1509-71.7119,71.6916,32.1712,71.7119,71.7119,71.7119,71.6917-32.1711,71.6917-71.7119Z"/>
        </g>
        <g>
          <g>
            <path d="M103.2003,187.6085c39.5408,0,71.6917,32.1509,71.6917,71.6916s-32.1509,71.7119-71.6917,71.7119-71.7119-32.1711-71.7119-71.7119,32.1712-71.6916,71.7119-71.6916Z" fill="#fff"/>
            <path d="M168.981,277.34809c-20.2051,1.6159-53.51949-13.08682-75.262-2.1287-20.5321,10.34788-45.219,3.9984-56.8887-.1038,7.155,30.0229,34.188,52.42468,66.3695,52.42468,31.3788,0,57.8501-21.29828,65.7812-50.19218Z"/>
            <path d="M103.2003,183.0328c42.0513,0,76.2673,34.216,76.2673,76.2673,0,42.0716-34.216,76.2876-76.2673,76.2876-42.0715,0-76.2875-34.216-76.2875-76.2876,0-42.0513,34.216-76.2673,76.2875-76.2673ZM174.892,259.30009c0-39.5407-32.1509-71.6916-71.6917-71.6916s-71.7119,32.1509-71.7119,71.6916,32.1712,71.7119,71.7119,71.7119,71.6917-32.1711,71.6917-71.7119Z"/>
          </g>
          <path d="M36.0083,270.22599s-2.1472-9.10972,0-20.9149c20.041-4.5454,43.04721,26.0604,62.986,17.2504,19.9387-8.81,38.95721,2.83178,38.6504,3.197-.3067.3652-25.05119-6.5799-48.9783,4.0172-22.9966,10.1851-49.525-1.4661-49.525-1.4661l-3.1331-2.0836Z"/>
        </g>
        <g>
          <path d="M167.64,268.90589l-.4816-2.9281-.4463-.0013c.1217-.1919.2518-.3751.3616-.5791,1.4853-2.7589,1.6344-6.2936.4111-9.6973l-.9854-2.7407-2.8778.4655c-.0332.00538-.0643.016-.0975.0218.1211-.9483.1378-1.9385-.0254-2.9459-.5663-3.4843-2.5855-6.8599-5.4028-9.0262l-2.9362-2.2591-2.0939,3.0551c-1.6927,2.4666-2.3215,5.691-1.7734,9.0806.02011.1233.0657.2415.0887.3643l-2.5714-.88022-.9855,3.59922c-.75569,2.74478-.49369,5.6165.7578,8.30278.0063.01352.0156.02492.0219.03832l-.5862,1.1104c-1.2751,2.4131-1.5715,5.1078-.9357,7.8221l-1.0533,1.2464c-1.7415,2.0573-2.5671,4.5539-2.5037,7.238l-1.283,1.0023c-2.1254,1.6648-3.4413,3.8954-3.9391,6.45748l-1.5423.78322c-2.4362,1.235-4.1949,3.1402-5.2295,5.4947l-1.854.549c-2.67459.7956-4.8273,2.3257-6.3622,4.3883l-2.2106.2649c-3.2405.39088-6.0679,1.719-8.17379,3.843-2.35581,2.376-3.47231,5.3968-3.14181,8.5043l.3225,3.0591,2.0938,2.2611c2.2671,2.5372,5.7716,4.1695,9.6187,4.4778.4413.0343.8827.0524,1.318.0524,3.444-.002,6.8356-1.1023,9.3063-3.01682l2.73751-2.11828c3.51539-.4352,6.69659-2.1086,8.79369-4.679l2.0165-2.4756c3.2333-.98712,5.9896-3.2593,7.4369-6.194l1.3642-2.7626c2.9008-1.5151,5.081-4.2642,5.8645-7.4747l.7383-3.0211c2.4853-1.99072,4.0301-5.1265,4.1325-8.494l.0927-3.1054-.1576-.024c1.9334-2.4098,2.73231-5.6769,2.1728-9.0587Z" fill="#fff"/>
          <g>
            <path d="M123.1424,319.88589c3.1276-.002,6.1968-.9895,8.4216-2.7145l2.0596-1.59412-2.0253-1.64038c-2.2067-1.7855-5.26579-2.8818-8.6131-3.0873-.391-.0242-.7779-.03632-1.1608-.03632-2.7891,0-5.5278.62272-7.9158,1.80162l-2.4365,1.2011,1.8117,2.02328c2.0213,2.26312,5.1772,3.72012,8.6555,3.99822.403.0323.8061.0484,1.2031.0484Z"/>
            <path d="M133.4059,314.87599c.34061,0,.6872-.0141,1.0338-.0403,3.3776-.268,6.44681-1.8117,8.4197-4.232l1.4892-1.8278-2.0092-1.2333c-2.0091-1.2374-4.4456-1.89032-7.0472-1.89032-.5099,0-1.0238.02622-1.54369.07662-3.02691.3003-5.80591,1.4248-8.03671,3.2546l-1.9125,1.56778,1.8843,1.60012c2.0676,1.7573,4.8103,2.7246,7.7223,2.7246h0Z"/>
            <path d="M142.3012,308.16528c.935,0,1.8741-.11888,2.789-.35268,3.0692-.7819,5.7031-2.8777,7.04731-5.60432l.94719-1.91848-1.9528-.8766c-1.51539-.6812-3.1619-1.0258-4.893-1.0258-1.1769,0-2.3638.1632-3.5266.4857-2.7851.7718-5.155,2.3578-6.85179,4.5887l-1.35221,1.7774,1.88021,1.20908c1.74919,1.12252,3.79469,1.717,5.91269,1.717h0Z"/>
            <path d="M149.5661,299.93909c1.4489,0,2.8535-.3103,4.1735-.923,2.7347-1.2716,4.7983-3.7946,5.5197-6.749l.4656-1.9064-1.8803-.5602c-.9975-.2983-2.0353-.4494-3.0833-.4494-1.70279,0-3.4319.4071-4.99979,1.1789-2.48471,1.2212-4.39111,3.2042-5.51771,5.7374l-.8222,1.85,1.83391.8564c1.34619.6308,2.83739.9653,4.30859.9653h.002Z"/>
            <path d="M154.9729,290.40509c1.9125,0,3.7302-.5945,5.2598-1.719,2.3215-1.711,3.7624-4.5625,3.8571-7.6337l.0545-1.8278-1.8077-.2741c-.4917-.0746-.9855-.1129-1.4772-.1129-2.1966,0-4.3045.7295-6.09,2.112-2.09789,1.6202-3.4924,3.9196-4.0325,6.6503l-.3627,1.8197,1.7734.5522c.927.2882,1.8782.4333,2.8253.4333h0Z"/>
            <path d="M158.0401,280.09109c2.3699,0,4.5242-.9693,6.0699-2.7266,1.854-2.1099,2.6218-5.1066,2.1059-8.2221l-.2841-1.72312-1.7472-.004c-2.6743,0-5.1006,1.15672-6.8518,3.25462-1.6404,1.9628-2.4868,4.4879-2.4425,7.3012l.02821,1.7291,1.70689.276c.4716.0766.9432.1149,1.4147.1149h0Z"/>
            <path d="M159.2029,268.62439c2.85561,0,5.2618-1.4247,6.5999-3.9095,1.2918-2.4022,1.4086-5.50762.3244-8.5244l-.5803-1.61222-1.6928.274c-2.5674.41722-4.6633,2.00322-5.9047,4.46582-1.1224,2.2309-1.4006,4.8849-.802,7.674l.3466,1.6223,1.7089.01Z"/>
            <path d="M113.5861,313.17919c3.2929,0,6.2795-1.1688,8.194-3.2083,2.0656-2.1925,2.6842-5.11462,1.6968-8.01862l-.5381-1.58388-1.6605.1995c-2.9161.3506-5.4472,1.5356-7.3214,3.4259-2.04539,2.0616-3.0148,4.6672-2.7306,7.3354l.1894,1.7976,2.1704.0524Z"/>
            <path d="M125.2221,309.56789c3.1881-.4373,5.9308-2.1603,7.33741-4.6068,1.42479-2.48682,1.39659-5.4432-.07451-8.1133l-.8021-1.455-1.594.47148c-2.7045.80412-4.8467,2.40622-6.1929,4.631-1.4288,2.35792-1.7552,5.08042-.9189,7.664l.532,1.64442,1.713-.2358Z"/>
            <path d="M135.6388,303.99779c2.9261-.9411,5.163-3.10752,5.9873-5.7978.8081-2.646.2055-5.5278-1.6505-7.9058l-1.0459-1.3401-1.5155.7698c-2.4263,1.2313-4.1352,3.1821-4.9433,5.6386-.8303,2.5292-.57439,5.2457.7214,7.6499l.81421,1.5094,1.63229-.524Z"/>
            <path d="M144.32451,296.67449c2.58349-1.4067,4.27219-3.9277,4.51809-6.743.2358-2.6984-.8625-5.421-3.0168-7.4664l-1.2897-1.2273-1.40259,1.0963c-2.07571,1.62418-3.31711,3.845-3.58921,6.4225-.274,2.59968.4938,5.2174,2.1604,7.36968l1.0761,1.38852,1.54371-.8403Z"/>
            <path d="M151.1138,287.81349c2.1603-1.8198,3.27071-4.5907,2.9684-7.4161-.2862-2.6802-1.80969-5.18112-4.1816-6.8618l-1.5457-1.09432-1.2232,1.44692c-1.6545,1.9568-2.40419,4.361-2.1704,6.9526.2337,2.58748,1.4429,5.036,3.4037,6.8921l1.3381,1.2696,1.4107-1.189Z"/>
            <path d="M155.8334,277.63859c1.6727-2.15632,2.1906-5.0784,1.3906-7.8191-.7638-2.6057-2.644-4.8386-5.1611-6.1304l-1.8157-.931-.9512,1.8036c-1.1749,2.2228-1.4288,4.7257-.73349,7.2387.69929,2.5151,2.28119,4.73988,4.45769,6.2634l1.6081,1.12648,1.2051-1.55168Z"/>
            <path d="M158.0139,266.67569c1.13661-2.4102,1.0681-5.3887-.1773-7.9682-1.19709-2.4767-3.3695-4.4073-5.96109-5.296l-2.07771-.7114-.5804,2.118c-.663,2.41018-.4292,4.9393.67511,7.30918,1.11649,2.39212,3.00879,4.35092,5.33029,5.51372l1.8903.9492.9008-1.9145Z"/>
          </g>
          <path d="M122.8587,312.90959c2.9636.18068,5.5793,1.1233,7.4423,2.6312-2.0504,1.5877-5.0568,2.4888-8.1978,2.2387-3.1409-.25022-5.7215-1.5698-7.2819-3.3153,2.3019-1.1332,5.0739-1.7353,8.0374-1.5546Z" fill="#fff"/>
          <path d="M129.348,315.55479s-7.5467.5071-13.77149-.9742c0,0,6.18979,5.4789,13.77149.9742Z"/>
          <path d="M133.95,307.78269c2.7264-.269,5.30451.2847,7.3097,1.5181-1.5469,1.8948-4.0908,3.2484-6.98119,3.477-2.89051.22848-5.487-.693-7.25961-2.1992,1.8271-1.4956,4.2049-2.5269,6.9311-2.7959Z" fill="#fff"/>
          <path d="M140.394,309.45669s-6.761,1.6362-12.6717,1.1209c0,0,6.6818,4.5206,12.6717-1.1209Z"/>
          <path d="M143.2653,300.86159c2.4465-.6779,4.9311-.5047,7.0223.43468-1.0474,2.12372-3.1097,3.85472-5.7066,4.51732s-5.1512.1354-7.0782-1.102c1.3531-1.7781,3.316-3.1722,5.7625-3.85Z" fill="#fff"/>
          <path d="M149.5219,301.57979s-5.8862,2.636-11.3787,3.0231c0,0,6.9918,3.5058,11.3787-3.0231Z"/>
          <path d="M150.6701,292.38289c2.1263-1.0443,4.4622-1.2385,6.5831-.606-.555,2.28-2.11969,4.3161-4.3823,5.3667-2.2625,1.0506-4.7171.9083-6.7402-.0382.883-1.9857,2.4131-3.6782,4.5394-4.7225Z" fill="#fff"/>
          <path d="M156.59951,292.17349s-4.92811,3.5062-9.90191,4.726c0,0,7.1192,2.45578,9.90191-4.726Z"/>
          <path d="M156.0311,282.58199c1.7678-1.3671,3.9012-1.9111,5.9955-1.592-.0726,2.3686-1.1272,4.6409-3.0169,6.0325-1.8897,1.3915-4.18819,1.61978-6.2487.9791.4197-2.1237,1.5022-4.0526,3.2701-5.4196Z" fill="#fff"/>
          <path d="M161.4962,281.48479s-3.8934,4.2471-8.2519,6.2243c0,0,7.0643,1.3906,8.2519-6.2243Z"/>
          <path d="M158.9163,271.99179c1.3737-1.6451,3.25221-2.5172,5.2639-2.51252.3967,2.39522-.1383,4.83782-1.6193,6.52262s-3.5683,2.2646-5.6077,1.9377c-.0334-2.1971.5895-4.3027,1.9631-5.9478Z" fill="#fff"/>
          <path d="M164.0826,269.75849s-2.7888,4.8596-6.44,7.5142c0,0,6.8285.329,6.44-7.5142Z"/>
          <path d="M159.7921,260.24739c.94641-1.8779,2.5193-3.0528,4.393-3.358.8498,2.3648.8406,4.9153-.19859,6.8452-1.03921,1.9298-2.86171,2.838-4.82161,2.8268-.4737-2.211-.3192-4.4362.6272-6.314Z" fill="#fff"/>
          <path d="M164.231,257.23709s-1.6217,5.3453-4.4787,8.59318c0,0,6.4139-.71168,4.4787-8.59318Z"/>
          <path d="M120.2776,308.55909c1.636-1.7384,1.9301-3.9317,1.24591-5.9407-2.34671.2815-4.49741,1.2095-6.10151,2.8282-1.604,1.6186-2.3591,3.6348-2.144,5.6649,2.716.0716,5.36351-.8139,6.9996-2.5524Z" fill="#fff"/>
          <path d="M121.1126,303.17428s-3.84809,3.91982-7.35009,7.55262c0,0-.18171-5.8493,7.35009-7.55262Z"/>
          <path d="M130.7694,303.93309c1.132-1.9722.952-4.19482-.0925-6.0906-2.11039.627-3.8956,1.8694-5.0161,3.7201-1.1204,1.8506-1.36329,3.9724-.72129,5.9609,2.47659-.3401,4.69789-1.6183,5.82989-3.5904Z" fill="#fff"/>
          <path d="M130.4119,298.45579s-2.7389,4.4653-5.1178,8.61148c0,0-1.4829-5.80308,5.1178-8.61148Z"/>
          <path d="M139.6527,297.59489c.6503-2.1265.0435-4.3053-1.304-6.032-1.8457.9382-3.2587,2.4391-3.9173,4.4446s-.43589,4.149.5758,6.0263c2.2076-.7111,3.9952-2.31252,4.6455-4.4389Z" fill="#fff"/>
          <path d="M138.2224,292.21169s-1.6677,4.8415-2.9851,9.3157c0,0-2.6142-5.5402,2.9851-9.3157Z"/>
          <path d="M146.7869,289.75289c.1929-2.2094-.7913-4.2815-2.3828-5.7921-1.5525,1.2152-2.5871,2.922-2.8078,5.013-.2207,2.0909.4189,4.1829,1.7405,5.8898,1.9094-1.04132,3.2573-2.9012,3.4501-5.1107Z" fill="#fff"/>
          <path d="M144.4092,284.62499s-.6386,5.0648-.96069,9.7015c0,0-3.56821-5.0923.96069-9.7015Z"/>
          <path d="M152.0308,280.61679c-.2387-2.229-1.5489-4.14052-3.3236-5.39752-1.2312,1.458-1.8825,3.32182-1.6906,5.43652.19191,2.1147,1.1972,4.0921,2.7671,5.5797,1.5823-1.3316,2.48581-3.3898,2.2471-5.6187Z" fill="#fff"/>
          <path d="M148.8356,275.88149s.3452,5.1506.9477,9.8035c0,0-4.3389-4.49072-.9477-9.8035Z"/>
          <path d="M155.2422,270.39719c-.64269-2.1923-2.2259-3.8985-4.12169-4.8728-.88221,1.6666-1.14571,3.64188-.56821,5.7257.5776,2.0838,1.8957,3.8933,3.65021,5.1224,1.227-1.5823,1.68229-3.783,1.03969-5.9753Z" fill="#fff"/>
          <path d="M151.3639,266.16899s1.28061,5.1139,2.733,9.6549c0,0-4.9208-3.7643-2.733-9.6549Z"/>
          <path d="M155.9792,259.60539c-1.0178-2.1068-2.8196-3.5715-4.7733-4.2422-.5057,1.84108-.3777,3.8855.5574,5.8908.935,2.00528,2.5113,3.6031,4.3854,4.5436.8436-1.7941.8482-4.0855-.1695-6.1922Z" fill="#fff"/>
          <path d="M151.8546,255.67769s2.16491,4.9691,4.3896,9.28758c0,0-5.30969-2.94128-4.3896-9.28758Z"/>
          <path d="M159.4488,259.02389c1.1769-1.00762,3.2243-4.5867,2.6238-8.2907-.5078-3.1317-2.3236-6.1646-4.8567-8.1133l-1.7271-1.3281-1.23129,1.7976c-1.48121,2.1583-2.02731,5.00988-1.53761,8.0307.4675,2.8879,1.854,5.6487,3.9015,7.7688l1.3522,1.3985,1.4752-1.2635Z"/>
          <path d="M160.0356,251.06299c.4617,2.849-1.2,5.7685-1.9299,6.3921-1.7128-1.7726-2.9349-4.1095-3.34919-6.6662-.41431-2.5567.05389-4.8573,1.201-6.533,2.01519,1.5508,3.633,4.0601,4.07809,6.8071Z" fill="#fff"/>
          <path d="M156.8763,248.11199c.3664,1.7668.5169,2.645.7547,4.3875,0,0-1.3821-.142-2.1496-1.0979,0,0,.7682,3.4201,2.5614,5.0558,0,0,3.6586-5.1783-1.1665-8.3454Z"/>
        </g>
        <g>
          <path d="M39.7251,268.90589l.4817-2.9281.4462-.0013c-.1217-.1919-.2518-.3751-.3616-.5791-1.4852-2.7589-1.6344-6.2936-.4111-9.6973l.9854-2.7407,2.87781.4655c.03319.00538.06439.016.09749.0218-.1211-.9483-.1378-1.9385.0254-2.9459.5663-3.4843,2.5856-6.8599,5.4029-9.0262l2.9361-2.2591,2.0939,3.0551c1.6928,2.4666,2.3215,5.691,1.7734,9.0806-.02.1233-.0656.2415-.0887.3643l2.5714-.88022.9855,3.59922c.7557,2.74478.4937,5.6165-.7577,8.30278-.0063.01352-.01569.02492-.022.03832l.5862,1.1104c1.2752,2.4131,1.5715,5.1078.9357,7.8221l1.05341,1.2464c1.74139,2.0573,2.567,4.5539,2.50359,7.238l1.283,1.0023c2.12541,1.6648,3.44141,3.8954,3.9391,6.45748l1.54231.78322c2.43619,1.235,4.195,3.1402,5.22949,5.4947l1.8541.549c2.6745.7956,4.8272,2.3257,6.3622,4.3883l2.2106.2649c3.2404.39088,6.0678,1.719,8.1737,3.843,2.3558,2.376,3.4723,5.3968,3.1418,8.5043l-.3225,3.0591-2.0938,2.2611c-2.2671,2.5372-5.77159,4.1695-9.6187,4.4778-.4413.0343-.8827.0524-1.31789.0524-3.44411-.002-6.83571-1.1023-9.30641-3.01682l-2.7374-2.11828c-3.5155-.4352-6.6966-2.1086-8.7937-4.679l-2.01649-2.4756c-3.23331-.98712-5.98971-3.2593-7.437-6.194l-1.36421-2.7626c-2.90079-1.5151-5.081-4.2642-5.8644-7.4747l-.73839-3.0211c-2.48521-1.99072-4.03011-5.1265-4.13241-8.494l-.0928-3.1054.1576-.024c-1.9333-2.4098-2.7323-5.6769-2.1728-9.0587Z" fill="#fff"/>
          <g>
            <path d="M84.2228,319.88589c-3.1277-.002-6.1969-.9895-8.4217-2.7145l-2.0595-1.59412,2.0253-1.64038c2.20661-1.7855,5.2658-2.8818,8.6131-3.0873.3909-.0242.7778-.03632,1.1607-.03632,2.7891,0,5.52781.62272,7.9159,1.80162l2.4364,1.2011-1.8117,2.02328c-2.0213,2.26312-5.1771,3.72012-8.6554,3.99822-.4031.0323-.8061.0484-1.2031.0484Z"/>
            <path d="M73.9592,314.87599c-.3406,0-.6872-.0141-1.0338-.0403-3.3775-.268-6.4467-1.8117-8.4197-4.232l-1.48919-1.8278,2.00919-1.2333c2.0092-1.2374,4.4456-1.89032,7.0472-1.89032.5099,0,1.0238.02622,1.5437.07662,3.02691.3003,5.80591,1.4248,8.0368,3.2546l1.9124,1.56778-1.8842,1.60012c-2.0677,1.7573-4.8104,2.7246-7.7224,2.7246h0Z"/>
            <path d="M65.064,308.16528c-.9351,0-1.8742-.11888-2.7891-.35268-3.0692-.7819-5.7031-2.8777-7.0473-5.60432l-.94709-1.91848,1.95269-.8766c1.5155-.6812,3.1619-1.0258,4.893-1.0258,1.1769,0,2.3639.1632,3.5267.4857,2.785.7718,5.1549,2.3578,6.8517,4.5887l1.3523,1.7774-1.8802,1.20908c-1.7493,1.12252-3.7947,1.717-5.9127,1.717h0Z"/>
            <path d="M57.7991,299.93909c-1.449,0-2.85359-.3103-4.17359-.923-2.73471-1.2716-4.79831-3.7946-5.51971-6.749l-.4655-1.9064,1.88021-.5602c.99749-.2983,2.03539-.4494,3.08329-.4494,1.7029,0,3.4319.4071,4.9998,1.1789,2.4848,1.2212,4.3912,3.2042,5.5177,5.7374l.82221,1.85-1.83391.8564c-1.34609.6308-2.8374.9653-4.3085.9653h-.002Z"/>
            <path d="M52.3922,290.40509c-1.9125,0-3.7302-.5945-5.2598-1.719-2.3215-1.711-3.7624-4.5625-3.8571-7.6337l-.0544-1.8278,1.80761-.2741c.49169-.0746.98549-.1129,1.47719-.1129,2.1966,0,4.3045.7295,6.09,2.112,2.0979,1.6202,3.4924,3.9196,4.0325,6.6503l.3627,1.8197-1.77339.5522c-.927.2882-1.87821.4333-2.82531.4333h0Z"/>
            <path d="M49.325,280.09109c-2.3699,0-4.5242-.9693-6.0699-2.7266-1.854-2.1099-2.6218-5.1066-2.1059-8.2221l.2842-1.72312,1.7472-.004c2.6742,0,5.1005,1.15672,6.8517,3.25462,1.6404,1.9628,2.4868,4.4879,2.4425,7.3012l-.0282,1.7291-1.7069.276c-.4716.0766-.9431.1149-1.4147.1149h0Z"/>
            <path d="M48.1622,268.62439c-2.8556,0-5.2618-1.4247-6.5999-3.9095-1.2917-2.4022-1.4086-5.50762-.3244-8.5244l.5804-1.61222,1.6928.274c2.56741.41722,4.6632,2.00322,5.9046,4.46582,1.1225,2.2309,1.4006,4.8849.8021,7.674l-.3467,1.6223-1.7089.01Z"/>
            <path d="M93.779,313.17919c-3.2929,0-6.27949-1.1688-8.1939-3.2083-2.06559-2.1925-2.6843-5.11462-1.6969-8.01862l.5381-1.58388,1.6606.1995c2.916.3506,5.4471,1.5356,7.3213,3.4259,2.0455,2.0616,3.0148,4.6672,2.7306,7.3354l-.1894,1.7976-2.1704.0524Z"/>
            <path d="M82.1431,309.56789c-3.1881-.4373-5.9309-2.1603-7.3375-4.6068-1.4248-2.48682-1.3966-5.4432.0746-8.1133l.802-1.455,1.5941.47148c2.7044.80412,4.8466,2.40622,6.1928,4.631,1.4288,2.35792,1.7552,5.08042.9189,7.664l-.532,1.64442-1.7129-.2358Z"/>
            <path d="M71.7263,303.99779c-2.9261-.9411-5.163-3.10752-5.9872-5.7978-.8081-2.646-.20559-5.5278,1.65041-7.9058l1.04589-1.3401,1.5155.7698c2.4263,1.2313,4.1353,3.1821,4.9434,5.6386.83021,2.5292.5743,5.2457-.7215,7.6499l-.8141,1.5094-1.6324-.524Z"/>
            <path d="M63.0407,296.67449c-2.5836-1.4067-4.2723-3.9277-4.51819-6.743-.23581-2.6984.86249-5.421,3.01679-7.4664l1.2898-1.2273,1.4026,1.0963c2.0757,1.62418,3.317,3.845,3.5891,6.4225.2741,2.59968-.4937,5.2174-2.16029,7.36968l-1.07621,1.38852-1.5436-.8403Z"/>
            <path d="M56.2514,287.81349c-2.1604-1.8198-3.2708-4.5907-2.9685-7.4161.2862-2.6802,1.8097-5.18112,4.18161-6.8618l1.54569-1.09432,1.22331,1.44692c1.65449,1.9568,2.40409,4.361,2.17039,6.9526-.2338,2.58748-1.4429,5.036-3.4038,6.8921l-1.3381,1.2696-1.4106-1.189Z"/>
            <path d="M51.5317,277.63859c-1.6727-2.15632-2.1906-5.0784-1.3905-7.8191.7637-2.6057,2.644-4.8386,5.161-6.1304l1.8157-.931.9512,1.8036c1.1749,2.2228,1.4288,4.7257.7335,7.2387-.6992,2.5151-2.2812,4.73988-4.4577,6.2634l-1.6081,1.12648-1.2051-1.55168Z"/>
            <path d="M49.3512,266.67569c-1.1366-2.4102-1.0681-5.3887.17731-7.9682,1.19709-2.4767,3.36949-4.4073,5.96109-5.296l2.0777-.7114.5804,2.118c.663,2.41018.4292,4.9393-.6751,7.30918-1.1165,2.39212-3.0088,4.35092-5.3303,5.51372l-1.8903.9492-.9008-1.9145Z"/>
          </g>
          <path d="M84.5064,312.90959c-2.9636.18068-5.5793,1.1233-7.4423,2.6312,2.05041,1.5877,5.0568,2.4888,8.1978,2.2387,3.1409-.25022,5.7215-1.5698,7.2819-3.3153-2.3019-1.1332-5.0739-1.7353-8.0374-1.5546Z" fill="#fff"/>
          <path d="M78.0171,315.55479s7.5467.5071,13.7715-.9742c0,0-6.1897,5.4789-13.7715.9742Z"/>
          <path d="M73.4151,307.78269c-2.7264-.269-5.3045.2847-7.3097,1.5181,1.5469,1.8948,4.0908,3.2484,6.9813,3.477,2.8904.22848,5.4869-.693,7.2595-2.1992-1.827-1.4956-4.2049-2.5269-6.9311-2.7959Z" fill="#fff"/>
          <path d="M66.9711,309.45669s6.7611,1.6362,12.6717,1.1209c0,0-6.6818,4.5206-12.6717-1.1209Z"/>
          <path d="M64.0999,300.86159c-2.4466-.6779-4.9312-.5047-7.02239.43468,1.04749,2.12372,3.10969,3.85472,5.70669,4.51732,2.5968.6626,5.1511.1354,7.0782-1.102-1.3531-1.7781-3.316-3.1722-5.7625-3.85Z" fill="#fff"/>
          <path d="M57.8433,301.57979s5.8861,2.636,11.3786,3.0231c0,0-6.9917,3.5058-11.3786-3.0231Z"/>
          <path d="M56.695,292.38289c-2.1263-1.0443-4.4622-1.2385-6.5831-.606.5551,2.28,2.1198,4.3161,4.3824,5.3667,2.2624,1.0506,4.7171.9083,6.74021-.0382-.883-1.9857-2.41321-3.6782-4.53951-4.7225Z" fill="#fff"/>
          <path d="M50.7656,292.17349s4.9281,3.5062,9.90191,4.726c0,0-7.11911,2.45578-9.90191-4.726Z"/>
          <path d="M51.3341,282.58199c-1.7678-1.3671-3.9013-1.9111-5.99559-1.592.07269,2.3686,1.12719,4.6409,3.01689,6.0325,1.8897,1.3915,4.1882,1.61978,6.2488.9791-.4198-2.1237-1.5023-4.0526-3.2701-5.4196Z" fill="#fff"/>
          <path d="M45.8689,281.48479s3.8934,4.2471,8.2519,6.2243c0,0-7.06429,1.3906-8.2519-6.2243Z"/>
          <path d="M48.4488,271.99179c-1.3737-1.6451-3.2522-2.5172-5.2638-2.51252-.3967,2.39522.1382,4.83782,1.6193,6.52262,1.481,1.6848,3.56821,2.2646,5.6076,1.9377.0334-2.1971-.5895-4.3027-1.9631-5.9478Z" fill="#fff"/>
          <path d="M43.28251,269.75849s2.78879,4.8596,6.44009,7.5142c0,0-6.8286.329-6.44009-7.5142Z"/>
          <path d="M47.573,260.24739c-.9464-1.8779-2.5193-3.0528-4.393-3.358-.8498,2.3648-.8406,4.9153.1987,6.8452,1.0391,1.9298,2.8616,2.838,4.8215,2.8268.4737-2.211.3192-4.4362-.6272-6.314Z" fill="#fff"/>
          <path d="M43.1341,257.23709s1.6217,5.3453,4.4787,8.59318c0,0-6.4139-.71168-4.4787-8.59318Z"/>
          <path d="M87.0876,308.55909c-1.63609-1.7384-1.9302-3.9317-1.246-5.9407,2.3468.2815,4.4974,1.2095,6.1015,2.8282,1.604,1.6186,2.3591,3.6348,2.144,5.6649-2.716.0716-5.3635-.8139-6.9995-2.5524Z" fill="#fff"/>
          <path d="M86.25251,303.17428s3.84809,3.91982,7.35019,7.55262c0,0,.1816-5.8493-7.35019-7.55262Z"/>
          <path d="M76.5957,303.93309c-1.132-1.9722-.952-4.19482.0925-6.0906,2.1105.627,3.8956,1.8694,5.0161,3.7201,1.1204,1.8506,1.3634,3.9724.7213,5.9609-2.4766-.3401-4.6979-1.6183-5.8299-3.5904Z" fill="#fff"/>
          <path d="M76.9533,298.45579s2.7388,4.4653,5.1177,8.61148c0,0,1.4829-5.80308-5.1177-8.61148Z"/>
          <path d="M67.7124,297.59489c-.6503-2.1265-.0434-4.3053,1.30411-6.032,1.84569.9382,3.25859,2.4391,3.91729,4.4446.6586,2.0055.4358,4.149-.5758,6.0263-2.2077-.7111-3.9953-2.31252-4.6456-4.4389Z" fill="#fff"/>
          <path d="M69.1427,292.21169s1.6677,4.8415,2.9851,9.3157c0,0,2.6142-5.5402-2.9851-9.3157Z"/>
          <path d="M60.5782,289.75289c-.1928-2.2094.79131-4.2815,2.3828-5.7921,1.55251,1.2152,2.5871,2.922,2.8079,5.013.22061,2.0909-.419,4.1829-1.7406,5.8898-1.9093-1.04132-3.2573-2.9012-3.4501-5.1107Z" fill="#fff"/>
          <path d="M62.956,284.62499s.63851,5.0648.9607,9.7015c0,0,3.5681-5.0923-.9607-9.7015Z"/>
          <path d="M55.3344,280.61679c.2386-2.229,1.5488-4.14052,3.3235-5.39752,1.2313,1.458,1.8825,3.32182,1.69061,5.43652-.19191,2.1147-1.19721,4.0921-2.767,5.5797-1.58241-1.3316-2.48591-3.3898-2.24711-5.6187Z" fill="#fff"/>
          <path d="M58.52951,275.88149s-.34521,5.1506-.94771,9.8035c0,0,4.3389-4.49072.94771-9.8035Z"/>
          <path d="M52.123,270.39719c.6426-2.1923,2.2258-3.8985,4.1216-4.8728.8822,1.6666,1.1457,3.64188.5682,5.7257-.5776,2.0838-1.8957,3.8933-3.6502,5.1224-1.2269-1.5823-1.6823-3.783-1.0396-5.9753Z" fill="#fff"/>
          <path d="M56.0012,266.16899s-1.2805,5.1139-2.733,9.6549c0,0,4.9209-3.7643,2.733-9.6549Z"/>
          <path d="M51.3859,259.60539c1.0178-2.1068,2.8197-3.5715,4.7733-4.2422.5057,1.84108.3777,3.8855-.5573,5.8908-.9351,2.00528-2.5113,3.6031-4.3855,4.5436-.8436-1.7941-.8482-4.0855.1695-6.1922Z" fill="#fff"/>
          <path d="M55.51051,255.67769s-2.16491,4.9691-4.38951,9.28758c0,0,5.3096-2.94128,4.38951-9.28758Z"/>
          <path d="M47.9164,259.02389c-1.17689-1.00762-3.2244-4.5867-2.62389-8.2907.50789-3.1317,2.32359-6.1646,4.85669-8.1133l1.7271-1.3281,1.2313,1.7976c1.4812,2.1583,2.0273,5.00988,1.5376,8.0307-.4675,2.8879-1.854,5.6487-3.9015,7.7688l-1.35219,1.3985-1.47511-1.2635Z"/>
          <path d="M47.32951,251.06299c-.46171,2.849,1.20009,5.7685,1.92989,6.3921,1.7128-1.7726,2.9349-4.1095,3.3492-6.6662.4144-2.5567-.0539-4.8573-1.201-6.533-2.0152,1.5508-3.6329,4.0601-4.07809,6.8071Z" fill="#fff"/>
          <path d="M50.4889,248.11199c-.36639,1.7668-.5169,2.645-.7548,4.3875,0,0,1.3821-.142,2.1496-1.0979,0,0-.76819,3.4201-2.5614,5.0558,0,0-3.6586-5.1783,1.1666-8.3454Z"/>
        </g>
        <path d="M133.4657,237.78199c-.8606.2236-1.6928.3425-2.6098.3425h-.0221c-.03829-.1531-.0867-.4373-.0867-.9169v-5.6064h5.07441v-11.7951h-5.07441v-5.5177h-12.0974v4.1675c0,.5582-.1008.98538-.3043,1.2736,0,0-.11689.0766-.4877.0766h-2.0636v.5224c-.8844-.2847-1.84659-.5441-2.9664-.7441-1.6001-.2882-3.4118-.4333-5.3827-.4333-1.9387,0-3.6476.262-5.0804.7759-1.4913.5381-2.7488,1.3018-3.7363,2.2712-.27779.2734-.4846.596-.7214.8983v-5.2049h-12.7322l-13.7157,3.9196v11.1806h6.7772v25.9803h-5.165v15.10018h29.3538v-15.10018h-4.5181v-10.0939l.268.1084c1.1447.4636,2.5392.8384,4.2642,1.14668,1.6807.30032,3.5549.45342,5.5681.45342,3.827,0,6.743-1.0237,8.6736-3.0409.7779-.816,1.35771-1.7763,1.8199-2.819.4063,1.0822.8884,2.0666,1.5173,2.8331.919,1.1245,2.0697,1.9306,3.4219,2.4001,1.2031.4151,2.5754.6267,4.0788.6267,1.4369,0,2.8133-.1632,4.0929-.4836,1.2293-.3083,2.3196-.6832,3.2425-1.1104l1.1931-.5562v-11.3256l-2.5815.6711ZM97.9069,238.28239v-1.8574c.24561.31028.4708.6359.7597.9136.5462.526,1.1527.9955,1.8158,1.40868-.2334-.03928-1.5961-.28678-2.5755-.46488ZM115.7941,231.00828v.06132c-.0313-.0231-.0551-.05232-.0867-.0749.0042.0007.0475.0074.0867.01358ZM116.409,231.60119h1.0376v1.1344c-.184-.2361-.3397-.49532-.5482-.7112-.1473-.15312-.3291-.2798-.4894-.4232Z" fill="#fff"/>
        <path d="M73.5228,223.36769l11.9403-3.4118h10.38041v41.0805h4.51819v10.973h-25.2267v-10.973h5.1651v-30.1075h-6.7773v-7.5612Z"/>
        <g>
          <path d="M98.949,240.57379c1.8802.3446,3.4199.5703,4.623.6791s2.1563.1632,2.8576.1632c1.1023,0,1.8278-.10882,2.1804-.3264.3507-.2197.526-.5159.526-.8888,0-.405-.1874-.7093-.5642-.9129-.3749-.2015-1.1528-.4131-2.3297-.63072-2.6077-.43728-4.6551-1.37238-6.1464-2.80518-1.4913-1.4349-2.2369-3.4602-2.2369-6.08,0-1.2152.1753-2.3457.526-3.3896.3506-1.0439.9149-1.9487,1.69071-2.7125.77789-.7638,1.77339-1.3623,2.98859-1.7996s2.6763-.655,4.3811-.655c1.8541,0,3.5267.133,5.018.4011,1.4892.266,2.7246.6045,3.7019,1.0116v6.35c-1.203-.1874-2.4182-.3426-3.6455-.4675-1.2293-.125-2.39409-.1874-3.4964-.1874-1.052,0-1.7976.0927-2.2369.28008-.4394.18742-.657.46752-.657.83832,0,.1874.0363.35068.1128.49168.0746.13912.2177.264.4313.37292.2136.1088.5078.2015.8827.28008.3768.07652.85241.14712,1.4288.20962,2.908.3425,5.0501,1.2292,6.42861,2.6601,1.37839,1.4288,2.06759,3.4662,2.06759,6.1101,0,2.769-.7658,4.9535-2.2933,6.5556-1.5296,1.6001-3.9217,2.4021-7.18029,2.4021-1.90441,0-3.63951-.141-5.20541-.4211-1.5658-.2802-2.8515-.6227-3.8531-1.0278v-6.5011Z"/>
          <path d="M128.6838,221.87039h5.0743v7.66788h-5.0743v7.67c0,1.06.1813,1.82382.5441,2.29132.3627.4676.9088.7013,1.6363.7013,1.0016,0,2.0415-.141,3.1196-.4211v7.3414c-.802.3729-1.76129.7013-2.8757.9815-1.1164.2801-2.3115.4211-3.5891.4211-1.2797,0-2.4143-.1712-3.4038-.5138-.9894-.3426-1.82169-.927-2.4989-1.7553-.6771-.8242-1.197-1.90842-1.5597-3.2486-.3648-1.3401-.5462-3.0087-.5462-5.00382v-8.464h-1.6525v-7.66788c1.00161,0,1.7291-.3204,2.1805-.9593.4494-.63882.67511-1.457.67511-2.4545v-2.1039h7.97029v5.5177Z"/>
        </g>
        <path d="M195.5086,267.14659c-3.9818,47.5105-43.7788,84.8358-92.3184,84.8358S14.8536,314.65709,10.8718,267.14659h-4.3359c4.012,49.8299,45.8202,89.1631,96.66461,89.1631s92.63408-39.3332,96.64408-89.1631h-4.336Z"/>
        <path d="M18.8172,250.78959c.9944,5.4429-2.7252,9.8555-2.7252,9.8555l1.8598,2.8766h4.882s-.3487-5.4108.6154-13.5979c0,0-4.7849.0288-4.632.8658Z"/>
        <path d="M5.2866,251.49699c.9944,5.4429-1.4904,9.6624-1.4904,9.6624l1.8598,2.8766h4.8821s-.3488-5.41072.61541-13.5979c0,0-6.01981.2219-5.86691,1.0589Z"/>
      </g>
      <path d="M118.2083,154.7376c-5.0179,0-10.3421-1.7029-10.9326-1.8964-1.4207-.4655-2.5694-1.5255-3.1478-2.90592-.1955-.46548-.31839-.95118-.3708-1.44288-3.9055,2.63588-7.8392,4.6088-12.2385,4.6088-3.9438,0-7.7365-1.6323-11.2752-4.8486C71.993,140.7539,26.5858,39.06128,12.8661,8.071c-.7053-1.594-.5582-3.44.393-4.903.9532-1.4611,2.5795-2.34372,4.3247-2.34372h44.4439c1.991,0,3.8027,1.14462,4.6592,2.94222,18.9351,39.7907,62.976,133.2209,62.976,141.40278,0,3.40572-1.6263,6.30562-4.4617,7.95412-1.8681,1.0862-4.1554,1.6142-6.9929,1.6142h0Z"/>
      <path d="M174.3446,2.2672c-.9592-1.4168-2.5593-2.2672-4.2723-2.2672h-37.4833c-2.1019,0-3.9942,1.2757-4.7821,3.2224l-29.3982,72.62088c-.2514.62152-.3517,1.27812-.3521,1.93272l-.0244.0045.0218.0466c.0078.8394.1986,1.6741.6106,2.4275.71,1.2982,25.8397,54.2586,25.8397,54.2586l25.9331-66.4312h-.0001l24.42521-61.0045c.63479-1.59.44139-3.3916-.51791-4.8103Z"/>
      <g>
        <path d="M46.7999,5.9826h-14.0167l64.781,140.2313c2.9185-1.52062,5.94231-3.8711,9.3008-6.3722.44851-.334.9197-.5917,1.4011-.8068L46.7999,5.9826Z" fill="#fff"/>
        <path d="M30.5086,5.9826h-7.9328c-2.3489,0-3.9211,2.4159-2.966,4.5619,10.3306,23.2117,56.923,127.3629,64.10371,133.8907,4.26079,3.8737,8.06359,4.1558,11.97059,2.6325L30.5086,5.9826Z" fill="#fff"/>
        <path d="M62.9022,7.823c-.5375-1.1319-1.6724-1.8404-2.9254-1.8404h-10.9024l61.1954,132.4661c8.3912-1.2231,18.3585,10.7358,4.0223,8.7068,0,0-2.8893-1.0488-5.4059.7853,8.7868,3.99948,15.6181,1.11348,15.6181-2.77052,0-7.34828-54.041-121.42238-61.6021-137.34728Z" fill="#fff"/>
      </g>
      <path d="M132.0192,6.5658l-28.829,71.2147c2.0725,3.7891,4.5941,7.1054,7.25131,10.0131L143.0338,5.15828h-8.92629c-.91781,0-1.74391.55672-2.08831,1.40752Z" fill="#fff"/>
      <path d="M159.7062,5.15828l-36.7716,93.22922c4.6058,3.037,8.0008,4.52178,8.0008,4.52178L168.8353,8.2485c.5926-1.4799-.4973-3.09022-2.0914-3.09022h-7.0377Z" fill="#fff"/>
      <path d="M145.2512,5.15828l-33.2466,84.29452c3.1022,3.144,6.302,5.716,9.18391,7.7397L157.4889,5.15828h-12.2377Z" fill="#fff"/>
    </g>
  </g>
</svg>