<?xml version="1.0" encoding="UTF-8"?>
<svg id="Layer_2" data-name="Layer 2" xmlns="http://www.w3.org/2000/svg" viewBox="0 0 410.85052 569.88992">
  <g id="Layer_2-2" data-name="Layer 2">
    <g>
      <path d="M132.42886,9.2837s48.1112,1.0335,54.6031,39.9851,4.4944,56.4298,39.4509,74.9069c34.9566,18.477,75.4063,45.4435,12.4845,108.8646,0,0-18.477,12.9839-4.9938,32.4597,13.4833,19.4758,30.6935,81.91189,26.9272,123.341-1.2554,28.0378,46.4508,36.8258,72.8148,35.5704,26.3639-1.2554,85.369-4.6032,63.6083,62.3528,0,0,21.3422,45.1954-179.10759,69.0485-5.8586,5.8587-17.9944,14.2282-33.8965-22.1792-15.9021-36.4074-71.1408-29.7118-93.7385-74.9071-22.5977-45.1954-.4185-64.8637-23.8531-115.4993-23.4346-50.6355-97.0863-167.39021-30.5487-238.11249C59.19556,40.6693,62.46746,4.322,132.42886,9.2837Z" fill="#fff" stroke="#000" stroke-miterlimit="10" stroke-width=".25"/>
      <path d="M21.03596,267.70719C-1.27664,213.02969-15.07134,148.2414,28.46426,100.44488c2.3196-6.54249,4.43-12.76149,6.4767-18.79058C51.02816,34.2501,62.65296,0,120.41806,0c3.9048,0,8.0846.1531,12.425.4572,19.24249.4874,56.8399,10.9778,62.9036,47.3588.8217,4.9358,1.5097,9.5296,2.1535,13.82688,4.3027,28.74941,6.0842,40.64821,32.7102,54.722,23.5635,12.45411,45.8804,27.33451,49.5976,51.67551,3.2038,20.9776-8.2345,44.2747-34.9695,71.2222l-.5639.5467-.5565.4087c-3.3688,2.4738-10.3944,9.4012-2.8814,20.254,13.9563,20.158,32.4363,84.5356,28.482,128.9397-.1316,3.9339,1.2422,7.2683,4.3134,10.4818,10.3794,10.8527,35.6068,15.7982,54.6551,15.8003,1.6003,0,3.1381-.0366,4.6079-.1057l.633-.03021c4.1679-.20049,9.3538-.44859,14.8621-.44859,26.9237,0,44.7007,6.4552,54.34781,19.7364,8.99249,12.3775,10.12589,29.9119,3.37639,52.13919.6502,3.6859.59961,9.5221-3.2718,16.5142-15.273,27.5891-76.2053,48.0221-181.12219,60.7425-2.8922,2.4458-7.7416,5.6183-14.0727,5.6183-39.3299,1.4548-125.7976-50.3431-153.2616-67.4763-5.4609-3.4067-9.0935-9.0646-9.9186-15.4479-2.4552-18.994-7.0715-59.9682-3.9302-78.531-11.4605-30.8552-17.444-107.3325-19.9013-140.6975Z"/>
      <path d="M52.09686,435.14529s.6365,36.5984,5.4102,54.4202c10.1839,10.8204,63.0128,39.1444,63.0128,39.1444,0,0,3.819-11.4569-16.8671-28.9605-20.686-17.5036-41.372-31.5064-51.5559-64.6041Z" fill="#fff" stroke="#000" stroke-miterlimit="10" stroke-width=".25"/>
      <path d="M183.11486,238.99539s27.3037-.9,47.1062-12.6016c0,0,15.9023-9.6013,26.4036-37.205,10.5014-27.6036-6.9009-41.7056-42.0056-60.6081.4149-4.5645.2544-8.60581-.0374-11.6503,3.4079,2.4311,7.3321,4.8301,11.9013,7.2453,34.9565,18.477,75.4062,45.4435,12.4844,108.8647,0,0-18.4771,12.9838-4.9938,32.4596,13.4833,19.4758,30.6936,81.91189,26.9272,123.341-1.2553,28.0378,46.4509,36.82589,72.8147,35.5704,24.5401-1.1686,77.3255-4.1181,66.967,49.4738-2.4783-3.04631-6.6828-6.8834-12.6402-7.7595,1.8002-24.3032-12.9018-30.3039-23.7032-30.9041-10.8015-.6001-72.3096,6.9009-97.213-18.3025-13.2018,4.8007-14.702,10.2014-14.702,10.2014,0,0-3.3005-14.1019,2.1003-20.7027-11.4015-2.7004-22.5029,13.2017-22.5029,13.2017,0,0,2.4003-20.4027,14.7018-28.5038,2.984-13.0835,1.5781-32.664.0809-43.5619-.5016-3.6505-4.2218-5.9423-7.7047-4.7394-27.9503,9.6532-42.9585,3.575-49.3837-12.9068,0,0,21.0027,22.2029,56.1075.9001-.3001-30.9041-35.4047-66.30881-21.6029-94.5127-21.3028,10.5015-41.1055,2.7004-41.1055,2.7004Z" fill="#fff" stroke="#000" stroke-miterlimit="10" stroke-width=".25"/>
      <path d="M45.45076,208.47799c0-14.6424,4.6856-37.7772,12.0068-59.7408,6.9842-20.9524,3.5583-41.6258-20.1602-46.7911C59.30926,39.4934,63.62996,4.4046,132.42886,9.2837c0,0,48.1111,1.0335,54.6031,39.9851,4.974,29.84408,4.9835,47.0794,20.4301,61.8197,3.1977,9.8188,5.688,24.1653.2259,38.23439-9.6639,24.892-25.7705,61.49791-26.6491,68.23341-2.0498-10.83541,3.2214-24.30641,3.2214-24.30641-11.1283,7.02831-11.714,21.37781-26.0634,24.59921-20.49934-14.93521-74.3831.5857-87.2683,5.5641-12.8853,4.9784-25.4778-.2929-25.4778-14.9352Z" fill="#fff" stroke="#000" stroke-miterlimit="10" stroke-width=".25"/>
      <path d="M184.31986,533.63349c-15.9021-36.4074-71.1409-29.7118-93.7385-74.9071-22.5977-45.1954-.4186-64.8637-23.8532-115.4993-23.1756-50.0756-95.443-164.81-32.6833-235.74349,3.2898.0481,7.5264,1.963,12.5773,8.1619,12.8853,15.8138-14.6422,55.9337-14.6422,55.9337,0,0-2.3429,40.70569,10.2496,79.6544,12.5924,38.9487,46.5626,78.1901,50.6624,108.6461,4.0999,30.45619-3.5141,67.6478,10.5426,85.2185,14.0566,17.5708,23.4278,33.3846,64.7191,44.51269,31.6583,8.5321,44.2001,42.8967,48.3289,58.4666,2.2273,8.3994-6.7612,15.5995-14.2836,11.2493-5.169-2.9891-11.1909-10.3808-17.8791-25.6933Z" fill="#fff" stroke="#000" stroke-miterlimit="10" stroke-width=".25"/>
      <path d="M338.44615,475.61309c47.9715-13.6249,55.9194,3.4063,59.0418,11.922.13429.3661.23829.7518.34709,1.1347,1.3682,8.6651-3.4779,44.8946-170.47889,66.021-3.4104-10.1518-13.496-37.9464-25.4442-50.1245,0,0,88.5627-15.3281,136.5342-28.9532Z" fill="#fff" stroke="#000" stroke-miterlimit="10" stroke-width=".25"/>
      <path d="M289.62306,473.34229s-.2497.1051-.7308.29959c-6.4575,2.61121-54.5998,21.3407-100.0376,18.4348-10.5027-9.9349-28.1017-13.9089-28.1017-13.9089,0,0-14.76043-14.1927-22.14065-16.4636,20.43755,2.2709,70.11215-6.5286,79.76325-10.2187,44.5652-.5677,66.422,16.4636,71.2475,21.8568Z" fill="#fff" stroke="#000" stroke-miterlimit="10" stroke-width=".25"/>
      <path d="M185.44836,337.09188s-67.2736,8.79951-86.008,9.08341c9.0833,16.46359,6.8125,54.2163,6.5286,69.26059-.2838,15.04431,7.948,21.573,42.86212,21.28911,34.91418-.2838,57.33868-13.3412,64.43508-7.9479,3.6901-25.547-21.2891-30.0886-27.8178-91.68521Z" fill="#fff" stroke="#000" stroke-miterlimit="10" stroke-width=".25"/>
      <path d="M184.59676,329.99559s4.2579-53.0809-8.5156-90.8336c-56.2033.28389-121.206,11.6381-121.206,11.6381-.2839,27.25,31.7917,50.81,40.8751,89.982,0,0,81.7502-7.3803,88.8465-10.7865Z" fill="#fff" stroke="#000" stroke-miterlimit="10" stroke-width=".25"/>
      <path d="M78.18906,167.9315c1.4666,0,2.876-.4615,4.0763-1.3361l18.5825-13.5432c2.8555-2.08131,4.5615-5.2992,4.6822-8.8298l1.7233-50.3653c.055-1.58521-.5187-3.083-1.6154-4.2186-1.0989-1.13661-2.6291-1.789-4.1992-1.789-1.2908,0-2.5148.427-3.5414,1.2337-28.3816,22.32869-28.0657,58.218-26.612,72.6121.3591,3.5554,3.3268,6.2362,6.9026,6.2362h.0011Z"/>
      <path d="M103.94316,93.7442l-1.7235,50.3648c-.0852,2.4881-1.3105,4.7987-3.3224,6.265l-18.5826,13.5433c-2.2621,1.64859-5.4526.2292-5.7339-2.5557-1.4043-13.9066-1.7225-48.3648,25.3649-69.6738,1.6463-1.2951,4.0691-.0371,3.9975,2.0564Z" fill="#fff" stroke="#000" stroke-miterlimit="10" stroke-width=".25"/>
      <path d="M96.29596,146.8051c.9199-.6707,1.4699-1.7081,1.5087-2.8469l1.5744-46.0065c-21.2612,19.3805-21.6666,48.3046-20.5333,61.5707l17.4502-12.7173Z"/>
      <path d="M90.84466,141.7543l.9881-28.8907c-8.2774,11.86-10.0331,25.9252-10.0715,35.5097l9.0834-6.619Z" fill="#fff" stroke="#000" stroke-miterlimit="10" stroke-width=".25"/>
      <path d="M171.83186,165.7227c-1.8755,0-3.6779-.445-5.2128-1.2882l-23.76392-13.0581c-3.65174-2.0067-5.83338-5.1092-5.98788-8.5133l-2.2037-48.561c-.0703-1.5284.6633-2.9726,2.0658-4.0674,1.40527-1.0959,3.36215-1.7249,5.37006-1.7249,1.65073,0,3.21596.4117,4.52882,1.1894,36.29542,21.5288,35.89132,56.1323,34.03232,70.01069-.4592,3.42811-4.2544,6.01281-8.8273,6.01281h-.0014Z"/>
      <path d="M138.89674,94.1932l2.20406,48.5605c.10888,2.399,1.67585,4.6268,4.24878,6.0406l23.76408,13.058c2.8928,1.58959,6.9729.221,7.3326-2.4641,1.7959-13.4084,2.2029-46.6321-32.43741-67.1776-2.10534-1.2488-5.20372-.0358-5.11211,1.9826Z" fill="#fff" stroke="#000" stroke-miterlimit="10" stroke-width=".25"/>
      <path d="M148.67614,145.3532c-1.17634-.6467-1.87965-1.6469-1.9293-2.7449l-2.01342-44.3583c27.18944,18.6862,27.70804,46.574,26.25864,59.36489l-22.31592-12.26169Z"/>
      <path d="M150.43068,139.3713l-1.2637-27.8556c10.58548,11.435,12.83068,24.9964,12.87978,34.2374l-11.61608-6.3818Z" fill="#fff" stroke="#000" stroke-miterlimit="10" stroke-width=".25"/>
      <path d="M112.18906,30.9168c-8.194,2.49808-25.1785,11.4182-37.3907,43.1905-.3823.9947-1.874.641-1.7501-.41742,1.7489-14.93708,9.0235-48.81988,38.9469-44.73028,1.0663.1457,1.2233,1.6434.1939,1.9572Z"/>
    </g>
  </g>
</svg>