<?xml version="1.0" encoding="UTF-8"?>
<svg id="Layer_2" data-name="Layer 2" xmlns="http://www.w3.org/2000/svg" viewBox="0 0 415.7953 415.7952">
  <g id="Layer_2-2" data-name="Layer 2">
    <g>
      <circle cx="206.97413" cy="207.33871" r="80.73616" transform="translate(-85.98929 207.08091) rotate(-45)" fill="#050706"/>
      <circle cx="207.89798" cy="207.33877" r="54.55482" transform="translate(-41.65947 362.03853) rotate(-76.71746)" fill="#050706"/>
      <g>
        <path d="M358.051,196.242l-82.9997-3.1823,75.0464-34.8909-8.0068-19.1048-76.6124,28.7103,55.3938-59.8078-14.6468-14.6487-60.938,56.4343,28.3926-77.734-19.1712-7.8464-33.8727,74.4756-3.1234-81.4623h-20.7132l-3.1824,82.9988-34.889-75.0456-19.1048,8.005,28.7084,76.6114-59.8096-55.3891-14.6468,14.6486,56.4373,60.9357-77.7334-28.3921-7.8481,19.1675,74.4829,33.876-81.4697,3.1238v20.7132l82.999,3.1824-75.0457,34.8871,8.0067,19.1049,76.6168-28.712-55.3963,59.8131,14.6468,14.6487,60.9371-56.4373-28.3936,77.7334,19.1713,7.8463,33.8727-74.4729,3.1233,81.4597h20.7133l3.1823-82.997,34.8909,75.0437,19.103-8.005-28.7101-76.6144,59.8113,55.3922,14.6468-14.6487-56.4378-60.9348,77.7338,28.395,7.85-19.1713-74.4769-33.8727,81.4619-3.1234v-20.7132Z"/>
        <path d="M353.141,212.2288v-11.2627l-88.0454-3.376c-.2834-1.6349-.6412-3.2403-1.0567-4.8263l79.7035-37.0557-4.3531-10.3873-82.5317,30.9278c-.7966-1.2561-1.6441-2.4709-2.5306-3.6603l59.7312-64.4941-7.9639-7.9639-64.5872,59.8173c-1.3483-.9737-2.7404-1.8823-4.1708-2.7414l30.1098-82.4323-10.4232-4.2667-36.3443,79.9089c-1.4912-.3525-3.0051-.6333-4.5374-.8697l-3.3532-87.4506h-11.2627l-3.3532,87.4504c-1.7405.2684-3.4533.6073-5.1405,1.0251l-36.7643-79.0768-10.3873,4.3531,30.6009,81.6597c-1.3937.8559-2.7467,1.7633-4.0608,2.7287l-63.7667-59.0574-7.9639,7.9639,59.0564,63.7658c-1.0896,1.4829-2.107,3.0155-3.0567,4.5991l-81.3561-29.7166-4.2667,10.4232,78.8668,35.8702c-.3936,1.6591-.7039,3.3452-.9534,5.0548l-86.3248,3.3098v11.2625l86.4579,3.3152c.3045,1.8892.6965,3.7447,1.1767,5.5698l-78.2359,36.3733,4.3531,10.3873,81.0158-30.3597c.9273,1.4658,1.9191,2.881,2.9684,4.2558l-58.6532,63.3305,7.9639,7.9636,63.5528-58.859c1.5315,1.0843,3.1152,2.0939,4.7497,3.0307l-29.6542,81.185,10.4232,4.2667,35.9353-79.0098c1.6332.3535,3.2988.6108,4.9791.825l3.3204,86.5962h11.2627l3.338-87.053c1.7829-.3214,3.5317-.7299,5.2553-1.2083l36.6648,78.8626,10.3873-4.3534-30.6864-81.8877c1.328-.8671,2.6036-1.8018,3.8549-2.7704l64.0581,59.3271,7.9639-7.9637-59.6199-64.3742c.9704-1.3953,1.8661-2.8423,2.7152-4.3213l82.2611,30.0473,4.2666-10.4232-80.0516-36.4093c.3157-1.4643.537-2.9597.7411-4.462l87.7219-3.3636Z" fill="#fff"/>
        <path d="M207.8974,263.8184c-31.1433,0-56.4797-25.3364-56.4797-56.4797s25.3364-56.4797,56.4797-56.4797,56.4797,25.3365,56.4797,56.4797-25.3365,56.4797-56.4797,56.4797ZM207.8974,154.7089c-29.02,0-52.6298,23.6089-52.6298,52.6298s23.6098,52.6298,52.6298,52.6298,52.6298-23.6089,52.6298-52.6298-23.6098-52.6298-52.6298-52.6298Z"/>
        <path d="M209.5431,65.4673h-4.7727l-3.3354,86.9869,11.4436.0008-3.3355-86.9877ZM263.1655,76.6648l-4.4171-1.8077-36.1475,79.4772,10.6139,4.329,29.9507-81.9985ZM154.5782,75.8581l-4.4024,1.8447,30.4373,81.2247,10.5323-4.4147-36.5672-78.6547ZM262.078,215.1379l.382-2.8062,87.3095-3.3478v-4.7726l-87.53-3.3568-.466-2.6894c-.256-1.4792-.5819-2.9666-.996-4.5471l-.7145-2.7247,79.3157-36.8743-1.8447-4.4023-82.0569,30.75-1.4669-2.3122c-.7161-1.1294-1.4972-2.2579-2.3855-3.4498l-1.6775-2.249c21.7839,62.0776-10.4136,37.2821-18.2673,61.947-7.8537,24.665-37.0374,19.3487-45.6985,7.8719-8.6611-11.4769-24.9729-3.8605-29.714-32.012-4.741-28.1515,24.3457-51.2351,24.3457-51.2351l-2.3691,1.4537c-1.3187.81-2.607,1.6751-3.8269,2.5715l-2.2447,1.6497-63.4296-58.745-3.3741,3.375,58.7433,63.4279-1.6489,2.2439c-1.0157,1.3829-1.9854,2.8424-2.8818,4.3365l-1.4323,2.3888-80.9251-29.5581-1.8076,4.417,78.4374,35.6751-.6404,2.6983c-.3539,1.4948-.6479,3.0531-.8972,4.7636l-.4051,2.7749-85.8846,3.2934v4.7727l85.976,3.2968.4396,2.7263c.2857,1.7722.6585,3.538,1.108,5.2502l.7169,2.7262-77.8497,36.1929,1.8448,4.4022,80.5456-30.1829,1.4652,2.3172c.8445,1.336,1.7862,2.686,2.7987,4.0113l1.7212,2.2554-58.3761,63.032,3.3749,3.3742,63.1793-58.512,2.2325,1.5804c1.4282,1.0117,2.9345,1.9723,4.4771,2.8564l2.4663,1.4134-29.5162,80.8065,4.4171,1.8077,35.7178-78.5313,2.658.5762c1.3574.2938,2.8482.5408,4.6904.7754l2.8333.3606,3.3058,86.2089h4.7728l3.3173-86.5201,2.6678-.4799c1.606-.2898,3.2721-.6726,4.9521-1.1384l2.7535-.7639,36.5015,78.5115,4.4022-1.8456-30.4956-81.3778,2.2603-1.4767c1.1163-.7292,2.305-1.5837,3.6352-2.6144l2.2595-1.7492,63.7736,59.0644,3.375-3.375-59.2561-63.9811,1.546-2.2266c.8544-1.2298,1.6915-2.5633,2.5591-4.0754l1.4134-2.4638,81.8815,29.908,1.8077-4.4172-79.5693-36.1894.5721-2.6547c.2963-1.3764.5095-2.8358.6955-4.2072ZM306.0044,104.8096l-64.232,59.4881s7.7321,6.8558,8.1748,8.058l59.4322-64.172-3.375-3.3741Z"/>
      </g>
      <g>
        <path d="M207.8976,0C93.079,0,0,93.079,0,207.8978s93.079,207.8974,207.8976,207.8974,207.8977-93.0788,207.8977-207.8974S322.7164,0,207.8976,0ZM207.8976,348.4269c-77.612,0-140.529-62.9172-140.529-140.5291s62.917-140.5293,140.529-140.5293,140.5292,62.9171,140.5292,140.5293-62.917,140.5291-140.5292,140.5291Z" fill="#050706"/>
        <g>
          <path d="M207.898,354.6392c-80.913,0-146.7416-65.8285-146.7416-146.7465,0-80.90809,65.8286-146.7366,146.7416-146.7366s146.7416,65.82851,146.7416,146.7366c0,80.918-65.8285,146.7465-146.7416,146.7465ZM207.898,71.1841c-75.3863,0-136.7135,61.3272-136.7135,136.7082,0,75.3917,61.3272,136.7188,136.7135,136.7188s136.7135-61.3271,136.7135-136.7188c0-75.381-61.3271-136.7082-136.7135-136.7082Z" fill="#fff"/>
          <path d="M207.898,348.9202c-77.7596,0-141.0226-63.263-141.0226-141.0273,0-77.7548,63.263-141.0178,141.0226-141.0178s141.0226,63.263,141.0226,141.0178c0,77.7643-63.263,141.0273-141.0226,141.0273ZM207.898,76.5123c-72.4483,0-131.3853,58.937-131.3853,131.3802,0,72.4535,58.937,131.3905,131.3853,131.3905s131.3854-58.937,131.3854-131.3905c0-72.4432-58.937-131.3802-131.3854-131.3802Z"/>
        </g>
        <path d="M149.2386,11.4531c-1.8141.5425-3.618,1.1075-5.4105,1.6986,2.1365,3.4517,4.2206,6.9207,6.2515,10.4061,1.6947-.5397,3.4192-.9832,5.1266-1.4819-1.9338-3.5489-3.9251-7.0965-5.9676-10.6228ZM153.7775,10.1526c1.1347,2.0623,2.2706,4.1242,3.3692,6.1961,1.3206-.4084,2.6755-.6835,4.0198-.9996-1.0548-2.1022-2.1341-4.2005-3.2245-6.2932-1.3944.3502-2.7816.718-4.1645,1.0967ZM172.7799,17.9721c-1.5894-3.7127-3.2377-7.4396-4.9369-11.1413-1.8601.3696-3.7127.7594-5.5543,1.1791,1.8046,3.6467,3.5555,7.3057,5.2517,10.976,1.7241-.4455,3.4919-.6813,5.2395-1.0138ZM131.1524,17.8058c-1.7523.7102-3.4919,1.4446-5.2197,2.2016,2.4483,3.2279,4.8471,6.4797,7.1986,9.762l4.9666-1.9549c-2.2635-3.3564-4.579-6.6929-6.9455-10.0087ZM126.2035,27.4297c-1.4331-1.8682-2.9012-3.7204-4.3682-5.5731-1.2959.6023-2.5854,1.2156-3.8663,1.8441,1.4958,1.8044,2.9925,3.6074,4.458,5.4342l3.7765-1.7052ZM172.4769,5.9629c.9381,2.1679,1.8774,4.3356,2.7787,6.5097,1.3596-.2437,2.716-.5075,4.0912-.6513-.8556-2.21-1.7444-4.3839-2.6321-6.5606-1.4183.2171-2.8293.4562-4.2378.7022ZM14.486,166.766c-2.3572.0485-4.6989.1257-7.0379.2157-.282,1.4082-.5572,2.819-.8101,4.2376,2.3634-.1391,4.7269-.2793,7.0835-.3816.2597-1.3563.4457-2.7277.7645-4.0717ZM219.4351,3.2276c.7239,4.0061,1.393,8.0249,2.0085,12.0206l5.3268.4027c-.5087-4.0042-1.0721-8.0142-1.6896-12.0286-1.8752-.1561-3.7565-.2896-5.6457-.3947ZM234.7721,11.6091c-.2189-2.3482-.4758-4.7017-.7316-7.0548-1.4111-.1802-2.8293-.3373-4.2493-.4885.3018,2.3395.605,4.68.8696,7.0206l4.1113.5227ZM238.5048,5.1789c.0001.0023.0004.0046.0006.0069.3529,4.01.6377,8.1028.8761,12.1364l5.2552.9384c-.1296-4.0464-.314-8.1038-.5525-12.1709-1.8507-.3305-3.7119-.6304-5.5794-.9108ZM186.8,3.9773l-.0006-.0016c-1.8894.1929-3.7691.4175-5.6426.6622,1.4547,3.8061,2.8552,7.6192,4.2005,11.4384l2.6483-.3394c.8858-.0858,1.7752-.138,2.6626-.2092-1.2353-3.8538-2.5265-7.7218-3.8682-11.5504ZM252.9827,14.9696c.0037-2.3567-.0302-4.7222-.0629-7.0874-1.3852-.3113-2.7732-.6153-4.1689-.8984.0837,2.3409.1541,4.6863.1948,7.0529l4.037.9329ZM113.7456,25.8326c-1.6758.8711-3.3361,1.7671-4.9843,2.6828,2.7359,2.9764,5.4281,5.987,8.0896,9.0565l4.7525-2.4319c-2.5698-3.1273-5.1894-6.23-7.8578-9.3074ZM191.4914,3.5533c.7318,2.251,1.4648,4.502,2.1598,6.7558l4.1335-.3133c-.6439-2.2466-1.3257-4.4889-2.0059-6.7315-1.4326.0838-2.8629.1759-4.2874.289ZM200.2627,3.0534c1.0926,3.9261,2.1314,7.854,3.1159,11.7829,1.781-.0256,3.5621-.1362,5.3432-.096-.8755-3.9676-1.8051-7.8975-2.7885-11.8184-1.8966.0179-3.7867.0623-5.6706.1315ZM216.3204,9.9542c-.4358-2.3068-.9092-4.6151-1.3814-6.9233-1.4248-.0482-2.8534-.08-4.2854-.099.5189,2.3065,1.039,4.6133,1.5215,6.9184l4.1453.1039ZM42.8254,98.7645c-2.205-.8159-4.431-1.5999-6.6563-2.3848-.7729,1.1938-1.5303,2.3982-2.2788,3.6089,2.244.7429,4.4825,1.4963,6.6985,2.2651l2.2366-3.4892ZM34.3895,123.59568c-3.9352-.91256-7.8839-1.77022-11.8535-2.57683-.7975,1.70959-1.573,3.43113-2.3242,5.16599,4.0135.70702,8.015,1.46863,11.9698,2.27039l2.2079-4.85955ZM33.3618,114.68669c-2.2682-.6045-4.5543-1.17507-6.8399-1.7467-.6579,1.26166-1.3012,2.5319-1.9334,3.8088,2.3046.52861,4.6039,1.06812,6.8849,1.62643l1.8884-3.68853ZM25.4324,131.424c-2.3105-.3873-4.6358-.7391-6.9606-1.092-.5384,1.323-1.0634,2.6527-1.5747,3.9895,2.3433.3079,4.687.6147,7.0166.9574l1.5187-3.8549ZM43.0067,107.7281c-3.8256-1.273-7.6801-2.4988-11.5623-3.6773-.9543,1.6267-1.8895,3.2655-2.7997,4.9206,3.9247,1.07946,7.8361,2.214,11.7031,3.38676l2.6589-4.63006ZM27.3201,140.2054c-4.0307-.5487-8.0398-1.0306-12.0582-1.4573-.6332,1.7783-1.2413,3.5684-1.8263,5.369,4.0615.3237,8.1085.7007,12.1311,1.1282.5913-1.6775,1.0908-3.3884,1.7534-5.0399ZM20.5619,162.5826c.4059-1.732.7616-3.4771,1.2888-5.1778-4.0741-.1687-8.1194-.2729-12.1627-.3198-.4628,1.8308-.8969,3.6728-1.3099,5.523,4.0737-.0624,8.1353-.0709,12.1838-.0254ZM271.4024,12.9683c-1.3559-.4427-2.7168-.874-4.085-1.2889-.1368,2.3396-.272,4.6788-.4466,7.0147l3.924,1.3298c.2266-2.3439.4165-4.6999.6076-7.0556ZM109.7261,35.8811c-1.6031-1.7254-3.2395-3.4317-4.8748-5.1386-1.2282.7183-2.4506,1.4453-3.6623,2.1882,1.6563,1.6541,3.3051,3.3192,4.9438,5.0149l3.5933-2.0645ZM19.1097,148.8315c-2.331-.1667-4.6734-.2965-7.0152-.4278-.4116,1.3694-.8123,2.7431-1.1958,4.1244,2.3636.0849,4.7276.1687,7.081.2896l1.13-3.9862ZM94.1107,45.8408c-1.7582-1.5679-3.5476-3.1139-5.3361-4.6604-1.1551.8296-2.3047,1.6664-3.4417,2.5193,1.8051,1.4942,3.6047,3.0009,5.3994,4.5422l3.3784-2.4011ZM91.0211,54.2675c-3.1081-2.5918-6.2604-5.1504-9.4555-7.6752-1.4821,1.1665-2.943,2.3582-4.3917,3.5644,3.2422,2.4167,6.4523,4.8799,9.6475,7.4108l4.1997-3.3ZM105.8658,43.9853c-2.8521-2.8716-5.7513-5.7142-8.6966-8.5271-1.5852,1.0235-3.1523,2.0722-4.7071,3.1379,2.9988,2.703,5.9601,5.4478,8.9077,8.2703l4.496-2.8811ZM49.9896,97.0932l3.0935-4.3534c-3.6939-1.6271-7.4209-3.2101-11.1798-4.7488-1.102,1.53-2.1878,3.0723-3.2481,4.6335.0019.0008.0039.0014.0039.0014,3.8091,1.4447,7.5856,2.9338,11.3305,4.4673ZM79.4914,57.2164c-1.8975-1.3973-3.8238-2.7696-5.7493-4.1428-1.0725.9336-2.1375,1.8754-3.1902,2.8308,1.9407,1.3237,3.8766,2.6598,5.8059,4.0254l3.1336-2.7134ZM53.7358,83.7944c-2.122-1.0198-4.2678-2.0099-6.4129-3.0007-.8805,1.1158-1.7455,2.2444-2.6031,3.3789,2.1596.9461,4.3145,1.9036,6.4548,2.8808l2.5612-3.259ZM61.0177,82.7921l3.4963-4.0382c-3.5295-1.9665-7.0961-3.8921-10.6985-5.7768-1.2394,1.4201-2.4652,2.8526-3.6656,4.3069l.0002.0001c3.6574,1.7944,7.2802,3.6306,10.8676,5.508ZM135.5542,16.0817c1.321,1.9404,2.6434,3.8802,3.9295,5.8335,1.2909-.4901,2.6122-.8968,3.9166-1.35-1.2477-1.989-2.522-3.9782-3.8078-5.9631-1.3527.4794-2.6988.9727-4.0383,1.4796ZM398.0592,176.6648c3.7505-1.5049,7.4925-3.065,11.2251-4.6792-.3245-1.8611-.6689-3.7151-1.0434-5.5586l-.0034.0017c-3.6955,1.7142-7.4019,3.3746-11.1181,4.9811l.9398,5.255ZM403.9976,183.3834c2.217-.8049,4.4293-1.6479,6.6418-2.4898-.183-1.4164-.3809-2.8282-.5927-4.2354-2.1877.8827-4.3776,1.7673-6.5709,2.6138l.5218,4.1114ZM405.3551,201.8592c2.2803-.5943,4.5595-1.2262,6.8386-1.857-.0504-1.4295-.1107-2.8563-.1903-4.2782-2.2442.6747-4.4862,1.3506-6.7514,1.9898l.1031,4.1454ZM400.0505,194.6138c3.883-1.1498,7.7627-2.3547,11.6381-3.6137-.1491-1.8848-.3274-3.7611-.5272-5.6311-3.8057,1.3574-7.6324,2.6622-11.515,3.9181l.4041,5.3267ZM280.9788,16.3622c-1.7614-.6744-3.5345-1.3246-5.3189-1.9513-.4119,4.0313-.8763,8.0456-1.395,12.0468l4.9642,1.9607c.6348-3.9981,1.218-8.0173,1.7497-12.0562ZM389.0482,141.7484c3.4171-2.1851,6.7869-4.412,10.1309-6.688-.6691-1.7698-1.362-3.5277-2.0784-5.2737-3.3074,2.3802-6.6413,4.7118-9.9815,6.9859.6378,1.6605,1.3398,3.2976,1.929,4.9758ZM396.156,147.2277c2.0147-1.2004,4.0177-2.4375,6.0209-3.6733-.446-1.3594-.9066-2.712-1.3802-4.0587-1.9866,1.2807-3.9733,2.5631-5.9696,3.8077l1.3289,3.9243ZM394.3962,158.9881c3.5823-1.8474,7.151-3.7487,10.7052-5.7031-.4987-1.8236-1.0195-3.6377-1.567-5.4406-3.5185,2.0567-7.0663,4.0648-10.5992,6.0104l1.461,5.1333ZM65.994,69.9049c-2.02-1.2146-4.0663-2.4018-6.112-3.5897-.9834,1.0319-1.952,2.0778-2.9139,3.1301,2.063,1.1446,4.1271,2.2881,6.1653,3.4595l2.8606-2.9999ZM153.5742,404.4688c1.3697.3767,2.7432.7436,4.1243,1.0923.0263-2.3408.0655-4.6833.1336-7.0383l-3.9852-1.1333c-.1153,2.3529-.1934,4.7163-.2727,7.0793ZM356.0923,337.9695c2.0734,1.1185,4.1719,2.2084,6.2697,3.299.9344-1.0768,1.8532-2.1672,2.7653-3.2635-2.1145-1.0472-4.23-2.0933-6.3209-3.1684l-2.7141,3.1329ZM262.7742,10.3572c-1.8142-.5044-3.6396-.9811-5.4738-1.4362-.0279,4.0397-.1119,8.0765-.261,12.1446l5.1335,1.4596c.2539-4.0404.4541-8.0968.6013-12.168ZM71.411,343.2425l-1.8414-1.9348c-2.2161,3.3863-4.3948,6.8119-6.5352,10.2759-.001.0015-.0019.003-.0019.003,1.335,1.3431,2.6886,2.6669,4.0612,3.9712,2.0398-3.5245,4.1192-7.0116,6.2377-10.4598-.6382-.6204-1.3046-1.2127-1.9204-1.8555ZM10.3973,203.5494c-2.2985.4875-4.6063,1.0126-6.9123,1.5364-.0081.7512-.0285,1.4993-.0285,2.2524,0,.6801.0192,1.3556.0258,2.0342,2.2755-.5709,4.5509-1.1431,6.8265-1.6778-.001-1.3817.0616-2.7635.0885-4.1452ZM73.3314,69.5784l3.8658-3.6864c-3.3341-2.2889-6.709-4.5408-10.1232-6.7551-1.3665,1.2989-2.714,2.6173-4.0442,3.9532,0,0,.003.0018.0046.0027,3.4464,2.0992,6.9052,4.2874,10.297,6.4856ZM389.7157,129.864c1.8876-1.38206,3.7601-2.79952,5.6331-4.21568-.5727-1.31226-1.1571-2.61804-1.7563-3.9158-1.8568,1.46309-3.713,2.9273-5.5852,4.35646l1.7084,3.77502ZM400.9284,165.1201c2.1259-1.0076,4.2436-2.0529,6.3614-3.097-.3145-1.3898-.6477-2.7722-.9904-4.151-2.1012,1.0872-4.2057,2.1628-6.303,3.2108l.932,4.0372ZM322.8566,38.2658c-1.1828-.8057-2.3767-1.596-3.5771-2.3774-.789,2.2202-1.577,4.4412-2.3969,6.641,1.1782.7231,2.3049,1.5226,3.4251,2.3317.8701-2.1843,1.7089-4.3902,2.5489-6.5953ZM326.0691,55.2862c1.7168-3.6561,3.4037-7.3632,5.0387-11.0917-1.509-1.1415-3.0303-2.2673-4.5715-3.3674-1.5262,3.7721-3.097,7.5125-4.712,11.2199,1.4769.9965,2.8347,2.1531,4.2448,3.2392ZM339.7899,67.0299c2.058-3.4892,4.0799-7.0196,6.0507-10.5746-1.3966-1.2776-2.8073-2.5399-4.2391-3.7788-1.8732,3.6159-3.7874,7.196-5.7428,10.7392,1.3717,1.1372,2.6445,2.3834,3.9312,3.6142ZM335.0268,56.1093c1.0682-2.0912,2.1226-4.2043,3.1622-6.3182-1.1064-.9161-2.2261-1.8166-3.352-2.7096-.9945,2.1397-1.988,4.28-3.0113,6.3965l1.6303,1.2796,1.5708,1.3517ZM315.2952,33.3608c-1.6078-.9947-3.228-1.9711-4.8651-2.9221-1.1649,3.8943-2.3771,7.7611-3.6367,11.599,1.5563.8649,3.0108,1.8983,4.5224,2.8371,1.3651-3.7962,2.6984-7.6455,3.9794-11.514ZM289.3359,19.777c-1.3138-.5713-2.6348-1.1286-3.9628-1.6729-.3579,2.3205-.7145,4.6415-1.1068,6.9476,1.281.5157,2.5226,1.1248,3.7862,1.6819.4442-2.3046.8694-4.6283,1.2834-6.9566ZM298.5372,24.054c-1.6923-.8385-3.3966-1.6559-5.1151-2.4485-.7922,3.9814-1.6344,7.9398-2.5266,11.8739,1.6072.7623,3.1726,1.6121,4.762,2.4117,1.0058-3.9141,1.9685-7.8659,2.8797-11.8371ZM306.5365,28.2373c-1.2557-.693-2.5206-1.371-3.7923-2.0382-.5762,2.2808-1.1513,4.5622-1.7602,6.8256,1.2452.6004,2.4164,1.3377,3.6206,2.0139.6602-2.254,1.3018-4.5256,1.9319-6.8013ZM373.608,109.1568c2.9644-2.7965,5.8664-5.6192,8.7264-8.4803-.9891-1.6142-2.0038-3.2107-3.0361-4.7949-2.8013,2.9568-5.6323,5.8677-8.4926,8.7317.9592,1.4993,1.9495,2.9799,2.8023,4.5435ZM372.0588,97.3415c1.6071-1.7167,3.188-3.4454,4.759-5.1819-.811-1.1871-1.63-2.3682-2.4653-3.5371-1.5512,1.7854-3.1017,3.5716-4.6742,5.3267.7904,1.1328,1.6255,2.2356,2.3805,3.3923ZM380.9385,122.68623l.6081,1.18808.5481,1.2167,4.7771-3.78128,4.6813-3.82653c.0045-.00361.0087-.00741.0132-.01102-.8332-1.69957-1.6913-3.38439-2.5698-5.057-3.0668,2.68091-6.1592,5.31328-9.2763,7.89603l1.2183,2.37502ZM348.6356,68.6812c1.2705-1.9952,2.5082-3.9924,3.7329-5.9934-1.0167-1.0156-2.0467-2.0178-3.0846-3.0119-1.1911,2.0402-2.3815,4.0812-3.5992,6.0956.9978.9557,2.0187,1.8884,2.9509,2.9097ZM381.6643,113.18239c1.7467-1.55142,3.4741-3.13595,5.2022-4.71929-.6939-1.2532-1.3973-2.5003-2.1166-3.7373-1.7112,1.6318-3.4219,3.2646-5.1516,4.86423l2.066,3.59236ZM362.111,91.9125c.534.7119,1.0351,1.4482,1.5547,2.1708,2.6654-3.0426,5.3173-6.1429,7.9034-9.262,0,0,.0013-.0016.0019-.0024-1.136-1.5151-2.2977-3.0096-3.4743-4.4917-2.5122,3.2054-5.0583,6.3682-7.6378,9.4871l1.6521,2.0982ZM350.6124,77.9798l1.7467,2.0204c2.3724-3.28,4.7091-6.6009,7.0094-9.9621l.001-.0015c-1.2716-1.4033-2.5654-2.7856-3.8756-4.1523-2.2021,3.4255-4.442,6.8118-6.7191,10.1576.6114.647,1.2373,1.2808,1.8376,1.9379ZM361.016,82.4651c1.4506-1.8675,2.8647-3.7368,4.266-5.6108-.9186-1.1067-1.8442-2.2074-2.7854-3.2942-1.378,1.9228-2.7552,3.8464-4.1571,5.741.8873,1.0587,1.8497,2.0555,2.6765,3.164ZM331.8215,354.7581c3.2251,2.4432,6.4928,4.8511,9.8017,7.2235,1.4258-1.2341,2.8305-2.4918,4.2215-3.7643-3.3534-2.2652-6.6777-4.5792-9.986-6.9567l-4.0372,3.4975ZM302.1639,375.2989c2.7142,3.0026,5.4768,5.9782,8.2869,8.9265,1.6322-.9483,3.2476-1.922,4.8507-2.9138-2.8703-2.842-5.6999-5.7222-8.5081-8.6729l-4.6295,2.6602ZM297.9296,383.2148c1.5199,1.7987,3.074,3.5799,4.6269,5.3616,1.2656-.6624,2.525-1.3347,3.7748-2.0226-1.5788-1.7321-3.158-3.4617-4.7127-5.2266l-3.689,1.8876ZM286.0305,383.3937c2.4195,3.2453,4.89,6.4684,7.4104,9.6684,1.7159-.7916,3.4176-1.6078,5.1073-2.4452-2.5952-3.1051-5.1436-6.2396-7.6527-9.4199l-4.865,2.1967ZM281.0742,390.8816c1.3417,1.9309,2.7212,3.8518,4.099,5.7723,1.3235-.5408,2.6404-1.0938,3.9499-1.6614-1.4096-1.8736-2.8206-3.7466-4.1961-5.6347l-3.8528,1.5238ZM329.1268,363.3186c1.8299,1.4841,3.6899,2.9448,5.5489,4.4062,1.1152-.8827,2.225-1.7717,3.3211-2.6769-1.8754-1.411-3.7457-2.8344-5.6104-4.2898l-3.2596,2.5605ZM313.9933,373.9985c1.6826,1.6484,3.3975,3.2763,5.1112,4.9047,1.1928-.7747,2.3798-1.5573,3.5552-2.3561-1.7312-1.5742-3.4564-3.1609-5.1767-4.7844l-3.4897,2.2358ZM17.555,177.6712l.4719-2.6272c-4.0423.2199-8.0942.4938-12.1544.8219l-.0045.0004c-.2886,1.8675-.5534,3.7428-.791,5.6267,4.0498-.4464,8.0928-.8384,12.1276-1.1754.1191-.8818.2056-1.7687.3504-2.6464ZM317.4716,365.7239c2.9835,2.7346,6.0128,5.438,9.0864,8.1096,1.5353-1.0962,3.0509-2.2178,4.5542-3.355-3.1239-2.5627-6.213-5.1696-9.2879-7.8491l-4.3527,3.0945ZM251.851,394.8589c1.7621,3.6308,3.5845,7.2744,5.4577,10.8945,1.8392-.4565,3.6696-.9346,5.4887-1.4405-1.9728-3.5529-3.8925-7.1206-5.758-10.7021-1.7071.5028-3.4609.8246-5.1884,1.2481ZM216.1118,399.7483c1.0579,3.9409,2.167,7.8298,3.3293,11.7002,1.895-.1055,3.7821-.2397,5.6629-.3964-1.2745-3.8705-2.4949-7.7455-3.6604-11.6239-1.7763.1215-3.5481.3201-5.3318.3201ZM208.7427,404.9143c.5407,2.2777,1.1191,4.5553,1.6962,6.8328,1.4339-.0175,2.8646-.0468,4.2911-.0936-.6258-2.2815-1.2527-4.563-1.842-6.8455l-4.1453.1063ZM227.252,403.9803c.7493,2.2389,1.5206,4.4517,2.3033,6.6573,1.4327-.1509,2.8631-.3098,4.2868-.4901-.8368-2.2144-1.6745-4.4287-2.4743-6.6477-1.3725.1547-2.736.3942-4.1158.4805ZM247.6205,400.9408l-2.0399.3629c.9538,2.1495,1.9454,4.2915,2.9353,6.434,1.4065-.2836,2.8055-.5872,4.2014-.8994-1.0376-2.1172-2.0763-4.2342-3.0774-6.3593l-2.0194.4618ZM343.2003,351.2731c1.9609,1.3073,3.9494,2.5885,5.9371,3.8704,1.0275-.9821,2.0439-1.9757,3.0508-2.9788-2.0054-1.2374-4.0074-2.4881-5.9874-3.7516l-3.0005,2.86ZM263.5735,396.9283c1.1509,2.0427,2.3297,4.0909,3.52,6.1353,1.375-.4153,2.7431-.8462,4.1058-1.2895-1.2293-2.0033-2.4599-4.0062-3.6537-6.0208-1.3004.4675-2.6498.7777-3.9721,1.175ZM236.7502,397.8004l-2.649.3341c1.414,3.7927,2.8821,7.5785,4.4042,11.3561.0009.0022.0017.0043.0017.0043,1.8779-.2797,3.7483-.5817,5.6082-.9142-1.6324-3.7328-3.2107-7.4752-4.7338-11.2265-.8777.1454-1.7473.341-2.6313.4462ZM379.7202,294.3652l-2.4307,4.7532c3.8787,1.091,7.7841,2.1336,11.7149,3.1276.877-1.6701,1.7338-3.3522,2.5655-5.0492l-.0168-.0037c-3.9687-.8935-7.9134-1.8364-11.8329-2.8279ZM402.975,238.798c2.3616-.1582,4.7027-.3446,7.0387-.5439.2151-1.4185.4117-2.843.5976-4.2708-2.3503.2499-4.7007.5009-7.046.714-.1815,1.3692-.3151,2.746-.5903,4.1007ZM348.7748,338.6345l-3.6853,3.8667c3.4356,2.13,6.9101,4.2208,10.4223,6.2726,1.3043-1.361,2.5924-2.7376,3.859-4.1342l-.0023-.0013c-3.5554-1.9499-7.1003-3.9636-10.5937-6.0038ZM399.216,256.9341c2.3415.058,4.6846.0767,7.0281.097.3466-1.3879.6842-2.7792,1.0023-4.1781-2.3661.0272-4.7324.0554-7.0899.0461l-.9405,4.035ZM391.4133,265.9357c4.0661.3625,8.093.6549,12.1228.8906.5487-1.8069,1.0705-3.6253,1.5701-5.453-4.0719-.1306-8.1294-.3144-12.171-.5517-.5131,1.7028-.9059,3.4432-1.5219,5.1141ZM412.3028,204.4961c-3.9281,1.0013-7.8568,1.9488-11.7852,2.8421l-.1389,5.3432c3.9733-.7854,7.9485-1.6252,11.9243-2.5187.0128-.9413.0358-1.8802.0358-2.8245,0-.9502-.0231-1.895-.036-2.8421ZM393.729,274.6231c2.3234.2773,4.6601.5183,6.9962.7605.4756-1.3476.9388-2.7008,1.3867-4.0612-2.356-.1967-4.7124-.3923-7.0565-.6244l-1.3264,3.9251ZM405.0182,220.3865c2.3191-.3796,4.6462-.7971,6.9712-1.2131.0814-1.425.1442-2.8546.1963-4.2873-2.3059.4662-4.6119.9336-6.9162,1.3635-.0005,1.3837-.1596,2.7584-.2513,4.1369ZM399.0553,230.6956c4.0204-.4111,8.0683-.8748,12.1068-1.3941.2005-1.8776.3796-3.7614.529-5.6538-4.0195.635-8.0348,1.2157-12.0447,1.7416-.0896,1.7805-.3822,3.5388-.5911,5.3063ZM396.6528,245.8947c-.1723.8726-.3945,1.7348-.5887,2.6028,4.0445-.0299,8.1286-.1078,12.1734-.2498l.0025-.0001c.3774-1.8515.723-3.7137,1.0486-5.5829-4.0663.255-8.1231.4558-12.1692.6019l-.4666,2.6281ZM367.6896,323.5241c2.1659.9189,4.3542,1.807,6.5418,2.6959.8278-1.1561,1.6399-2.3238,2.4439-3.4976-2.2041-.8455-4.4031-1.7021-6.5838-2.5761l-2.4019,3.3778ZM385.1368,282.8587c3.9863.7318,7.9697,1.4025,11.9684,2.0198.7162-1.7458,1.409-3.5034,2.0779-5.2732-4.0421-.5161-8.0712-1.0859-12.0639-1.7015-.6655,1.6496-1.2749,3.3229-1.9824,4.9549ZM367.9257,314.5599c3.764,1.4517,7.5589,2.8576,11.3837,4.2179,1.0294-1.5802,2.0414-3.1726,3.028-4.7826-3.8662-1.2602-7.7174-2.5754-11.5317-3.9321l-2.88,4.4968ZM360.4589,324.8621l-3.299,4.2006c3.6157,1.7987,7.2665,3.555,10.9512,5.2685,1.172-1.4766,2.3291-2.9655,3.4608-4.4749l-.0019-.0007c-3.7373-1.6215-7.441-3.2861-11.1111-4.9935ZM386.5949,291.7141c2.292.4965,4.6004.9582,6.9083,1.421.5999-1.2956,1.1856-2.599,1.759-3.9092-2.326-.4187-4.6534-.8366-6.9612-1.2879l-1.7061,3.7761ZM198.0352,399.7087c.6945,3.9689,1.4431,7.9409,2.2457,11.9149,1.8814.069,3.7688.1132,5.6628.131-.9089-3.9736-1.764-7.9553-2.5651-11.9145l-5.3434-.1314ZM377.8884,308.0614c2.239.7111,4.4977,1.3891,6.7557,2.0682.7162-1.229,1.4173-2.4676,2.1086-3.7127-2.2777-.637-4.5496-1.2847-6.7991-1.9484l-2.0652,3.5929ZM269.2108,389.933c2.1015,3.4583,4.2571,6.9026,6.4642,10.3272,1.785-.6272,3.5589-1.2777,5.3209-1.9525-2.2954-3.3436-4.5394-6.7069-6.731-10.089l-5.0541,1.7143ZM30.0279,281.3382c-3.3242,2.3496-6.5843,4.732-9.8129,7.1608.7522,1.7369,1.5287,3.4605,2.3273,5.172,3.1905-2.5336,6.4066-5.0185,9.6393-7.4498-.7109-1.6306-1.5178-3.2208-2.1537-4.883ZM29.9078,293.248c-1.8184,1.4681-3.6201,2.9709-5.4223,4.4723.634,1.2843,1.2787,2.562,1.9387,3.8309,1.7859-1.5494,3.5713-3.0996,5.3742-4.6158l-1.8906-3.6874ZM22.6541,276.2063c-1.9531,1.2927-3.8927,2.6216-5.8328,3.9491.51,1.3374,1.033,2.6682,1.57,3.9919,1.9235-1.3735,3.8466-2.7481,5.7839-4.0869l-1.5211-3.8541ZM23.8653,264.3728c-3.4997,2.0166-6.9722,4.0828-10.4251,6.2007.5846,1.7987,1.192,3.5868,1.8247,5.3633,3.4171-2.2212,6.862-4.3939,10.3018-6.5057l-1.7014-5.0583ZM17.0418,258.5588c-2.0724,1.1053-4.1347,2.2477-6.1973,3.389.3811,1.3783.7788,2.7495,1.1879,4.116,2.0458-1.1853,4.0931-2.3724,6.1418-3.5196l-1.1324-3.9854ZM48.4402,315.4083c-.5189-.7233-.9696-1.4924-1.4582-2.2361-2.8015,2.9121-5.6108,5.8954-8.321,8.8775l-.0027.0032c1.0624,1.5679,2.1519,3.1151,3.2577,4.65,2.6595-3.0846,5.351-6.1248,8.0736-9.1197l-1.5494-2.1749ZM37.7568,297.6516c-3.0953,2.6555-6.122,5.3364-9.1094,8.0582.9123,1.6589,1.85,3.3016,2.8067,4.932,2.9371-2.8221,5.9019-5.597,8.8937-8.3236-.8745-1.5496-1.8182-3.062-2.591-4.6666ZM38.7483,309.5267c-1.6799,1.6365-3.3302,3.2997-4.9821,4.9622.7519,1.2195,1.5126,2.4328,2.2893,3.6351,1.6329-1.7105,3.2653-3.4221,4.9181-5.1014-.7398-1.1664-1.5051-2.3175-2.2253-3.4959ZM10.9056,222.0718c-2.2513.7-4.4998,1.4379-6.7483,2.1748.1162,1.4192.2386,2.8367.3836,4.2475,2.2114-.7776,4.4308-1.5442,6.6779-2.2888l-.3132-4.1335ZM15.8703,192.9707c-3.9934.5994-8.0138,1.2522-12.0282,1.9596-.1127,1.8827-.2018,3.7715-.2632,5.6675,3.9784-.8199,7.9549-1.5861,11.9286-2.2978.0436-1.7812.2487-3.5525.3628-5.3293ZM11.3214,187.1152l.2627-2.0555c-2.3356.2703-4.6768.5786-7.0161.8855-.1478,1.4213-.2739,2.8488-.3924,4.2785,2.3309-.3591,4.6619-.7194,6.9895-1.0418l.1563-2.0667ZM19.3592,246.8935c-3.6701,1.6779-7.3292,3.4104-10.9763,5.1967.412,1.8448.845,3.6813,1.3064,5.5068,3.6048-1.8862,7.2386-3.7232,10.8726-5.5032l-1.2027-5.2003ZM15.3747,211.0331c-3.9326.9688-7.8646,1.992-11.7949,3.0691.0615,1.8914.1504,3.7757.263,5.6538,3.8656-1.1797,7.7436-2.3056,11.6647-3.3796l-.1328-5.3433ZM49.0842,324.9018c-1.5308,1.794-3.0299,3.595-4.5176,5.4023.8658,1.1481,1.7389,2.2903,2.6282,3.4195,1.4661-1.8563,2.9316-3.7133,4.4205-5.5403-.8397-1.0968-1.7404-2.1481-2.5311-3.2815ZM13.1182,240.461c-2.1753.9078-4.3441,1.8535-6.513,2.7982.2493,1.4068.5203,2.8061.7983,4.2028,2.1442-.9852,4.2894-1.9722,6.443-2.9217l-.7283-4.0793ZM16.5313,229.0616c-3.8231,1.3292-7.6404,2.7138-11.4508,4.1526.2367,1.8742.5008,3.7399.7879,5.598.0014-.0006.0027-.0012.0027-.0012,3.7424-1.534,7.5505-3.0227,11.3335-4.4522l-.6733-5.2972ZM82.7291,353.6784c-1.8894,3.5768-3.7459,7.1994-5.5509,10.845,1.4544,1.2109,2.9211,2.4075,4.4094,3.5784,1.7018-3.6985,3.4464-7.3633,5.2338-10.993-1.4259-1.0683-2.7421-2.27-4.0923-3.4304ZM135.3519,398.5177c1.3343.5067,2.6747,1.0004,4.0222,1.4797.2475-2.3321.4936-4.6647.7759-6.9841l-3.8573-1.512c-.3359,2.3263-.6379,4.6721-.9408,7.0164ZM143.8478,401.5312c1.79.59,3.5914,1.1541,5.4028,1.6956.2199-4.0405.4942-8.0706.829-12.1082l-5.0547-1.713c-.4448,4.0237-.8372,8.066-1.1771,12.1256ZM125.9467,394.6751c1.7288.7574,3.4695,1.492,5.2229,2.2026.6029-4.0114,1.2568-8.002,1.9617-11.9707l-4.8668-2.1919c-.8218,3.9612-1.5954,7.9507-2.3178,11.96ZM117.7596,390.8716c1.2862.6329,2.5806,1.2512,3.8818,1.8576.4676-2.3033.934-4.6072,1.4352-6.8947-1.2691-.5469-2.469-1.2381-3.7072-1.8494-.5513,2.2785-1.0861,4.58-1.6098,6.8865ZM185.3573,398.6001l-5.2974-.672c.3201,4.0302.6951,8.0687,1.1244,12.1142,1.8648.2434,3.7359.4665,5.616.6593l-.0003-.0025c-.5352-4.039-1.0161-8.0724-1.4427-12.099ZM171.878,401.6001c.1078,2.3555.2535,4.718.3981,7.0802,1.3976.2456,2.799.4799,4.2062.6969-.1917-2.348-.37-4.7047-.5252-7.0479l-4.0791-.7292ZM162.3399,394.4893c-.0622,4.0478-.0701,8.1093-.0242,12.183,1.8346.4178,3.68.8064,5.533,1.1744-.1623-4.0358-.2676-8.0755-.3083-12.1562l-5.2005-1.2012ZM190.2287,404.1075c.3283,2.3304.6945,4.664,1.0596,6.9975,1.4147.1138,2.835.2075,4.2578.2923-.4107-2.3303-.8094-4.6602-1.184-6.9757l-4.1334-.3141ZM70.3656,358.6037c1.0626.9667,2.1396,1.9179,3.2225,2.8624,1.094-2.0922,2.1872-4.1852,3.3088-6.253-1.0487-.8999-2.0978-1.7993-3.0792-2.7733-1.1753,2.0514-2.3202,4.1059-3.4521,6.1639ZM59.2669,329.8674l-1.6484-2.1011c-2.5235,3.1662-5.0141,6.3758-7.4684,9.626l-.0001.0002c1.2055,1.4606,2.4367,2.8989,3.6816,4.325,2.3597-3.3192,4.7552-6.5973,7.1861-9.8332l-1.7508-2.0169ZM60.8089,339.2474c-1.3625,1.934-2.6899,3.869-4.0041,5.8083.9688,1.0622,1.9478,2.115,2.9386,3.1566,1.2858-1.9837,2.5709-3.9682,3.8821-5.9249-.944-1.0086-1.9359-1.9737-2.8166-3.04ZM87.9969,364.3633c-.971,2.1407-1.9121,4.3049-2.8541,6.4677,1.1443.8605,2.3007,1.7054,3.4635,2.5423.8927-2.1824,1.7845-4.3654,2.7072-6.526l-1.6878-1.2025-1.6288-1.2815ZM108.7697,386.1657c1.652.9177,3.3161,1.8157,4.9957,2.6885.9797-3.9423,2.0083-7.8593,3.0855-11.7498-1.5831-.8127-3.095-1.757-4.6471-2.627-1.1871,3.8591-2.3366,7.7642-3.4341,11.6883ZM100.9756,381.6125c1.2224.7515,2.455,1.4877,3.6942,2.2141.6834-2.2531,1.3658-4.5068,2.081-6.741-1.213-.6628-2.3627-1.4304-3.5265-2.1748-.7675,2.224-1.514,4.461-2.2487,6.7017ZM96.9816,364.7686c-1.5406,3.7269-3.054,7.511-4.5149,11.3149,1.5603,1.0693,3.1328,2.1219,4.7238,3.1487,1.3472-3.8376,2.7403-7.6454,4.1793-11.4222-1.5245-.922-2.9219-2.0331-4.3882-3.0414Z" fill="#fff"/>
        <circle cx="206.97413" cy="207.33872" r="28.31018" transform="translate(-42.37093 361.13949) rotate(-76.71749)" fill="#050706"/>
        <circle cx="206.97413" cy="207.33872" r="23.60558" transform="translate(-42.37092 361.13951) rotate(-76.7175)" fill="#fff"/>
        <path d="M218.8203,199.5325c-4.156-3.7109-12.4342,3.1652-4.2482,6.6579,8.186,3.4927,2.7286,17.3543-1.3098,9.9323-4.0384-7.4219-15.4987,6.4397-19.428-10.2597-2.7014-11.4813,7.4952-16.4619,14.1314-18.4534-.3306-.0164-.6567-.0503-.9913-.0503-11.0164,0-19.9792,8.9628-19.9792,19.9798,0,11.0158,8.9628,19.9786,19.9792,19.9786s19.9785-8.9628,19.9785-19.9786c0-3.4548-.8826-6.7065-2.4321-9.5442.0679,3.3112-2.5288,4.5698-5.7005,1.7376Z" fill="#050706"/>
      </g>
      <g>
        <path d="M59.6295,130.4499l-.7254-7.34577,12.3129-19.73263c.1541-.2471.3833-.5194.6889-.8185.3043-.2979.6394-.538,1.0041-.7204.3647-.1816.7312-.2824,1.1004-.3036.3692-.0199.7011.1149.9964.4038l4.3996,4.2507c.3397.3448.5489.7922.6279,1.3431.079.5508.0873,1.0978.0263,1.6403-.0616.54312-.1553,1.03233-.2824,1.46825-.1265.43592-.2196.70171-.2793.79608l.1322.04302,6.8611-.7107-6.4765,10.3799-6.6402.92706,3.7936,3.63502-6.2281,9.98057-9.1055-8.77232-2.206,3.53612ZM69.4894,118.45731l2.3485-3.76406-1.3836-1.33858-2.3484,3.76407,1.3835,1.33857Z" fill="#fff"/>
        <path d="M83.1378,96.6382l-2.3068,2.3979.8083-7.3375,11.8841-12.3534,15.4685,8.2581-8.2254,8.5508-2.351-1.0959-4.5672,4.7476.2773,3.2511-8.1791,8.50273-2.8087-14.92143ZM94.8556,92.8927l-3.1734-1.8399.9367,4.1653,2.2367-2.3254Z" fill="#fff"/>
        <path d="M113.7099,69.5168l2.9924,7.0158,12.3817-8.687,1.9652,4.616-18.3523,12.8754c-.4218.296-.8655.5322-1.3303.7075-.4654.1766-.9219.2568-1.37.2427s-.8609-.1348-1.2391-.3621c-.3787-.2273-.6895-.6112-.9322-1.153l-4.4555-10.5051c-.145-.3634-.1399-.7846.0167-1.2641.1567-.4796.3756-.947.6568-1.4048.2812-.4571.5823-.8673.9033-1.2294.321-.3614.5817-.6131.7839-.755l20.0035-14.0342-3.6318,8.0495-8.3923,5.8878Z" fill="#fff"/>
        <path d="M142.1834,48.2164l4.3804,16.6863-10.4756,5.2785-3.2247-12.2256-3.7217,1.8753,3.1959-6.6537,9.8457-4.9608Z" fill="#fff"/>
        <path d="M145.0204,46.8431l15.516-4.8888,5.7369,2.1038-.3512-3.8006,11.0919-3.4944,1.6403,17.1735-11.0925,3.4945-.3229-3.5985-4.9056-2.2598-.3845.1213.7087,7.2823-11.2523,3.5457-1.284-13.0223-5.1008-2.6567Z" fill="#fff"/>
        <path d="M202.9413,39.1186l-10.1976,1.0439-.4879,4.4754,3.7737-3.393,13.3087-1.3623-.8256,7.7881c-.0565.5463-.2529,1.0452-.5893,1.4959-.3377.4519-.7306.841-1.1813,1.1684-.4507.3281-.9373.5862-1.4587.7743-.5213.1887-1.004.3056-1.4509.3511l-19.6928,2.0159c-.5136.0527-1.0156.0424-1.5074-.0314-.4918-.0732-.9296-.226-1.3135-.4571-.384-.2305-.687-.538-.9053-.9207-.2195-.3832-.3036-.8699-.251-1.4612l1.2371-11.3435c.0501-.3878.262-.7531.6318-1.0953.3711-.3422.7896-.6439,1.2583-.9058.4687-.262.9322-.4726,1.3893-.6324.4558-.1586.8064-.251,1.0529-.2767l24.3075-2.4878-7.098,5.2542ZM191.931,47.7458l6.0194-.6157.1168-1.1607-6.0181.6157-.1181,1.1607Z" fill="#fff"/>
        <path d="M245.0965,37.9578l-5.8846,16.2177-11.6177-1.6147,4.2989-11.8905-4.1281-.5733,6.4123-3.6562,10.9192,1.517Z" fill="#fff"/>
        <path d="M247.8071,49.632c-.4738-.1393-.9232-.3358-1.3508-.5906-.4276-.2543-.7755-.5611-1.0426-.92-.2684-.3595-.4314-.7576-.4892-1.1954-.0578-.4379.0603-.9162.3531-1.4375l2.4049-4.4773c.1939-.3403.5213-.6003.9836-.7794.4609-.1798.9578-.3011,1.492-.3666.5328-.0648,1.04-.0841,1.5241-.059.4828.0256.8423.0731,1.0786.1425l23.4716,6.9131-8.5579,2.1744-9.8663-2.9057-1.9363,3.5991,4.652-1.3976,8.64,2.5449c.452.1328.8847.3479,1.2995.6452.4147.2972.7472.6529,1.0002,1.0657.2517.4128.4006.8596.4455,1.3399.045.4808-.0642.9739-.3299,1.4791l-2.3857,4.4132c-.1939.3402-.5278.5983-.999.7742-.4725.1766-.9758.2973-1.5087.3621s-1.0465.0828-1.5395.0546c-.4944-.0289-.8487-.0751-1.0632-.1381l-23.4408-6.9034,8.5271-2.1841,9.8663,2.9057.7974-1.5171-12.026-3.5419Z" fill="#fff"/>
        <path d="M305.821,83.6331l-19.7878-12.6654,9.1678-9.3367-1.2326-5.6175,14.0701,9.0054-8.6015,8.7011,9.9073,6.3417-3.5233,3.5714Z" fill="#fff"/>
        <path d="M329.4442,82.0037l-13.5694,10.6541-9.0086-7.514,9.9357-7.819-3.1998-2.6694,7.3753.2869,8.4668,7.0614Z" fill="#fff"/>
        <path d="M330.411,98.769l-5.4544,3.1805-7.7695-8.6536,14.9586-8.5951,19.0393,21.2092-8.4257-2.6438-6.8476-7.6282-3.8302,2.1738,4.9871,1.0779,6.6691,7.428-4.3232,2.4807-9.0035-10.0294Z" fill="#fff"/>
        <path d="M348.0148,121.9787l-1.2571.45582,8.8211,14.38348-4.7277,1.6769-12.6346-20.59998c-.2696-.43977-.4776-.89688-.6253-1.37196-.1464-.47508-.199-.93604-.1566-1.38223.041-.4462.1874-.85066.4378-1.21467.2491-.36402.6523-.64971,1.207-.859l10.7599-3.80006c.3724-.1226.7923-.0911,1.2609.09441.4687.18618.9219.43336,1.3624.74216.4391.3088.8294.63494,1.171.97713.3415.34283.5765.61889.7049.82882l12.7759,20.82978-7.8107-4.12036-5.3594-8.73895-4.1319,1.42974,4.729,1.98893,5.2195,8.50974-4.6995,1.6596-7.0466-11.4893Z" fill="#fff"/>
      </g>
      <g>
        <path d="M363.6307,286.5976l.7255,7.3458-12.313,19.7326c-.1541.2472-.3833.5194-.6889.8186-.3043.2978-.6394.538-1.0041.7203-.3646.1817-.7312.2825-1.1004.3037-.3691.0199-.701-.115-.9964-.4039l-4.3996-4.2507c-.3396-.3447-.5489-.7922-.6279-1.343-.079-.5509-.0873-1.0979-.0263-1.6404.0616-.5431.1553-1.0323.2825-1.4682.1264-.4359.2195-.7017.2792-.7961l-.1322-.043-6.8611.7107,6.4765-10.3799,6.6403-.9271-3.7936-3.635,6.228-9.9806,9.1056,8.7723,2.2059-3.5361ZM353.7708,298.5902l-2.3484,3.7641,1.3835,1.3386,2.3484-3.7641-1.3835-1.3386Z" fill="#fff"/>
        <path d="M340.1225,320.4093l2.3067-2.3978-.8083,7.3374-11.8841,12.3534-15.4684-8.2581,8.2253-8.5508,2.351,1.0959,4.5672-4.7476-.2773-3.2511,8.1791-8.5027,2.8088,14.9214ZM328.4046,324.1548l3.1734,1.84-.9366-4.1654-2.2368,2.3254Z" fill="#fff"/>
        <path d="M309.5503,347.5308l-2.9924-7.0159-12.3817,8.687-1.9651-4.616,18.3523-12.8754c.4217-.2959.8654-.5322,1.3302-.7075.4654-.1765.9219-.2568,1.37-.2427.4481.0142.8609.1349,1.2391.3621.3788.2273.6895.6112.9322,1.1531l4.4555,10.5051c.1451.3633.1399.7845-.0167,1.2641-.1567.4796-.3756.9469-.6568,1.4047-.2812.4571-.5823.8673-.9033,1.2294-.321.3615-.5816.6131-.7839.755l-20.0035,14.0342,3.6318-8.0494,8.3923-5.8878Z" fill="#fff"/>
        <path d="M281.0768,368.8311l-4.3804-16.6863,10.4756-5.2785,3.2248,12.2256,3.7216-1.8752-3.1958,6.6537-9.8458,4.9607Z" fill="#fff"/>
        <path d="M278.2398,370.2044l-15.516,4.8888-5.7369-2.1038.3512,3.8006-11.0919,3.4945-1.6403-17.1736,11.0925-3.4944.3229,3.5984,4.9056,2.2598.3845-.1213-.7087-7.2822,11.2524-3.5458,1.284,13.0224,5.1007,2.6566Z" fill="#fff"/>
        <path d="M220.3189,377.929l10.1976-1.0439.4879-4.4754-3.7737,3.3929-13.3087,1.3624.8256-7.7882c.0565-.5463.2529-1.0451.5894-1.4958.3376-.452.7306-.8411,1.1812-1.1685.4507-.328.9374-.5861,1.4587-.7742.5213-.1888,1.0041-.3056,1.4509-.3512l19.6928-2.0159c.5136-.0526,1.0157-.0424,1.5074.0315.4918.0731.9296.2259,1.3136.4571.3839.2304.6869.538.9052.9206.2196.3833.3037.8699.251,1.4612l-1.2371,11.3436c-.0501.3877-.262.753-.6318,1.0952-.371.3422-.7896.6439-1.2583.9059-.4686.2619-.9322.4725-1.3893.6323-.4558.1586-.8063.2511-1.0529.2768l-24.3075,2.4877,7.098-5.2541ZM231.3293,369.3017l-6.0195.6157-.1168,1.1607,6.0181-.6156.1182-1.1608Z" fill="#fff"/>
        <path d="M178.1637,379.0897l5.8846-16.2176,11.6177,1.6146-4.2989,11.8905,4.1281.5733-6.4123,3.6563-10.9192-1.5171Z" fill="#fff"/>
        <path d="M175.4532,367.4155c.4738.1393.9232.3358,1.3507.5907.4276.2542.7756.5611,1.0426.92.2684.3595.4315.7575.4892,1.1954.0578.4378-.0603.9161-.3531,1.4374l-2.4049,4.4773c-.1939.3403-.5213.6003-.9835.7794-.461.1798-.9579.3011-1.4921.3666-.5328.0649-1.04.0841-1.5241.0591-.4828-.0257-.8423-.0732-1.0785-.1425l-23.4717-6.9131,8.5579-2.1745,9.8663,2.9057,1.9363-3.5991-4.6519,1.3977-8.6401-2.5449c-.452-.1329-.8847-.348-1.2994-.6452-.4148-.2973-.7473-.653-1.0003-1.0658-.2516-.4128-.4006-.8596-.4455-1.3398-.045-.4809.0642-.9739.33-1.4792l2.3856-4.4131c.1939-.3403.5278-.5984.999-.7743.4725-.1765.9758-.2972,1.5087-.3621.5329-.0648,1.0465-.0828,1.5395-.0545.4944.0288.8488.0751,1.0632.138l23.4408,6.9034-8.5271,2.1841-9.8663-2.9057-.7973,1.5171,12.026,3.5419Z" fill="#fff"/>
        <path d="M117.4392,333.4144l19.7878,12.6654-9.1678,9.3367,1.2326,5.6175-14.0701-9.0054,8.6016-8.701-9.9074-6.3417,3.5233-3.5715Z" fill="#fff"/>
        <path d="M93.816,335.0438l13.5694-10.654,9.0086,7.514-9.9356,7.8189,3.1997,2.6695-7.3753-.287-8.4668-7.0614Z" fill="#fff"/>
        <path d="M92.8492,318.2785l5.4544-3.1805,7.7696,8.6536-14.9587,8.5951-19.0393-21.2092,8.4257,2.6438,6.8476,7.6283,3.8302-2.1738-4.9871-1.078-6.6691-7.4279,4.3232-2.4807,9.0035,10.0293Z" fill="#fff"/>
        <path d="M75.2455,295.0688l1.257-.4558-8.8211-14.3834,4.7277-1.6769,12.6346,20.5999c.2696.4398.4777.8969.6253,1.372.1464.4751.199.936.1567,1.3822-.0411.4462-.1875.8507-.4379,1.2147-.2491.364-.6523.6497-1.2069.859l-10.76,3.8c-.3724.1226-.7923.0912-1.2609-.0944-.4687-.1862-.9219-.4333-1.3623-.7421-.4392-.3088-.8295-.635-1.1711-.9772-.3415-.3428-.5765-.6189-.7049-.8288l-12.7758-20.8298,7.8106,4.1204,5.3594,8.7389,4.1319-1.4297-4.729-1.9889-5.2194-8.5098,4.6994-1.6596,7.0467,11.4893Z" fill="#fff"/>
      </g>
      <path d="M237.972,169.5602c-.4999-.3333-10.1647-4.9991-15.997,0-5.8322,4.999-11.9904-.6666-14.077,3.3327,7.4116,1.3331,9.7445,4.7626,9.7445,4.7626,0,0-26.9949-9.4284-38.6593,15.2336-2.3329-7.6652,3.4993-9.4982,1.8329-13.4974-1.6663-3.9993-3.3327,10.9979-9.6648,11.1645-6.3321.1667-11.4978,11.3312-11.4978,11.3312,0,0,2.1662-30.3276,31.6607-39.8258,29.4944-9.4982,46.6578,7.4986,46.6578,7.4986Z"/>
      <path d="M237.972,229.2885c.3014-.493,13.2838-25.8141-1.9993-42.8982,14.1328,5.7585,14.9545,31.7234,10.8461,39.1185-3.7797,4.93-8.8468,3.7797-8.8468,3.7797Z"/>
      <g>
        <circle cx="207.1036" cy="166.24" r="7.0634"/>
        <path d="M207.1033,169.4531c-1.7717,0-3.2136-1.4409-3.2136-3.2126,0-1.7718,1.4419-3.2136,3.2136-3.2136,1.7718,0,3.2136,1.4418,3.2136,3.2136,0,1.7717-1.4418,3.2126-3.2136,3.2126Z" fill="#fff"/>
        <circle cx="247.37233" cy="194.46085" r="7.06335" transform="translate(-52.86798 100.31283) rotate(-20.76095)"/>
        <path d="M247.3703,197.676c-1.4042,0-2.6345-.9013-3.0603-2.2426-.5367-1.6881.4004-3.4984,2.0894-4.0351.3186-.1015.6467-.1532.9747-.1532,1.4052,0,2.6346.9014,3.0604,2.2417.2603.8196.1861,1.69-.2087,2.4513-.3947.7623-1.0621,1.3253-1.8798,1.5847-.3205.1016-.6486.1532-.9757.1532Z" fill="#fff"/>
        <path d="M226.8998,245.4603c-2.2513-3.1858-1.4938-7.5935,1.692-9.8448s7.5935-1.4938,9.8448,1.692,1.4938,7.5935-1.692,9.8448-7.5935,1.4938-9.8448-1.692Z"/>
        <path d="M232.6747,244.5977c-1.0461,0-2.0293-.5075-2.6308-1.3591-1.0226-1.4465-.6767-3.4561.7698-4.4787.5461-.3863,1.1852-.5903,1.8488-.5903,1.0452,0,2.0283.5085,2.6299,1.3591.4953.7012.688,1.5537.5423,2.3996-.1457.846-.6109,1.5847-1.3121,2.0801-.5461.3854-1.1852.5893-1.8479.5893Z" fill="#fff"/>
        <path d="M177.864,237.3134c2.3546-3.1103,6.7848-3.7228,9.895-1.3682,3.1102,2.3547,3.7228,6.7848,1.3681,9.8951-2.3546,3.1102-6.7847,3.7227-9.895,1.3681-3.1102-2.3547-3.7227-6.7848-1.3681-9.895Z"/>
        <path d="M183.4897,244.7913c-.4897,0-1.2228-.1137-1.9343-.6523-1.4118-1.0696-1.6909-3.0895-.6213-4.5022.6128-.8092,1.549-1.2745,2.5669-1.2745.4897,0,1.2228.1137,1.9344.6523,1.4127,1.0696,1.6918,3.0895.6222,4.5022-.6128.8093-1.549,1.2745-2.5679,1.2745Z" fill="#fff"/>
        <path d="M170.782,188.1125c3.6772,1.3024,5.6023,5.3392,4.2998,9.0163-1.3024,3.6772-5.3391,5.6023-9.0163,4.2998-3.6772-1.3024-5.6023-5.3392-4.2998-9.0163,1.3024-3.6772,5.3392-5.6023,9.0163-4.2998Z"/>
        <path d="M168.4238,197.9853c-.3628,0-.7238-.0621-1.0725-.1861-1.6711-.5912-2.5481-2.4316-1.9569-4.1018.454-1.2811,1.6712-2.1421,3.0294-2.1421.3628,0,.7237.062,1.0724.1861,1.6703.5912,2.5481,2.4325,1.9569,4.1027-.4539,1.2802-1.6711,2.1412-3.0293,2.1412Z" fill="#fff"/>
      </g>
      <path d="M175.4891,207.3383s-.9689,15.1745,12.9687,24.5918c-6.4038-.8789-5.3449-4.897-12.9687-7.5338-7.6238-2.6369-8.8795-17.9557-11.2652-21.0948,6.1527,3.3903,12.117-1.7754,12.117-1.7754,0,0-.9696,2.7348-.8518,5.8122Z"/>
    </g>
  </g>
</svg>