<?xml version="1.0" encoding="UTF-8"?>
<svg id="Layer_2" data-name="Layer 2" xmlns="http://www.w3.org/2000/svg" viewBox="0 0 373.5089 373.50889">
  <g id="Layer_2-2" data-name="Layer 2">
    <g>
      <polygon points="298.9972 185.22679 294.0961 155.15279 347.849 134.3264 356.5812 204.40119 298.9972 185.22679"/>
      <path d="M302.479,151.4924l-81.7554,2.5196,8.6382,53.006,78.3249-23.5707-5.2077-31.9549ZM260.0521,178.9783c-2.2803,1.8967-5.6665,1.5857-7.5633-.6947-1.8968-2.2805-1.5857-5.6667.6946-7.5634,2.2805-1.8967,5.6667-1.5857,7.5634.6947,1.8967,2.2803,1.5857,5.6665-.6947,7.5634ZM286.272,174.7052c-2.2803,1.8967-5.6665,1.5857-7.5633-.6947-1.8967-2.2803-1.5856-5.6665.6947-7.5632s5.6665-1.5858,7.5632.6946c1.8969,2.2804,1.5859,5.6666-.6946,7.5633Z"/>
      <path d="M298.4932,156.3292l-72.2554,2.2267,6.9102,42.4018,69.2238-20.82991-3.8786-23.79859ZM260.0521,178.9783c-2.2803,1.8967-5.6665,1.5857-7.5633-.6947-1.8968-2.2805-1.5857-5.6667.6946-7.5634,2.2805-1.8967,5.6667-1.5857,7.5634.6947,1.8967,2.2803,1.5857,5.6665-.6947,7.5634ZM286.272,174.7052c-2.2803,1.8967-5.6665,1.5857-7.5633-.6947-1.8967-2.2803-1.5856-5.6665.6947-7.5632s5.6665-1.5858,7.5632.6946c1.8969,2.2804,1.5859,5.6666-.6946,7.5633Z" fill="#fff"/>
      <path d="M71.0299,151.4924l-5.2076,31.9549,78.3248,23.5707,8.6383-53.006-81.7555-2.5196ZM94.8001,174.0105c-1.8967,2.2804-5.2829,2.5914-7.5632.6947s-2.5914-5.2829-.6946-7.5633c1.8967-2.2804,5.2829-2.5913,7.5632-.6946,2.2805,1.8967,2.5913,5.2829.6946,7.5632ZM121.0201,178.2836c-1.8967,2.2804-5.2829,2.5914-7.5632.6947-2.2805-1.8969-2.5914-5.2831-.6947-7.5634,1.8968-2.2804,5.283-2.5914,7.5633-.6947s2.5913,5.2829.6946,7.5634Z"/>
      <path d="M159.9022,225.54769l10.6633,81.0963h32.3764l10.6656-81.0963h-53.7053ZM190.8692,286.91429c-1.5053,2.5557-4.7973,3.4073-7.3531,1.9022-2.5557-1.5054-3.4074-4.7974-1.9021-7.3532,1.5052-2.5557,4.7974-3.4073,7.353-1.902,2.5559,1.5051,3.4074,4.7973,1.9022,7.353ZM190.8692,260.34849c-1.5053,2.5557-4.7973,3.40729-7.3531,1.902-2.5557-1.5052-3.4074-4.7973-1.9021-7.353,1.5052-2.5558,4.7974-3.4073,7.353-1.9022,2.5559,1.5053,3.4074,4.7974,1.9022,7.3532Z"/>
      <polygon points="73.0244 183.6564 77.9256 153.5824 24.1727 132.756 15.4405 202.83079 73.0244 183.6564"/>
      <polygon points="201.9899 299.50189 171.5191 299.50189 159.6098 355.90469 213.8991 355.90469 201.9899 299.50189"/>
      <path d="M75.0157,156.3292l-3.8784,23.79859,69.2237,20.82991,6.9102-42.4018-72.2555-2.2267ZM94.8001,174.0105c-1.8967,2.2804-5.2829,2.5914-7.5632.6947s-2.5914-5.2829-.6946-7.5633c1.8967-2.2804,5.2829-2.5913,7.5632-.6946,2.2805,1.8967,2.5913,5.2829.6946,7.5632ZM121.0201,178.2836c-1.8967,2.2804-5.2829,2.5914-7.5632.6947-2.2805-1.8969-2.5914-5.2831-.6947-7.5634,1.8968-2.2804,5.283-2.5914,7.5633-.6947s2.5913,5.2829.6946,7.5634Z" fill="#fff"/>
      <path d="M126.3457,176.1433c-.1318.9662-.3682,1.9298-.8131,2.8561-2.2921,4.7726-8.019,6.7833-12.7916,4.4912-4.7725-2.292-6.7834-8.019-4.4912-12.7915.2263-.4712.5101-.8931.7991-1.3089-3.1913-1.1789-6.0215-1.5145-8.9515-1.31441.5786,2.17681.4552,4.55161-.5964,6.74111-2.342,4.8766-8.1939,6.9311-13.0705,4.5891-4.3779-2.1024-6.4514-7.02921-5.1415-11.5441-1.9146-1.0622-3.3175-2.30111-4.075-3.0578l-2.0891,12.8335,62.397,18.77519,3.7812-23.20369c-4.6603,1.5706-10.0794,2.9154-14.9574,2.9342Z"/>
      <path d="M165.274,230.25929l9.4241,71.6728h24.1127l9.4242-71.6728h-42.961ZM190.8692,286.91429c-1.5053,2.5557-4.7973,3.4073-7.3531,1.9022-2.5557-1.5054-3.4074-4.7974-1.9021-7.3532,1.5052-2.5557,4.7974-3.4073,7.353-1.902,2.5559,1.5051,3.4074,4.7973,1.9022,7.353ZM190.8692,260.34849c-1.5053,2.5557-4.7973,3.40729-7.3531,1.902-2.5557-1.5052-3.4074-4.7973-1.9021-7.353,1.5052-2.5558,4.7974-3.4073,7.353-1.9022,2.5559,1.5053,3.4074,4.7974,1.9022,7.3532Z" fill="#fff"/>
      <path d="M297.2828,170.8731c-1.0945,1.3028-2.7238,2.294-5.1118,2.5798-.7761,2.51689-2.5312,4.723-5.0927,5.9531-4.8765,2.342-10.7284.2875-13.0704-4.5891-.6685-1.3919-.9414-2.8594-.9302-4.3059-2.4165-.2726-4.8706-.3754-7.3671-.1875.0217.0437.0537.0787.0749.1228,2.4318,5.0632.2985,11.139-4.7647,13.5707-5.0633,2.43179-11.1391.2985-13.5708-4.7648-.1449-.3017-.2213-.6156-.3342-.92341-1.8321,1.53451-3.6871,3.30911-5.5715,5.41331-2.0473,2.2862-4.3572,3.8521-6.8283,4.8665l1.2718,7.80419,62.397-18.77519-1.102-6.7645Z"/>
      <path d="M186.7544,0C83.6129,0,0,83.6127,0,186.7544s83.6129,186.7545,186.7544,186.7545,186.7545-83.6129,186.7545-186.7545S289.8962,0,186.7544,0ZM186.7544,333.86159c-81.245,0-147.1071-65.8622-147.1071-147.1072S105.5094,39.6473,186.7544,39.6473s147.1072,65.8622,147.1072,147.1071-65.8622,147.1072-147.1072,147.1072Z"/>
      <circle cx="186.7545" cy="186.7544" r="60.373"/>
      <circle cx="186.75447" cy="186.7544" r="50.47974" fill="#fff"/>
      <circle cx="186.7545" cy="186.75439" r="28.9896"/>
      <path d="M186.7544,136.2747c-27.8791,0-50.4797,22.6006-50.4797,50.4797s22.6006,50.4798,50.4797,50.4798,50.4798-22.6006,50.4798-50.4798-22.6006-50.4797-50.4798-50.4797ZM186.7544,215.74389c-16.0104,0-28.9894-12.979-28.9894-28.9895s12.979-28.98961,28.9894-28.98961,28.9897,12.97921,28.9897,28.98961-12.9792,28.9895-28.9897,28.9895Z" fill="#fff"/>
      <g>
        <path d="M221.1164,192.5212l9.516,1.9361c.4393-2.5072.7128-5.0712.7128-7.7024,0-2.289-.2278-4.5206-.5621-6.7176-3.0106,1.0224-6.5115,1.93849-9.4103,2.6264.158,1.3444.2615,2.7049.2615,4.0912,0,1.9683-.203,3.8861-.5179,5.7663Z"/>
        <path d="M220.6527,194.8297c-3.6575,15.3448-17.4485,26.8035-33.8978,26.8035-19.2331,0-34.8795-15.64641-34.8795-34.8783,0-.8665.0677-1.7163.1301-2.56711-4.4384.53541-7.8259-.03549-9.6884-.44569-.0673,1.0002-.1526,1.9959-.1526,3.0128,0,24.5877,20.0038,44.5903,44.5904,44.5903,21.1404,0,38.8545-14.803,43.4157-34.5788l-9.5179-1.9367Z"/>
      </g>
      <circle cx="186.75448" cy="186.7544" r="23.45474" fill="#fff"/>
      <circle cx="186.7545" cy="147.2971" r="7.5992"/>
      <path d="M192.125,147.2971c0,2.9661-2.4045,5.3705-5.3705,5.3705s-5.3706-2.4044-5.3706-5.3705,2.4045-5.3706,5.3706-5.3706,5.3705,2.4045,5.3705,5.3706Z" fill="#fff"/>
      <circle cx="186.7545" cy="147.2971" r="3.0732"/>
      <path d="M224.7817,173.7715c-3.6437,2.0827-8.2858.81729-10.3685-2.8264-2.0827-3.6438-.8173-8.2859,2.8264-10.3686,3.6437-2.08271,8.2859-.8173,10.3686,2.8264s.8173,8.28589-2.8265,10.3686Z"/>
      <circle cx="221.0107" cy="167.174" r="5.37053" fill="#fff"/>
      <path d="M222.5357,169.8421c-1.4735.8423-3.3509.3305-4.1931-1.1431-.8423-1.4735-.3305-3.3508,1.143-4.1931,1.4736-.8423,3.3509-.3305,4.1932,1.143.8423,1.4736.3305,3.35089-1.1431,4.1932Z"/>
      <path d="M216.8968,213.32639c-3.6164-2.1299-4.8214-6.7881-2.6915-10.4044,2.1299-3.6164,6.7881-4.8214,10.4045-2.6915,3.6163,2.1299,4.8213,6.7881,2.6914,10.4045-2.1299,3.6163-6.7881,4.8213-10.4044,2.6914Z"/>
      <path d="M218.0278,211.40599c-2.5558-1.50521-3.4074-4.7973-1.9021-7.353,1.5052-2.5558,4.7973-3.4074,7.3531-1.9021,2.5557,1.5052,3.4073,4.7973,1.9021,7.353-1.5053,2.5558-4.7974,3.4074-7.3531,1.9021Z" fill="#fff"/>
      <path d="M219.1937,209.42649c-1.4625-.8613-1.9498-2.7452-1.0885-4.2076.8614-1.4625,2.7452-1.9498,4.2077-1.0885s1.9498,2.7452,1.0884,4.2077c-.8613,1.4625-2.7452,1.9498-4.2076,1.0884Z"/>
      <path d="M178.643,226.10959c.0546-4.1965,3.5008-7.5543,7.6974-7.49981,4.1965.05461,7.5543,3.50081,7.4998,7.69741-.0546,4.19659-3.5008,7.5543-7.6974,7.4998-4.1966-.0546-7.5544-3.5008-7.4998-7.6974Z"/>
      <path d="M180.8715,226.13859c.0385-2.96581,2.4741-5.33881,5.4399-5.3003,2.9658.0386,5.3388,2.4741,5.3003,5.4399-.0386,2.9658-2.4741,5.3389-5.4399,5.3003-2.9658-.0385-5.3389-2.4741-5.3003-5.4399Z" fill="#fff"/>
      <path d="M183.1686,226.16849c.0221-1.6972,1.4158-3.0551,3.1129-3.033,1.6972.022,3.0551,1.4157,3.033,3.1129-.022,1.6971-1.4157,3.055-3.1129,3.033-1.6971-.0221-3.055-1.4158-3.033-3.1129Z"/>
      <path d="M148.5617,199.24189c3.6704-2.03511,8.2958-.7095,10.3309,2.961,2.0352,3.6705.7095,8.2958-2.961,10.331-3.6705,2.0351-8.2958.7095-10.3309-2.961-2.0352-3.6705-.7095-8.2958,2.961-10.331Z"/>
      <path d="M149.6424,201.19099c2.594-1.4383,5.8628-.5014,7.3011,2.0926s.5014,5.8629-2.0926,7.30119c-2.594,1.43831-5.8628.50141-7.3011-2.09259-1.4383-2.5941-.5014-5.8629,2.0926-7.3012Z" fill="#fff"/>
      <path d="M150.7564,203.20019c1.4844-.8231,3.3549-.2869,4.1779,1.1974.8231,1.4844.287,3.355-1.1974,4.178s-3.3549.2869-4.178-1.1975c-.823-1.48431-.2869-3.3549,1.1975-4.1779Z"/>
      <path d="M156.9601,159.7929c3.5884,2.1767,4.7327,6.8502,2.556,10.4385s-6.8502,4.7327-10.4386,2.556c-3.5883-2.1767-4.7326-6.8502-2.5559-10.43861,2.1767-3.58829,6.8502-4.73269,10.4385-2.55589Z"/>
      <path d="M155.8042,161.6983c2.536,1.5384,3.3447,4.8413,1.8064,7.3772-1.5383,2.536-4.8412,3.3447-7.3772,1.8064-2.5359-1.5383-3.3447-4.8412-1.8063-7.3772,1.5383-2.53591,4.8412-3.3447,7.3771-1.8064Z" fill="#fff"/>
      <path d="M154.6127,163.6626c1.4512.88019,1.914,2.7703,1.0337,4.2214-.8803,1.4512-2.7703,1.914-4.2215,1.0337-1.4511-.8803-1.9139-2.7703-1.0336-4.2215.8802-1.4511,2.7703-1.9139,4.2214-1.0336Z"/>
      <path d="M188.6329,276.06259c-4.4881-1.3205-9.1968,1.247-10.5175,5.735-1.3206,4.4879,1.2471,9.1967,5.735,10.5174s9.1966-1.247,10.5173-5.7349c1.3207-4.488-1.2469-9.1968-5.7348-10.5175ZM190.8692,286.91429c-1.5053,2.5557-4.7973,3.4073-7.3531,1.9022-2.5557-1.5054-3.4074-4.7974-1.9021-7.3532,1.5052-2.5557,4.7974-3.4073,7.353-1.902,2.5559,1.5051,3.4074,4.7973,1.9022,7.353ZM183.8504,265.74919c4.4879,1.3205,9.1966-1.2471,10.5173-5.735s-1.2469-9.1967-5.7348-10.51741c-4.4881-1.32069-9.1968,1.247-10.5175,5.73491-1.3206,4.488,1.2471,9.1968,5.735,10.5175ZM181.614,254.89749c1.5052-2.5558,4.7974-3.4073,7.353-1.9022,2.5559,1.5053,3.4074,4.7974,1.9022,7.3532-1.5053,2.5557-4.7973,3.40729-7.3531,1.902-2.5557-1.5052-3.4074-4.7973-1.9021-7.353Z"/>
      <path d="M94.3384,162.9405c-4.2171-2.0253-9.2776-.2485-11.3028,3.9685-2.0254,4.2172-.2487,9.2776,3.9685,11.3029,4.217,2.0254,9.2775.2486,11.3029-3.9686,2.0252-4.217.2484-9.2774-3.9686-11.3028ZM94.8001,174.0105c-1.8967,2.2804-5.2829,2.5914-7.5632.6947s-2.5914-5.2829-.6946-7.5633c1.8967-2.2804,5.2829-2.5913,7.5632-.6946,2.2805,1.8967,2.5913,5.2829.6946,7.5632ZM120.5583,167.2135c-4.217-2.0254-9.2775-.2486-11.3029,3.9686-2.0252,4.217-.2485,9.2775,3.9685,11.3029,4.2172,2.0252,9.2777.2486,11.3029-3.9686,2.0254-4.217.2486-9.2775-3.9685-11.3029ZM121.0201,178.2836c-1.8967,2.2804-5.2829,2.5914-7.5632.6947-2.2805-1.8969-2.5914-5.2831-.6947-7.5634,1.8968-2.2804,5.283-2.5914,7.5633-.6947s2.5913,5.2829.6946,7.5634Z"/>
      <path d="M204.7991,186.7544c0-1.6593-.2424-3.2589-.6619-4.7851-1.5051.4346-3.8546.6103-5.1578-1.8656-4.2384,7.16509-18.5686-6.7615-24.018,1.11,7.4678-3.3302,17.4586,7.8715,23.5135,7.3669-10.2935,3.633-16.3484-4.9449-22.4035-5.04581-3.3941-.05659-5.8015.95761-7.293,1.86371-.0335.4492-.0685.89829-.0685,1.3559,0,9.9657,8.0789,18.0446,18.0445,18.0446s18.0447-8.0789,18.0447-18.0446Z"/>
      <rect x="178.8836" y="6.84" width="14.568" height="25.4007" rx="2.0931" ry="2.0931" fill="#fff"/>
      <path d="M220.1743,21.2655c-3.0486-.5138-6.1706-.432-9.2117.1244h0c5.6681,1.8125,8.4835,2.5645,13.4433,3.5257,68.5434,13.2825,119.5039,76.8925,124.1798,150.6165,5.8354,92.00569-66.526,171.62969-158.7,173.3765-90.8556,1.7219-165.3166-71.6844-165.3166-162.1537,0-79.111,48.9323-147.3849,123.646-161.66811,3.1908-.61,6.3689-1.28459,9.4928-2.17609l3.6647-1.0457h0c-5.8717-.67-11.8276-.5024-17.6182.6787C66.2471,38.3523,15.0791,103.9712,15.0791,186.7549c0,94.663,77.0128,171.67689,171.6758,171.67689s171.6757-77.01389,171.6757-171.67689c0-84.837-57.4405-151.8689-138.2563-165.4894Z" fill="#fff"/>
      <path d="M252.9506,167.2135c-4.2172,2.0254-5.9938,7.0859-3.9685,11.3029,2.0254,4.2172,7.0858,5.9938,11.3028,3.9686,4.2172-2.0254,5.994-7.0859,3.9686-11.3029-2.0253-4.2172-7.0857-5.994-11.3029-3.9686ZM260.0521,178.9783c-2.2803,1.8967-5.6665,1.5857-7.5633-.6947-1.8968-2.2805-1.5857-5.6667.6946-7.5634,2.2805-1.8967,5.6667-1.5857,7.5634.6947,1.8967,2.2803,1.5857,5.6665-.6947,7.5634ZM290.4735,166.909c-2.0254-4.217-7.0859-5.9938-11.3029-3.9685-4.2172,2.0254-5.9939,7.0858-3.9686,11.3028,2.0253,4.2172,7.0858,5.994,11.3029,3.9686,4.217-2.0253,5.9938-7.0857,3.9686-11.3029ZM286.272,174.7052c-2.2803,1.8967-5.6665,1.5857-7.5633-.6947-1.8967-2.2803-1.5856-5.6665.6947-7.5632s5.6665-1.5858,7.5632.6946c1.8969,2.2804,1.5859,5.6666-.6946,7.5633Z"/>
    </g>
  </g>
</svg>